G04 #@! TF.GenerationSoftware,KiCad,Pcbnew,(5.1.5)-3*
G04 #@! TF.CreationDate,2019-12-27T06:25:41+09:00*
G04 #@! TF.ProjectId,MidiKey16,4d696469-4b65-4793-9136-2e6b69636164,rev?*
G04 #@! TF.SameCoordinates,Original*
G04 #@! TF.FileFunction,Legend,Top*
G04 #@! TF.FilePolarity,Positive*
%FSLAX46Y46*%
G04 Gerber Fmt 4.6, Leading zero omitted, Abs format (unit mm)*
G04 Created by KiCad (PCBNEW (5.1.5)-3) date 2019-12-27 06:25:41*
%MOMM*%
%LPD*%
G04 APERTURE LIST*
%ADD10C,0.120000*%
%ADD11C,0.381000*%
%ADD12C,0.150000*%
%ADD13C,0.203200*%
G04 APERTURE END LIST*
D10*
X53940000Y-89970000D02*
X53940000Y-92910000D01*
X54180000Y-89970000D02*
X54180000Y-92910000D01*
X54060000Y-89970000D02*
X54060000Y-92910000D01*
X58600000Y-92910000D02*
X58600000Y-92580000D01*
X53160000Y-92910000D02*
X58600000Y-92910000D01*
X53160000Y-92580000D02*
X53160000Y-92910000D01*
X58600000Y-89970000D02*
X58600000Y-90300000D01*
X53160000Y-89970000D02*
X58600000Y-89970000D01*
X53160000Y-90300000D02*
X53160000Y-89970000D01*
X53940000Y-109020000D02*
X53940000Y-111960000D01*
X54180000Y-109020000D02*
X54180000Y-111960000D01*
X54060000Y-109020000D02*
X54060000Y-111960000D01*
X58600000Y-111960000D02*
X58600000Y-111630000D01*
X53160000Y-111960000D02*
X58600000Y-111960000D01*
X53160000Y-111630000D02*
X53160000Y-111960000D01*
X58600000Y-109020000D02*
X58600000Y-109350000D01*
X53160000Y-109020000D02*
X58600000Y-109020000D01*
X53160000Y-109350000D02*
X53160000Y-109020000D01*
X53940000Y-128070000D02*
X53940000Y-131010000D01*
X54180000Y-128070000D02*
X54180000Y-131010000D01*
X54060000Y-128070000D02*
X54060000Y-131010000D01*
X58600000Y-131010000D02*
X58600000Y-130680000D01*
X53160000Y-131010000D02*
X58600000Y-131010000D01*
X53160000Y-130680000D02*
X53160000Y-131010000D01*
X58600000Y-128070000D02*
X58600000Y-128400000D01*
X53160000Y-128070000D02*
X58600000Y-128070000D01*
X53160000Y-128400000D02*
X53160000Y-128070000D01*
X53940000Y-147120000D02*
X53940000Y-150060000D01*
X54180000Y-147120000D02*
X54180000Y-150060000D01*
X54060000Y-147120000D02*
X54060000Y-150060000D01*
X58600000Y-150060000D02*
X58600000Y-149730000D01*
X53160000Y-150060000D02*
X58600000Y-150060000D01*
X53160000Y-149730000D02*
X53160000Y-150060000D01*
X58600000Y-147120000D02*
X58600000Y-147450000D01*
X53160000Y-147120000D02*
X58600000Y-147120000D01*
X53160000Y-147450000D02*
X53160000Y-147120000D01*
X72210000Y-90300000D02*
X72210000Y-89970000D01*
X72210000Y-89970000D02*
X77650000Y-89970000D01*
X77650000Y-89970000D02*
X77650000Y-90300000D01*
X72210000Y-92580000D02*
X72210000Y-92910000D01*
X72210000Y-92910000D02*
X77650000Y-92910000D01*
X77650000Y-92910000D02*
X77650000Y-92580000D01*
X73110000Y-89970000D02*
X73110000Y-92910000D01*
X73230000Y-89970000D02*
X73230000Y-92910000D01*
X72990000Y-89970000D02*
X72990000Y-92910000D01*
X72210000Y-109350000D02*
X72210000Y-109020000D01*
X72210000Y-109020000D02*
X77650000Y-109020000D01*
X77650000Y-109020000D02*
X77650000Y-109350000D01*
X72210000Y-111630000D02*
X72210000Y-111960000D01*
X72210000Y-111960000D02*
X77650000Y-111960000D01*
X77650000Y-111960000D02*
X77650000Y-111630000D01*
X73110000Y-109020000D02*
X73110000Y-111960000D01*
X73230000Y-109020000D02*
X73230000Y-111960000D01*
X72990000Y-109020000D02*
X72990000Y-111960000D01*
X72210000Y-128400000D02*
X72210000Y-128070000D01*
X72210000Y-128070000D02*
X77650000Y-128070000D01*
X77650000Y-128070000D02*
X77650000Y-128400000D01*
X72210000Y-130680000D02*
X72210000Y-131010000D01*
X72210000Y-131010000D02*
X77650000Y-131010000D01*
X77650000Y-131010000D02*
X77650000Y-130680000D01*
X73110000Y-128070000D02*
X73110000Y-131010000D01*
X73230000Y-128070000D02*
X73230000Y-131010000D01*
X72990000Y-128070000D02*
X72990000Y-131010000D01*
X72210000Y-147450000D02*
X72210000Y-147120000D01*
X72210000Y-147120000D02*
X77650000Y-147120000D01*
X77650000Y-147120000D02*
X77650000Y-147450000D01*
X72210000Y-149730000D02*
X72210000Y-150060000D01*
X72210000Y-150060000D02*
X77650000Y-150060000D01*
X77650000Y-150060000D02*
X77650000Y-149730000D01*
X73110000Y-147120000D02*
X73110000Y-150060000D01*
X73230000Y-147120000D02*
X73230000Y-150060000D01*
X72990000Y-147120000D02*
X72990000Y-150060000D01*
X92040000Y-89970000D02*
X92040000Y-92910000D01*
X92280000Y-89970000D02*
X92280000Y-92910000D01*
X92160000Y-89970000D02*
X92160000Y-92910000D01*
X96700000Y-92910000D02*
X96700000Y-92580000D01*
X91260000Y-92910000D02*
X96700000Y-92910000D01*
X91260000Y-92580000D02*
X91260000Y-92910000D01*
X96700000Y-89970000D02*
X96700000Y-90300000D01*
X91260000Y-89970000D02*
X96700000Y-89970000D01*
X91260000Y-90300000D02*
X91260000Y-89970000D01*
X92040000Y-109020000D02*
X92040000Y-111960000D01*
X92280000Y-109020000D02*
X92280000Y-111960000D01*
X92160000Y-109020000D02*
X92160000Y-111960000D01*
X96700000Y-111960000D02*
X96700000Y-111630000D01*
X91260000Y-111960000D02*
X96700000Y-111960000D01*
X91260000Y-111630000D02*
X91260000Y-111960000D01*
X96700000Y-109020000D02*
X96700000Y-109350000D01*
X91260000Y-109020000D02*
X96700000Y-109020000D01*
X91260000Y-109350000D02*
X91260000Y-109020000D01*
X92040000Y-128070000D02*
X92040000Y-131010000D01*
X92280000Y-128070000D02*
X92280000Y-131010000D01*
X92160000Y-128070000D02*
X92160000Y-131010000D01*
X96700000Y-131010000D02*
X96700000Y-130680000D01*
X91260000Y-131010000D02*
X96700000Y-131010000D01*
X91260000Y-130680000D02*
X91260000Y-131010000D01*
X96700000Y-128070000D02*
X96700000Y-128400000D01*
X91260000Y-128070000D02*
X96700000Y-128070000D01*
X91260000Y-128400000D02*
X91260000Y-128070000D01*
X92040000Y-147120000D02*
X92040000Y-150060000D01*
X92280000Y-147120000D02*
X92280000Y-150060000D01*
X92160000Y-147120000D02*
X92160000Y-150060000D01*
X96700000Y-150060000D02*
X96700000Y-149730000D01*
X91260000Y-150060000D02*
X96700000Y-150060000D01*
X91260000Y-149730000D02*
X91260000Y-150060000D01*
X96700000Y-147120000D02*
X96700000Y-147450000D01*
X91260000Y-147120000D02*
X96700000Y-147120000D01*
X91260000Y-147450000D02*
X91260000Y-147120000D01*
X110310000Y-90300000D02*
X110310000Y-89970000D01*
X110310000Y-89970000D02*
X115750000Y-89970000D01*
X115750000Y-89970000D02*
X115750000Y-90300000D01*
X110310000Y-92580000D02*
X110310000Y-92910000D01*
X110310000Y-92910000D02*
X115750000Y-92910000D01*
X115750000Y-92910000D02*
X115750000Y-92580000D01*
X111210000Y-89970000D02*
X111210000Y-92910000D01*
X111330000Y-89970000D02*
X111330000Y-92910000D01*
X111090000Y-89970000D02*
X111090000Y-92910000D01*
X110310000Y-109350000D02*
X110310000Y-109020000D01*
X110310000Y-109020000D02*
X115750000Y-109020000D01*
X115750000Y-109020000D02*
X115750000Y-109350000D01*
X110310000Y-111630000D02*
X110310000Y-111960000D01*
X110310000Y-111960000D02*
X115750000Y-111960000D01*
X115750000Y-111960000D02*
X115750000Y-111630000D01*
X111210000Y-109020000D02*
X111210000Y-111960000D01*
X111330000Y-109020000D02*
X111330000Y-111960000D01*
X111090000Y-109020000D02*
X111090000Y-111960000D01*
X110310000Y-128400000D02*
X110310000Y-128070000D01*
X110310000Y-128070000D02*
X115750000Y-128070000D01*
X115750000Y-128070000D02*
X115750000Y-128400000D01*
X110310000Y-130680000D02*
X110310000Y-131010000D01*
X110310000Y-131010000D02*
X115750000Y-131010000D01*
X115750000Y-131010000D02*
X115750000Y-130680000D01*
X111210000Y-128070000D02*
X111210000Y-131010000D01*
X111330000Y-128070000D02*
X111330000Y-131010000D01*
X111090000Y-128070000D02*
X111090000Y-131010000D01*
X110310000Y-147450000D02*
X110310000Y-147120000D01*
X110310000Y-147120000D02*
X115750000Y-147120000D01*
X115750000Y-147120000D02*
X115750000Y-147450000D01*
X110310000Y-149730000D02*
X110310000Y-150060000D01*
X110310000Y-150060000D02*
X115750000Y-150060000D01*
X115750000Y-150060000D02*
X115750000Y-149730000D01*
X111210000Y-147120000D02*
X111210000Y-150060000D01*
X111330000Y-147120000D02*
X111330000Y-150060000D01*
X111090000Y-147120000D02*
X111090000Y-150060000D01*
X94430000Y-63500462D02*
G75*
G03X88880000Y-61955170I-2990000J462D01*
G01*
X94430000Y-63499538D02*
G75*
G02X88880000Y-65044830I-2990000J-462D01*
G01*
X93940000Y-63500000D02*
G75*
G03X93940000Y-63500000I-2500000J0D01*
G01*
X88880000Y-61955000D02*
X88880000Y-65045000D01*
X100330000Y-68640000D02*
X100330000Y-65980000D01*
X100330000Y-68640000D02*
X108010000Y-68640000D01*
X108010000Y-68640000D02*
X108010000Y-65980000D01*
X100330000Y-65980000D02*
X108010000Y-65980000D01*
X97730000Y-65980000D02*
X99060000Y-65980000D01*
X97730000Y-67310000D02*
X97730000Y-65980000D01*
X97730000Y-62230000D02*
X97730000Y-60900000D01*
X97730000Y-60900000D02*
X99060000Y-60900000D01*
X100330000Y-60900000D02*
X108010000Y-60900000D01*
X108010000Y-63560000D02*
X108010000Y-60900000D01*
X100330000Y-63560000D02*
X108010000Y-63560000D01*
X100330000Y-63560000D02*
X100330000Y-60900000D01*
X45820000Y-79280000D02*
X45490000Y-79280000D01*
X45820000Y-85820000D02*
X45820000Y-79280000D01*
X45490000Y-85820000D02*
X45820000Y-85820000D01*
X43080000Y-79280000D02*
X43410000Y-79280000D01*
X43080000Y-85820000D02*
X43080000Y-79280000D01*
X43410000Y-85820000D02*
X43080000Y-85820000D01*
X45820000Y-98330000D02*
X45490000Y-98330000D01*
X45820000Y-104870000D02*
X45820000Y-98330000D01*
X45490000Y-104870000D02*
X45820000Y-104870000D01*
X43080000Y-98330000D02*
X43410000Y-98330000D01*
X43080000Y-104870000D02*
X43080000Y-98330000D01*
X43410000Y-104870000D02*
X43080000Y-104870000D01*
X43410000Y-123920000D02*
X43080000Y-123920000D01*
X43080000Y-123920000D02*
X43080000Y-117380000D01*
X43080000Y-117380000D02*
X43410000Y-117380000D01*
X45490000Y-123920000D02*
X45820000Y-123920000D01*
X45820000Y-123920000D02*
X45820000Y-117380000D01*
X45820000Y-117380000D02*
X45490000Y-117380000D01*
X43410000Y-142970000D02*
X43080000Y-142970000D01*
X43080000Y-142970000D02*
X43080000Y-136430000D01*
X43080000Y-136430000D02*
X43410000Y-136430000D01*
X45490000Y-142970000D02*
X45820000Y-142970000D01*
X45820000Y-142970000D02*
X45820000Y-136430000D01*
X45820000Y-136430000D02*
X45490000Y-136430000D01*
X89630000Y-56920000D02*
X89630000Y-57250000D01*
X89630000Y-57250000D02*
X83090000Y-57250000D01*
X83090000Y-57250000D02*
X83090000Y-56920000D01*
X89630000Y-54840000D02*
X89630000Y-54510000D01*
X89630000Y-54510000D02*
X83090000Y-54510000D01*
X83090000Y-54510000D02*
X83090000Y-54840000D01*
X48895000Y-75565000D02*
X62865000Y-75565000D01*
X62865000Y-75565000D02*
X62865000Y-89535000D01*
X62865000Y-89535000D02*
X48895000Y-89535000D01*
X48895000Y-89535000D02*
X48895000Y-75565000D01*
X48895000Y-94615000D02*
X62865000Y-94615000D01*
X62865000Y-94615000D02*
X62865000Y-108585000D01*
X62865000Y-108585000D02*
X48895000Y-108585000D01*
X48895000Y-108585000D02*
X48895000Y-94615000D01*
X48895000Y-113665000D02*
X62865000Y-113665000D01*
X62865000Y-113665000D02*
X62865000Y-127635000D01*
X62865000Y-127635000D02*
X48895000Y-127635000D01*
X48895000Y-127635000D02*
X48895000Y-113665000D01*
X48895000Y-132715000D02*
X62865000Y-132715000D01*
X62865000Y-132715000D02*
X62865000Y-146685000D01*
X62865000Y-146685000D02*
X48895000Y-146685000D01*
X48895000Y-146685000D02*
X48895000Y-132715000D01*
X67945000Y-89535000D02*
X67945000Y-75565000D01*
X81915000Y-89535000D02*
X67945000Y-89535000D01*
X81915000Y-75565000D02*
X81915000Y-89535000D01*
X67945000Y-75565000D02*
X81915000Y-75565000D01*
X67945000Y-94615000D02*
X81915000Y-94615000D01*
X81915000Y-94615000D02*
X81915000Y-108585000D01*
X81915000Y-108585000D02*
X67945000Y-108585000D01*
X67945000Y-108585000D02*
X67945000Y-94615000D01*
X67945000Y-127635000D02*
X67945000Y-113665000D01*
X81915000Y-127635000D02*
X67945000Y-127635000D01*
X81915000Y-113665000D02*
X81915000Y-127635000D01*
X67945000Y-113665000D02*
X81915000Y-113665000D01*
X67945000Y-146685000D02*
X67945000Y-132715000D01*
X81915000Y-146685000D02*
X67945000Y-146685000D01*
X81915000Y-132715000D02*
X81915000Y-146685000D01*
X67945000Y-132715000D02*
X81915000Y-132715000D01*
X86995000Y-75565000D02*
X100965000Y-75565000D01*
X100965000Y-75565000D02*
X100965000Y-89535000D01*
X100965000Y-89535000D02*
X86995000Y-89535000D01*
X86995000Y-89535000D02*
X86995000Y-75565000D01*
X86995000Y-94615000D02*
X100965000Y-94615000D01*
X100965000Y-94615000D02*
X100965000Y-108585000D01*
X100965000Y-108585000D02*
X86995000Y-108585000D01*
X86995000Y-108585000D02*
X86995000Y-94615000D01*
X86995000Y-113665000D02*
X100965000Y-113665000D01*
X100965000Y-113665000D02*
X100965000Y-127635000D01*
X100965000Y-127635000D02*
X86995000Y-127635000D01*
X86995000Y-127635000D02*
X86995000Y-113665000D01*
X86995000Y-132715000D02*
X100965000Y-132715000D01*
X100965000Y-132715000D02*
X100965000Y-146685000D01*
X100965000Y-146685000D02*
X86995000Y-146685000D01*
X86995000Y-146685000D02*
X86995000Y-132715000D01*
X106045000Y-89535000D02*
X106045000Y-75565000D01*
X120015000Y-89535000D02*
X106045000Y-89535000D01*
X120015000Y-75565000D02*
X120015000Y-89535000D01*
X106045000Y-75565000D02*
X120015000Y-75565000D01*
X106045000Y-108585000D02*
X106045000Y-94615000D01*
X120015000Y-108585000D02*
X106045000Y-108585000D01*
X120015000Y-94615000D02*
X120015000Y-108585000D01*
X106045000Y-94615000D02*
X120015000Y-94615000D01*
X106045000Y-127635000D02*
X106045000Y-113665000D01*
X120015000Y-127635000D02*
X106045000Y-127635000D01*
X120015000Y-113665000D02*
X120015000Y-127635000D01*
X106045000Y-113665000D02*
X120015000Y-113665000D01*
X106045000Y-146685000D02*
X106045000Y-132715000D01*
X120015000Y-146685000D02*
X106045000Y-146685000D01*
X120015000Y-132715000D02*
X120015000Y-146685000D01*
X106045000Y-132715000D02*
X120015000Y-132715000D01*
D11*
X43180000Y-53340000D02*
X43180000Y-71120000D01*
X43180000Y-71120000D02*
X73660000Y-71120000D01*
X73660000Y-71120000D02*
X73660000Y-53340000D01*
X73660000Y-53340000D02*
X43180000Y-53340000D01*
X43180000Y-68580000D02*
X45720000Y-68580000D01*
X45720000Y-68580000D02*
X45720000Y-71120000D01*
D10*
X78470000Y-66460000D02*
X82970000Y-66460000D01*
X77220000Y-62460000D02*
X77220000Y-63960000D01*
X82970000Y-59960000D02*
X78470000Y-59960000D01*
X84220000Y-63960000D02*
X84220000Y-62460000D01*
D12*
X55141904Y-89422380D02*
X55141904Y-88422380D01*
X55380000Y-88422380D01*
X55522857Y-88470000D01*
X55618095Y-88565238D01*
X55665714Y-88660476D01*
X55713333Y-88850952D01*
X55713333Y-88993809D01*
X55665714Y-89184285D01*
X55618095Y-89279523D01*
X55522857Y-89374761D01*
X55380000Y-89422380D01*
X55141904Y-89422380D01*
X56665714Y-89422380D02*
X56094285Y-89422380D01*
X56380000Y-89422380D02*
X56380000Y-88422380D01*
X56284761Y-88565238D01*
X56189523Y-88660476D01*
X56094285Y-88708095D01*
X51808095Y-89992380D02*
X51808095Y-88992380D01*
X52379523Y-89992380D02*
X51950952Y-89420952D01*
X52379523Y-88992380D02*
X51808095Y-89563809D01*
X55141904Y-108472380D02*
X55141904Y-107472380D01*
X55380000Y-107472380D01*
X55522857Y-107520000D01*
X55618095Y-107615238D01*
X55665714Y-107710476D01*
X55713333Y-107900952D01*
X55713333Y-108043809D01*
X55665714Y-108234285D01*
X55618095Y-108329523D01*
X55522857Y-108424761D01*
X55380000Y-108472380D01*
X55141904Y-108472380D01*
X56094285Y-107567619D02*
X56141904Y-107520000D01*
X56237142Y-107472380D01*
X56475238Y-107472380D01*
X56570476Y-107520000D01*
X56618095Y-107567619D01*
X56665714Y-107662857D01*
X56665714Y-107758095D01*
X56618095Y-107900952D01*
X56046666Y-108472380D01*
X56665714Y-108472380D01*
X51808095Y-109042380D02*
X51808095Y-108042380D01*
X52379523Y-109042380D02*
X51950952Y-108470952D01*
X52379523Y-108042380D02*
X51808095Y-108613809D01*
X55141904Y-127522380D02*
X55141904Y-126522380D01*
X55380000Y-126522380D01*
X55522857Y-126570000D01*
X55618095Y-126665238D01*
X55665714Y-126760476D01*
X55713333Y-126950952D01*
X55713333Y-127093809D01*
X55665714Y-127284285D01*
X55618095Y-127379523D01*
X55522857Y-127474761D01*
X55380000Y-127522380D01*
X55141904Y-127522380D01*
X56046666Y-126522380D02*
X56665714Y-126522380D01*
X56332380Y-126903333D01*
X56475238Y-126903333D01*
X56570476Y-126950952D01*
X56618095Y-126998571D01*
X56665714Y-127093809D01*
X56665714Y-127331904D01*
X56618095Y-127427142D01*
X56570476Y-127474761D01*
X56475238Y-127522380D01*
X56189523Y-127522380D01*
X56094285Y-127474761D01*
X56046666Y-127427142D01*
X51808095Y-128092380D02*
X51808095Y-127092380D01*
X52379523Y-128092380D02*
X51950952Y-127520952D01*
X52379523Y-127092380D02*
X51808095Y-127663809D01*
X55141904Y-146572380D02*
X55141904Y-145572380D01*
X55380000Y-145572380D01*
X55522857Y-145620000D01*
X55618095Y-145715238D01*
X55665714Y-145810476D01*
X55713333Y-146000952D01*
X55713333Y-146143809D01*
X55665714Y-146334285D01*
X55618095Y-146429523D01*
X55522857Y-146524761D01*
X55380000Y-146572380D01*
X55141904Y-146572380D01*
X56570476Y-145905714D02*
X56570476Y-146572380D01*
X56332380Y-145524761D02*
X56094285Y-146239047D01*
X56713333Y-146239047D01*
X51808095Y-147142380D02*
X51808095Y-146142380D01*
X52379523Y-147142380D02*
X51950952Y-146570952D01*
X52379523Y-146142380D02*
X51808095Y-146713809D01*
X74191904Y-89422380D02*
X74191904Y-88422380D01*
X74430000Y-88422380D01*
X74572857Y-88470000D01*
X74668095Y-88565238D01*
X74715714Y-88660476D01*
X74763333Y-88850952D01*
X74763333Y-88993809D01*
X74715714Y-89184285D01*
X74668095Y-89279523D01*
X74572857Y-89374761D01*
X74430000Y-89422380D01*
X74191904Y-89422380D01*
X75668095Y-88422380D02*
X75191904Y-88422380D01*
X75144285Y-88898571D01*
X75191904Y-88850952D01*
X75287142Y-88803333D01*
X75525238Y-88803333D01*
X75620476Y-88850952D01*
X75668095Y-88898571D01*
X75715714Y-88993809D01*
X75715714Y-89231904D01*
X75668095Y-89327142D01*
X75620476Y-89374761D01*
X75525238Y-89422380D01*
X75287142Y-89422380D01*
X75191904Y-89374761D01*
X75144285Y-89327142D01*
X70858095Y-89992380D02*
X70858095Y-88992380D01*
X71429523Y-89992380D02*
X71000952Y-89420952D01*
X71429523Y-88992380D02*
X70858095Y-89563809D01*
X74191904Y-108472380D02*
X74191904Y-107472380D01*
X74430000Y-107472380D01*
X74572857Y-107520000D01*
X74668095Y-107615238D01*
X74715714Y-107710476D01*
X74763333Y-107900952D01*
X74763333Y-108043809D01*
X74715714Y-108234285D01*
X74668095Y-108329523D01*
X74572857Y-108424761D01*
X74430000Y-108472380D01*
X74191904Y-108472380D01*
X75620476Y-107472380D02*
X75430000Y-107472380D01*
X75334761Y-107520000D01*
X75287142Y-107567619D01*
X75191904Y-107710476D01*
X75144285Y-107900952D01*
X75144285Y-108281904D01*
X75191904Y-108377142D01*
X75239523Y-108424761D01*
X75334761Y-108472380D01*
X75525238Y-108472380D01*
X75620476Y-108424761D01*
X75668095Y-108377142D01*
X75715714Y-108281904D01*
X75715714Y-108043809D01*
X75668095Y-107948571D01*
X75620476Y-107900952D01*
X75525238Y-107853333D01*
X75334761Y-107853333D01*
X75239523Y-107900952D01*
X75191904Y-107948571D01*
X75144285Y-108043809D01*
X70858095Y-109042380D02*
X70858095Y-108042380D01*
X71429523Y-109042380D02*
X71000952Y-108470952D01*
X71429523Y-108042380D02*
X70858095Y-108613809D01*
X74191904Y-127522380D02*
X74191904Y-126522380D01*
X74430000Y-126522380D01*
X74572857Y-126570000D01*
X74668095Y-126665238D01*
X74715714Y-126760476D01*
X74763333Y-126950952D01*
X74763333Y-127093809D01*
X74715714Y-127284285D01*
X74668095Y-127379523D01*
X74572857Y-127474761D01*
X74430000Y-127522380D01*
X74191904Y-127522380D01*
X75096666Y-126522380D02*
X75763333Y-126522380D01*
X75334761Y-127522380D01*
X70858095Y-128092380D02*
X70858095Y-127092380D01*
X71429523Y-128092380D02*
X71000952Y-127520952D01*
X71429523Y-127092380D02*
X70858095Y-127663809D01*
X74191904Y-146572380D02*
X74191904Y-145572380D01*
X74430000Y-145572380D01*
X74572857Y-145620000D01*
X74668095Y-145715238D01*
X74715714Y-145810476D01*
X74763333Y-146000952D01*
X74763333Y-146143809D01*
X74715714Y-146334285D01*
X74668095Y-146429523D01*
X74572857Y-146524761D01*
X74430000Y-146572380D01*
X74191904Y-146572380D01*
X75334761Y-146000952D02*
X75239523Y-145953333D01*
X75191904Y-145905714D01*
X75144285Y-145810476D01*
X75144285Y-145762857D01*
X75191904Y-145667619D01*
X75239523Y-145620000D01*
X75334761Y-145572380D01*
X75525238Y-145572380D01*
X75620476Y-145620000D01*
X75668095Y-145667619D01*
X75715714Y-145762857D01*
X75715714Y-145810476D01*
X75668095Y-145905714D01*
X75620476Y-145953333D01*
X75525238Y-146000952D01*
X75334761Y-146000952D01*
X75239523Y-146048571D01*
X75191904Y-146096190D01*
X75144285Y-146191428D01*
X75144285Y-146381904D01*
X75191904Y-146477142D01*
X75239523Y-146524761D01*
X75334761Y-146572380D01*
X75525238Y-146572380D01*
X75620476Y-146524761D01*
X75668095Y-146477142D01*
X75715714Y-146381904D01*
X75715714Y-146191428D01*
X75668095Y-146096190D01*
X75620476Y-146048571D01*
X75525238Y-146000952D01*
X70858095Y-147142380D02*
X70858095Y-146142380D01*
X71429523Y-147142380D02*
X71000952Y-146570952D01*
X71429523Y-146142380D02*
X70858095Y-146713809D01*
X93241904Y-89422380D02*
X93241904Y-88422380D01*
X93480000Y-88422380D01*
X93622857Y-88470000D01*
X93718095Y-88565238D01*
X93765714Y-88660476D01*
X93813333Y-88850952D01*
X93813333Y-88993809D01*
X93765714Y-89184285D01*
X93718095Y-89279523D01*
X93622857Y-89374761D01*
X93480000Y-89422380D01*
X93241904Y-89422380D01*
X94289523Y-89422380D02*
X94480000Y-89422380D01*
X94575238Y-89374761D01*
X94622857Y-89327142D01*
X94718095Y-89184285D01*
X94765714Y-88993809D01*
X94765714Y-88612857D01*
X94718095Y-88517619D01*
X94670476Y-88470000D01*
X94575238Y-88422380D01*
X94384761Y-88422380D01*
X94289523Y-88470000D01*
X94241904Y-88517619D01*
X94194285Y-88612857D01*
X94194285Y-88850952D01*
X94241904Y-88946190D01*
X94289523Y-88993809D01*
X94384761Y-89041428D01*
X94575238Y-89041428D01*
X94670476Y-88993809D01*
X94718095Y-88946190D01*
X94765714Y-88850952D01*
X89908095Y-89992380D02*
X89908095Y-88992380D01*
X90479523Y-89992380D02*
X90050952Y-89420952D01*
X90479523Y-88992380D02*
X89908095Y-89563809D01*
X92765714Y-108472380D02*
X92765714Y-107472380D01*
X93003809Y-107472380D01*
X93146666Y-107520000D01*
X93241904Y-107615238D01*
X93289523Y-107710476D01*
X93337142Y-107900952D01*
X93337142Y-108043809D01*
X93289523Y-108234285D01*
X93241904Y-108329523D01*
X93146666Y-108424761D01*
X93003809Y-108472380D01*
X92765714Y-108472380D01*
X94289523Y-108472380D02*
X93718095Y-108472380D01*
X94003809Y-108472380D02*
X94003809Y-107472380D01*
X93908571Y-107615238D01*
X93813333Y-107710476D01*
X93718095Y-107758095D01*
X94908571Y-107472380D02*
X95003809Y-107472380D01*
X95099047Y-107520000D01*
X95146666Y-107567619D01*
X95194285Y-107662857D01*
X95241904Y-107853333D01*
X95241904Y-108091428D01*
X95194285Y-108281904D01*
X95146666Y-108377142D01*
X95099047Y-108424761D01*
X95003809Y-108472380D01*
X94908571Y-108472380D01*
X94813333Y-108424761D01*
X94765714Y-108377142D01*
X94718095Y-108281904D01*
X94670476Y-108091428D01*
X94670476Y-107853333D01*
X94718095Y-107662857D01*
X94765714Y-107567619D01*
X94813333Y-107520000D01*
X94908571Y-107472380D01*
X89908095Y-109042380D02*
X89908095Y-108042380D01*
X90479523Y-109042380D02*
X90050952Y-108470952D01*
X90479523Y-108042380D02*
X89908095Y-108613809D01*
X92765714Y-127522380D02*
X92765714Y-126522380D01*
X93003809Y-126522380D01*
X93146666Y-126570000D01*
X93241904Y-126665238D01*
X93289523Y-126760476D01*
X93337142Y-126950952D01*
X93337142Y-127093809D01*
X93289523Y-127284285D01*
X93241904Y-127379523D01*
X93146666Y-127474761D01*
X93003809Y-127522380D01*
X92765714Y-127522380D01*
X94289523Y-127522380D02*
X93718095Y-127522380D01*
X94003809Y-127522380D02*
X94003809Y-126522380D01*
X93908571Y-126665238D01*
X93813333Y-126760476D01*
X93718095Y-126808095D01*
X95241904Y-127522380D02*
X94670476Y-127522380D01*
X94956190Y-127522380D02*
X94956190Y-126522380D01*
X94860952Y-126665238D01*
X94765714Y-126760476D01*
X94670476Y-126808095D01*
X89908095Y-128092380D02*
X89908095Y-127092380D01*
X90479523Y-128092380D02*
X90050952Y-127520952D01*
X90479523Y-127092380D02*
X89908095Y-127663809D01*
X92765714Y-146572380D02*
X92765714Y-145572380D01*
X93003809Y-145572380D01*
X93146666Y-145620000D01*
X93241904Y-145715238D01*
X93289523Y-145810476D01*
X93337142Y-146000952D01*
X93337142Y-146143809D01*
X93289523Y-146334285D01*
X93241904Y-146429523D01*
X93146666Y-146524761D01*
X93003809Y-146572380D01*
X92765714Y-146572380D01*
X94289523Y-146572380D02*
X93718095Y-146572380D01*
X94003809Y-146572380D02*
X94003809Y-145572380D01*
X93908571Y-145715238D01*
X93813333Y-145810476D01*
X93718095Y-145858095D01*
X94670476Y-145667619D02*
X94718095Y-145620000D01*
X94813333Y-145572380D01*
X95051428Y-145572380D01*
X95146666Y-145620000D01*
X95194285Y-145667619D01*
X95241904Y-145762857D01*
X95241904Y-145858095D01*
X95194285Y-146000952D01*
X94622857Y-146572380D01*
X95241904Y-146572380D01*
X89908095Y-147142380D02*
X89908095Y-146142380D01*
X90479523Y-147142380D02*
X90050952Y-146570952D01*
X90479523Y-146142380D02*
X89908095Y-146713809D01*
X111815714Y-89422380D02*
X111815714Y-88422380D01*
X112053809Y-88422380D01*
X112196666Y-88470000D01*
X112291904Y-88565238D01*
X112339523Y-88660476D01*
X112387142Y-88850952D01*
X112387142Y-88993809D01*
X112339523Y-89184285D01*
X112291904Y-89279523D01*
X112196666Y-89374761D01*
X112053809Y-89422380D01*
X111815714Y-89422380D01*
X113339523Y-89422380D02*
X112768095Y-89422380D01*
X113053809Y-89422380D02*
X113053809Y-88422380D01*
X112958571Y-88565238D01*
X112863333Y-88660476D01*
X112768095Y-88708095D01*
X113672857Y-88422380D02*
X114291904Y-88422380D01*
X113958571Y-88803333D01*
X114101428Y-88803333D01*
X114196666Y-88850952D01*
X114244285Y-88898571D01*
X114291904Y-88993809D01*
X114291904Y-89231904D01*
X114244285Y-89327142D01*
X114196666Y-89374761D01*
X114101428Y-89422380D01*
X113815714Y-89422380D01*
X113720476Y-89374761D01*
X113672857Y-89327142D01*
X108958095Y-89992380D02*
X108958095Y-88992380D01*
X109529523Y-89992380D02*
X109100952Y-89420952D01*
X109529523Y-88992380D02*
X108958095Y-89563809D01*
X111815714Y-108472380D02*
X111815714Y-107472380D01*
X112053809Y-107472380D01*
X112196666Y-107520000D01*
X112291904Y-107615238D01*
X112339523Y-107710476D01*
X112387142Y-107900952D01*
X112387142Y-108043809D01*
X112339523Y-108234285D01*
X112291904Y-108329523D01*
X112196666Y-108424761D01*
X112053809Y-108472380D01*
X111815714Y-108472380D01*
X113339523Y-108472380D02*
X112768095Y-108472380D01*
X113053809Y-108472380D02*
X113053809Y-107472380D01*
X112958571Y-107615238D01*
X112863333Y-107710476D01*
X112768095Y-107758095D01*
X114196666Y-107805714D02*
X114196666Y-108472380D01*
X113958571Y-107424761D02*
X113720476Y-108139047D01*
X114339523Y-108139047D01*
X108958095Y-109042380D02*
X108958095Y-108042380D01*
X109529523Y-109042380D02*
X109100952Y-108470952D01*
X109529523Y-108042380D02*
X108958095Y-108613809D01*
X111815714Y-127522380D02*
X111815714Y-126522380D01*
X112053809Y-126522380D01*
X112196666Y-126570000D01*
X112291904Y-126665238D01*
X112339523Y-126760476D01*
X112387142Y-126950952D01*
X112387142Y-127093809D01*
X112339523Y-127284285D01*
X112291904Y-127379523D01*
X112196666Y-127474761D01*
X112053809Y-127522380D01*
X111815714Y-127522380D01*
X113339523Y-127522380D02*
X112768095Y-127522380D01*
X113053809Y-127522380D02*
X113053809Y-126522380D01*
X112958571Y-126665238D01*
X112863333Y-126760476D01*
X112768095Y-126808095D01*
X114244285Y-126522380D02*
X113768095Y-126522380D01*
X113720476Y-126998571D01*
X113768095Y-126950952D01*
X113863333Y-126903333D01*
X114101428Y-126903333D01*
X114196666Y-126950952D01*
X114244285Y-126998571D01*
X114291904Y-127093809D01*
X114291904Y-127331904D01*
X114244285Y-127427142D01*
X114196666Y-127474761D01*
X114101428Y-127522380D01*
X113863333Y-127522380D01*
X113768095Y-127474761D01*
X113720476Y-127427142D01*
X108958095Y-128092380D02*
X108958095Y-127092380D01*
X109529523Y-128092380D02*
X109100952Y-127520952D01*
X109529523Y-127092380D02*
X108958095Y-127663809D01*
X111815714Y-146572380D02*
X111815714Y-145572380D01*
X112053809Y-145572380D01*
X112196666Y-145620000D01*
X112291904Y-145715238D01*
X112339523Y-145810476D01*
X112387142Y-146000952D01*
X112387142Y-146143809D01*
X112339523Y-146334285D01*
X112291904Y-146429523D01*
X112196666Y-146524761D01*
X112053809Y-146572380D01*
X111815714Y-146572380D01*
X113339523Y-146572380D02*
X112768095Y-146572380D01*
X113053809Y-146572380D02*
X113053809Y-145572380D01*
X112958571Y-145715238D01*
X112863333Y-145810476D01*
X112768095Y-145858095D01*
X114196666Y-145572380D02*
X114006190Y-145572380D01*
X113910952Y-145620000D01*
X113863333Y-145667619D01*
X113768095Y-145810476D01*
X113720476Y-146000952D01*
X113720476Y-146381904D01*
X113768095Y-146477142D01*
X113815714Y-146524761D01*
X113910952Y-146572380D01*
X114101428Y-146572380D01*
X114196666Y-146524761D01*
X114244285Y-146477142D01*
X114291904Y-146381904D01*
X114291904Y-146143809D01*
X114244285Y-146048571D01*
X114196666Y-146000952D01*
X114101428Y-145953333D01*
X113910952Y-145953333D01*
X113815714Y-146000952D01*
X113768095Y-146048571D01*
X113720476Y-146143809D01*
X108958095Y-147142380D02*
X108958095Y-146142380D01*
X109529523Y-147142380D02*
X109100952Y-146570952D01*
X109529523Y-146142380D02*
X108958095Y-146713809D01*
X90225714Y-59992380D02*
X90225714Y-58992380D01*
X90463809Y-58992380D01*
X90606666Y-59040000D01*
X90701904Y-59135238D01*
X90749523Y-59230476D01*
X90797142Y-59420952D01*
X90797142Y-59563809D01*
X90749523Y-59754285D01*
X90701904Y-59849523D01*
X90606666Y-59944761D01*
X90463809Y-59992380D01*
X90225714Y-59992380D01*
X91749523Y-59992380D02*
X91178095Y-59992380D01*
X91463809Y-59992380D02*
X91463809Y-58992380D01*
X91368571Y-59135238D01*
X91273333Y-59230476D01*
X91178095Y-59278095D01*
X92082857Y-58992380D02*
X92749523Y-58992380D01*
X92320952Y-59992380D01*
X95742380Y-67643333D02*
X96456666Y-67643333D01*
X96599523Y-67690952D01*
X96694761Y-67786190D01*
X96742380Y-67929047D01*
X96742380Y-68024285D01*
X96742380Y-66643333D02*
X96742380Y-67214761D01*
X96742380Y-66929047D02*
X95742380Y-66929047D01*
X95885238Y-67024285D01*
X95980476Y-67119523D01*
X96028095Y-67214761D01*
X95742380Y-62563333D02*
X96456666Y-62563333D01*
X96599523Y-62610952D01*
X96694761Y-62706190D01*
X96742380Y-62849047D01*
X96742380Y-62944285D01*
X95837619Y-62134761D02*
X95790000Y-62087142D01*
X95742380Y-61991904D01*
X95742380Y-61753809D01*
X95790000Y-61658571D01*
X95837619Y-61610952D01*
X95932857Y-61563333D01*
X96028095Y-61563333D01*
X96170952Y-61610952D01*
X96742380Y-62182380D01*
X96742380Y-61563333D01*
X42532380Y-82716666D02*
X42056190Y-83050000D01*
X42532380Y-83288095D02*
X41532380Y-83288095D01*
X41532380Y-82907142D01*
X41580000Y-82811904D01*
X41627619Y-82764285D01*
X41722857Y-82716666D01*
X41865714Y-82716666D01*
X41960952Y-82764285D01*
X42008571Y-82811904D01*
X42056190Y-82907142D01*
X42056190Y-83288095D01*
X42532380Y-81764285D02*
X42532380Y-82335714D01*
X42532380Y-82050000D02*
X41532380Y-82050000D01*
X41675238Y-82145238D01*
X41770476Y-82240476D01*
X41818095Y-82335714D01*
X42532380Y-101766666D02*
X42056190Y-102100000D01*
X42532380Y-102338095D02*
X41532380Y-102338095D01*
X41532380Y-101957142D01*
X41580000Y-101861904D01*
X41627619Y-101814285D01*
X41722857Y-101766666D01*
X41865714Y-101766666D01*
X41960952Y-101814285D01*
X42008571Y-101861904D01*
X42056190Y-101957142D01*
X42056190Y-102338095D01*
X41627619Y-101385714D02*
X41580000Y-101338095D01*
X41532380Y-101242857D01*
X41532380Y-101004761D01*
X41580000Y-100909523D01*
X41627619Y-100861904D01*
X41722857Y-100814285D01*
X41818095Y-100814285D01*
X41960952Y-100861904D01*
X42532380Y-101433333D01*
X42532380Y-100814285D01*
X42532380Y-120816666D02*
X42056190Y-121150000D01*
X42532380Y-121388095D02*
X41532380Y-121388095D01*
X41532380Y-121007142D01*
X41580000Y-120911904D01*
X41627619Y-120864285D01*
X41722857Y-120816666D01*
X41865714Y-120816666D01*
X41960952Y-120864285D01*
X42008571Y-120911904D01*
X42056190Y-121007142D01*
X42056190Y-121388095D01*
X41532380Y-120483333D02*
X41532380Y-119864285D01*
X41913333Y-120197619D01*
X41913333Y-120054761D01*
X41960952Y-119959523D01*
X42008571Y-119911904D01*
X42103809Y-119864285D01*
X42341904Y-119864285D01*
X42437142Y-119911904D01*
X42484761Y-119959523D01*
X42532380Y-120054761D01*
X42532380Y-120340476D01*
X42484761Y-120435714D01*
X42437142Y-120483333D01*
X42532380Y-139866666D02*
X42056190Y-140200000D01*
X42532380Y-140438095D02*
X41532380Y-140438095D01*
X41532380Y-140057142D01*
X41580000Y-139961904D01*
X41627619Y-139914285D01*
X41722857Y-139866666D01*
X41865714Y-139866666D01*
X41960952Y-139914285D01*
X42008571Y-139961904D01*
X42056190Y-140057142D01*
X42056190Y-140438095D01*
X41865714Y-139009523D02*
X42532380Y-139009523D01*
X41484761Y-139247619D02*
X42199047Y-139485714D01*
X42199047Y-138866666D01*
X86193333Y-58702380D02*
X85860000Y-58226190D01*
X85621904Y-58702380D02*
X85621904Y-57702380D01*
X86002857Y-57702380D01*
X86098095Y-57750000D01*
X86145714Y-57797619D01*
X86193333Y-57892857D01*
X86193333Y-58035714D01*
X86145714Y-58130952D01*
X86098095Y-58178571D01*
X86002857Y-58226190D01*
X85621904Y-58226190D01*
X87098095Y-57702380D02*
X86621904Y-57702380D01*
X86574285Y-58178571D01*
X86621904Y-58130952D01*
X86717142Y-58083333D01*
X86955238Y-58083333D01*
X87050476Y-58130952D01*
X87098095Y-58178571D01*
X87145714Y-58273809D01*
X87145714Y-58511904D01*
X87098095Y-58607142D01*
X87050476Y-58654761D01*
X86955238Y-58702380D01*
X86717142Y-58702380D01*
X86621904Y-58654761D01*
X86574285Y-58607142D01*
X54546666Y-75080761D02*
X54689523Y-75128380D01*
X54927619Y-75128380D01*
X55022857Y-75080761D01*
X55070476Y-75033142D01*
X55118095Y-74937904D01*
X55118095Y-74842666D01*
X55070476Y-74747428D01*
X55022857Y-74699809D01*
X54927619Y-74652190D01*
X54737142Y-74604571D01*
X54641904Y-74556952D01*
X54594285Y-74509333D01*
X54546666Y-74414095D01*
X54546666Y-74318857D01*
X54594285Y-74223619D01*
X54641904Y-74176000D01*
X54737142Y-74128380D01*
X54975238Y-74128380D01*
X55118095Y-74176000D01*
X55451428Y-74128380D02*
X55689523Y-75128380D01*
X55880000Y-74414095D01*
X56070476Y-75128380D01*
X56308571Y-74128380D01*
X57213333Y-75128380D02*
X56641904Y-75128380D01*
X56927619Y-75128380D02*
X56927619Y-74128380D01*
X56832380Y-74271238D01*
X56737142Y-74366476D01*
X56641904Y-74414095D01*
X54546666Y-94130761D02*
X54689523Y-94178380D01*
X54927619Y-94178380D01*
X55022857Y-94130761D01*
X55070476Y-94083142D01*
X55118095Y-93987904D01*
X55118095Y-93892666D01*
X55070476Y-93797428D01*
X55022857Y-93749809D01*
X54927619Y-93702190D01*
X54737142Y-93654571D01*
X54641904Y-93606952D01*
X54594285Y-93559333D01*
X54546666Y-93464095D01*
X54546666Y-93368857D01*
X54594285Y-93273619D01*
X54641904Y-93226000D01*
X54737142Y-93178380D01*
X54975238Y-93178380D01*
X55118095Y-93226000D01*
X55451428Y-93178380D02*
X55689523Y-94178380D01*
X55880000Y-93464095D01*
X56070476Y-94178380D01*
X56308571Y-93178380D01*
X56641904Y-93273619D02*
X56689523Y-93226000D01*
X56784761Y-93178380D01*
X57022857Y-93178380D01*
X57118095Y-93226000D01*
X57165714Y-93273619D01*
X57213333Y-93368857D01*
X57213333Y-93464095D01*
X57165714Y-93606952D01*
X56594285Y-94178380D01*
X57213333Y-94178380D01*
X54546666Y-113180761D02*
X54689523Y-113228380D01*
X54927619Y-113228380D01*
X55022857Y-113180761D01*
X55070476Y-113133142D01*
X55118095Y-113037904D01*
X55118095Y-112942666D01*
X55070476Y-112847428D01*
X55022857Y-112799809D01*
X54927619Y-112752190D01*
X54737142Y-112704571D01*
X54641904Y-112656952D01*
X54594285Y-112609333D01*
X54546666Y-112514095D01*
X54546666Y-112418857D01*
X54594285Y-112323619D01*
X54641904Y-112276000D01*
X54737142Y-112228380D01*
X54975238Y-112228380D01*
X55118095Y-112276000D01*
X55451428Y-112228380D02*
X55689523Y-113228380D01*
X55880000Y-112514095D01*
X56070476Y-113228380D01*
X56308571Y-112228380D01*
X56594285Y-112228380D02*
X57213333Y-112228380D01*
X56880000Y-112609333D01*
X57022857Y-112609333D01*
X57118095Y-112656952D01*
X57165714Y-112704571D01*
X57213333Y-112799809D01*
X57213333Y-113037904D01*
X57165714Y-113133142D01*
X57118095Y-113180761D01*
X57022857Y-113228380D01*
X56737142Y-113228380D01*
X56641904Y-113180761D01*
X56594285Y-113133142D01*
X54546666Y-132230761D02*
X54689523Y-132278380D01*
X54927619Y-132278380D01*
X55022857Y-132230761D01*
X55070476Y-132183142D01*
X55118095Y-132087904D01*
X55118095Y-131992666D01*
X55070476Y-131897428D01*
X55022857Y-131849809D01*
X54927619Y-131802190D01*
X54737142Y-131754571D01*
X54641904Y-131706952D01*
X54594285Y-131659333D01*
X54546666Y-131564095D01*
X54546666Y-131468857D01*
X54594285Y-131373619D01*
X54641904Y-131326000D01*
X54737142Y-131278380D01*
X54975238Y-131278380D01*
X55118095Y-131326000D01*
X55451428Y-131278380D02*
X55689523Y-132278380D01*
X55880000Y-131564095D01*
X56070476Y-132278380D01*
X56308571Y-131278380D01*
X57118095Y-131611714D02*
X57118095Y-132278380D01*
X56880000Y-131230761D02*
X56641904Y-131945047D01*
X57260952Y-131945047D01*
X73596666Y-75080761D02*
X73739523Y-75128380D01*
X73977619Y-75128380D01*
X74072857Y-75080761D01*
X74120476Y-75033142D01*
X74168095Y-74937904D01*
X74168095Y-74842666D01*
X74120476Y-74747428D01*
X74072857Y-74699809D01*
X73977619Y-74652190D01*
X73787142Y-74604571D01*
X73691904Y-74556952D01*
X73644285Y-74509333D01*
X73596666Y-74414095D01*
X73596666Y-74318857D01*
X73644285Y-74223619D01*
X73691904Y-74176000D01*
X73787142Y-74128380D01*
X74025238Y-74128380D01*
X74168095Y-74176000D01*
X74501428Y-74128380D02*
X74739523Y-75128380D01*
X74930000Y-74414095D01*
X75120476Y-75128380D01*
X75358571Y-74128380D01*
X76215714Y-74128380D02*
X75739523Y-74128380D01*
X75691904Y-74604571D01*
X75739523Y-74556952D01*
X75834761Y-74509333D01*
X76072857Y-74509333D01*
X76168095Y-74556952D01*
X76215714Y-74604571D01*
X76263333Y-74699809D01*
X76263333Y-74937904D01*
X76215714Y-75033142D01*
X76168095Y-75080761D01*
X76072857Y-75128380D01*
X75834761Y-75128380D01*
X75739523Y-75080761D01*
X75691904Y-75033142D01*
X73596666Y-94130761D02*
X73739523Y-94178380D01*
X73977619Y-94178380D01*
X74072857Y-94130761D01*
X74120476Y-94083142D01*
X74168095Y-93987904D01*
X74168095Y-93892666D01*
X74120476Y-93797428D01*
X74072857Y-93749809D01*
X73977619Y-93702190D01*
X73787142Y-93654571D01*
X73691904Y-93606952D01*
X73644285Y-93559333D01*
X73596666Y-93464095D01*
X73596666Y-93368857D01*
X73644285Y-93273619D01*
X73691904Y-93226000D01*
X73787142Y-93178380D01*
X74025238Y-93178380D01*
X74168095Y-93226000D01*
X74501428Y-93178380D02*
X74739523Y-94178380D01*
X74930000Y-93464095D01*
X75120476Y-94178380D01*
X75358571Y-93178380D01*
X76168095Y-93178380D02*
X75977619Y-93178380D01*
X75882380Y-93226000D01*
X75834761Y-93273619D01*
X75739523Y-93416476D01*
X75691904Y-93606952D01*
X75691904Y-93987904D01*
X75739523Y-94083142D01*
X75787142Y-94130761D01*
X75882380Y-94178380D01*
X76072857Y-94178380D01*
X76168095Y-94130761D01*
X76215714Y-94083142D01*
X76263333Y-93987904D01*
X76263333Y-93749809D01*
X76215714Y-93654571D01*
X76168095Y-93606952D01*
X76072857Y-93559333D01*
X75882380Y-93559333D01*
X75787142Y-93606952D01*
X75739523Y-93654571D01*
X75691904Y-93749809D01*
X73596666Y-113180761D02*
X73739523Y-113228380D01*
X73977619Y-113228380D01*
X74072857Y-113180761D01*
X74120476Y-113133142D01*
X74168095Y-113037904D01*
X74168095Y-112942666D01*
X74120476Y-112847428D01*
X74072857Y-112799809D01*
X73977619Y-112752190D01*
X73787142Y-112704571D01*
X73691904Y-112656952D01*
X73644285Y-112609333D01*
X73596666Y-112514095D01*
X73596666Y-112418857D01*
X73644285Y-112323619D01*
X73691904Y-112276000D01*
X73787142Y-112228380D01*
X74025238Y-112228380D01*
X74168095Y-112276000D01*
X74501428Y-112228380D02*
X74739523Y-113228380D01*
X74930000Y-112514095D01*
X75120476Y-113228380D01*
X75358571Y-112228380D01*
X75644285Y-112228380D02*
X76310952Y-112228380D01*
X75882380Y-113228380D01*
X73596666Y-132230761D02*
X73739523Y-132278380D01*
X73977619Y-132278380D01*
X74072857Y-132230761D01*
X74120476Y-132183142D01*
X74168095Y-132087904D01*
X74168095Y-131992666D01*
X74120476Y-131897428D01*
X74072857Y-131849809D01*
X73977619Y-131802190D01*
X73787142Y-131754571D01*
X73691904Y-131706952D01*
X73644285Y-131659333D01*
X73596666Y-131564095D01*
X73596666Y-131468857D01*
X73644285Y-131373619D01*
X73691904Y-131326000D01*
X73787142Y-131278380D01*
X74025238Y-131278380D01*
X74168095Y-131326000D01*
X74501428Y-131278380D02*
X74739523Y-132278380D01*
X74930000Y-131564095D01*
X75120476Y-132278380D01*
X75358571Y-131278380D01*
X75882380Y-131706952D02*
X75787142Y-131659333D01*
X75739523Y-131611714D01*
X75691904Y-131516476D01*
X75691904Y-131468857D01*
X75739523Y-131373619D01*
X75787142Y-131326000D01*
X75882380Y-131278380D01*
X76072857Y-131278380D01*
X76168095Y-131326000D01*
X76215714Y-131373619D01*
X76263333Y-131468857D01*
X76263333Y-131516476D01*
X76215714Y-131611714D01*
X76168095Y-131659333D01*
X76072857Y-131706952D01*
X75882380Y-131706952D01*
X75787142Y-131754571D01*
X75739523Y-131802190D01*
X75691904Y-131897428D01*
X75691904Y-132087904D01*
X75739523Y-132183142D01*
X75787142Y-132230761D01*
X75882380Y-132278380D01*
X76072857Y-132278380D01*
X76168095Y-132230761D01*
X76215714Y-132183142D01*
X76263333Y-132087904D01*
X76263333Y-131897428D01*
X76215714Y-131802190D01*
X76168095Y-131754571D01*
X76072857Y-131706952D01*
X92646666Y-75080761D02*
X92789523Y-75128380D01*
X93027619Y-75128380D01*
X93122857Y-75080761D01*
X93170476Y-75033142D01*
X93218095Y-74937904D01*
X93218095Y-74842666D01*
X93170476Y-74747428D01*
X93122857Y-74699809D01*
X93027619Y-74652190D01*
X92837142Y-74604571D01*
X92741904Y-74556952D01*
X92694285Y-74509333D01*
X92646666Y-74414095D01*
X92646666Y-74318857D01*
X92694285Y-74223619D01*
X92741904Y-74176000D01*
X92837142Y-74128380D01*
X93075238Y-74128380D01*
X93218095Y-74176000D01*
X93551428Y-74128380D02*
X93789523Y-75128380D01*
X93980000Y-74414095D01*
X94170476Y-75128380D01*
X94408571Y-74128380D01*
X94837142Y-75128380D02*
X95027619Y-75128380D01*
X95122857Y-75080761D01*
X95170476Y-75033142D01*
X95265714Y-74890285D01*
X95313333Y-74699809D01*
X95313333Y-74318857D01*
X95265714Y-74223619D01*
X95218095Y-74176000D01*
X95122857Y-74128380D01*
X94932380Y-74128380D01*
X94837142Y-74176000D01*
X94789523Y-74223619D01*
X94741904Y-74318857D01*
X94741904Y-74556952D01*
X94789523Y-74652190D01*
X94837142Y-74699809D01*
X94932380Y-74747428D01*
X95122857Y-74747428D01*
X95218095Y-74699809D01*
X95265714Y-74652190D01*
X95313333Y-74556952D01*
X92170476Y-94130761D02*
X92313333Y-94178380D01*
X92551428Y-94178380D01*
X92646666Y-94130761D01*
X92694285Y-94083142D01*
X92741904Y-93987904D01*
X92741904Y-93892666D01*
X92694285Y-93797428D01*
X92646666Y-93749809D01*
X92551428Y-93702190D01*
X92360952Y-93654571D01*
X92265714Y-93606952D01*
X92218095Y-93559333D01*
X92170476Y-93464095D01*
X92170476Y-93368857D01*
X92218095Y-93273619D01*
X92265714Y-93226000D01*
X92360952Y-93178380D01*
X92599047Y-93178380D01*
X92741904Y-93226000D01*
X93075238Y-93178380D02*
X93313333Y-94178380D01*
X93503809Y-93464095D01*
X93694285Y-94178380D01*
X93932380Y-93178380D01*
X94837142Y-94178380D02*
X94265714Y-94178380D01*
X94551428Y-94178380D02*
X94551428Y-93178380D01*
X94456190Y-93321238D01*
X94360952Y-93416476D01*
X94265714Y-93464095D01*
X95456190Y-93178380D02*
X95551428Y-93178380D01*
X95646666Y-93226000D01*
X95694285Y-93273619D01*
X95741904Y-93368857D01*
X95789523Y-93559333D01*
X95789523Y-93797428D01*
X95741904Y-93987904D01*
X95694285Y-94083142D01*
X95646666Y-94130761D01*
X95551428Y-94178380D01*
X95456190Y-94178380D01*
X95360952Y-94130761D01*
X95313333Y-94083142D01*
X95265714Y-93987904D01*
X95218095Y-93797428D01*
X95218095Y-93559333D01*
X95265714Y-93368857D01*
X95313333Y-93273619D01*
X95360952Y-93226000D01*
X95456190Y-93178380D01*
X92170476Y-113180761D02*
X92313333Y-113228380D01*
X92551428Y-113228380D01*
X92646666Y-113180761D01*
X92694285Y-113133142D01*
X92741904Y-113037904D01*
X92741904Y-112942666D01*
X92694285Y-112847428D01*
X92646666Y-112799809D01*
X92551428Y-112752190D01*
X92360952Y-112704571D01*
X92265714Y-112656952D01*
X92218095Y-112609333D01*
X92170476Y-112514095D01*
X92170476Y-112418857D01*
X92218095Y-112323619D01*
X92265714Y-112276000D01*
X92360952Y-112228380D01*
X92599047Y-112228380D01*
X92741904Y-112276000D01*
X93075238Y-112228380D02*
X93313333Y-113228380D01*
X93503809Y-112514095D01*
X93694285Y-113228380D01*
X93932380Y-112228380D01*
X94837142Y-113228380D02*
X94265714Y-113228380D01*
X94551428Y-113228380D02*
X94551428Y-112228380D01*
X94456190Y-112371238D01*
X94360952Y-112466476D01*
X94265714Y-112514095D01*
X95789523Y-113228380D02*
X95218095Y-113228380D01*
X95503809Y-113228380D02*
X95503809Y-112228380D01*
X95408571Y-112371238D01*
X95313333Y-112466476D01*
X95218095Y-112514095D01*
X92170476Y-132230761D02*
X92313333Y-132278380D01*
X92551428Y-132278380D01*
X92646666Y-132230761D01*
X92694285Y-132183142D01*
X92741904Y-132087904D01*
X92741904Y-131992666D01*
X92694285Y-131897428D01*
X92646666Y-131849809D01*
X92551428Y-131802190D01*
X92360952Y-131754571D01*
X92265714Y-131706952D01*
X92218095Y-131659333D01*
X92170476Y-131564095D01*
X92170476Y-131468857D01*
X92218095Y-131373619D01*
X92265714Y-131326000D01*
X92360952Y-131278380D01*
X92599047Y-131278380D01*
X92741904Y-131326000D01*
X93075238Y-131278380D02*
X93313333Y-132278380D01*
X93503809Y-131564095D01*
X93694285Y-132278380D01*
X93932380Y-131278380D01*
X94837142Y-132278380D02*
X94265714Y-132278380D01*
X94551428Y-132278380D02*
X94551428Y-131278380D01*
X94456190Y-131421238D01*
X94360952Y-131516476D01*
X94265714Y-131564095D01*
X95218095Y-131373619D02*
X95265714Y-131326000D01*
X95360952Y-131278380D01*
X95599047Y-131278380D01*
X95694285Y-131326000D01*
X95741904Y-131373619D01*
X95789523Y-131468857D01*
X95789523Y-131564095D01*
X95741904Y-131706952D01*
X95170476Y-132278380D01*
X95789523Y-132278380D01*
X111220476Y-75080761D02*
X111363333Y-75128380D01*
X111601428Y-75128380D01*
X111696666Y-75080761D01*
X111744285Y-75033142D01*
X111791904Y-74937904D01*
X111791904Y-74842666D01*
X111744285Y-74747428D01*
X111696666Y-74699809D01*
X111601428Y-74652190D01*
X111410952Y-74604571D01*
X111315714Y-74556952D01*
X111268095Y-74509333D01*
X111220476Y-74414095D01*
X111220476Y-74318857D01*
X111268095Y-74223619D01*
X111315714Y-74176000D01*
X111410952Y-74128380D01*
X111649047Y-74128380D01*
X111791904Y-74176000D01*
X112125238Y-74128380D02*
X112363333Y-75128380D01*
X112553809Y-74414095D01*
X112744285Y-75128380D01*
X112982380Y-74128380D01*
X113887142Y-75128380D02*
X113315714Y-75128380D01*
X113601428Y-75128380D02*
X113601428Y-74128380D01*
X113506190Y-74271238D01*
X113410952Y-74366476D01*
X113315714Y-74414095D01*
X114220476Y-74128380D02*
X114839523Y-74128380D01*
X114506190Y-74509333D01*
X114649047Y-74509333D01*
X114744285Y-74556952D01*
X114791904Y-74604571D01*
X114839523Y-74699809D01*
X114839523Y-74937904D01*
X114791904Y-75033142D01*
X114744285Y-75080761D01*
X114649047Y-75128380D01*
X114363333Y-75128380D01*
X114268095Y-75080761D01*
X114220476Y-75033142D01*
X111220476Y-94130761D02*
X111363333Y-94178380D01*
X111601428Y-94178380D01*
X111696666Y-94130761D01*
X111744285Y-94083142D01*
X111791904Y-93987904D01*
X111791904Y-93892666D01*
X111744285Y-93797428D01*
X111696666Y-93749809D01*
X111601428Y-93702190D01*
X111410952Y-93654571D01*
X111315714Y-93606952D01*
X111268095Y-93559333D01*
X111220476Y-93464095D01*
X111220476Y-93368857D01*
X111268095Y-93273619D01*
X111315714Y-93226000D01*
X111410952Y-93178380D01*
X111649047Y-93178380D01*
X111791904Y-93226000D01*
X112125238Y-93178380D02*
X112363333Y-94178380D01*
X112553809Y-93464095D01*
X112744285Y-94178380D01*
X112982380Y-93178380D01*
X113887142Y-94178380D02*
X113315714Y-94178380D01*
X113601428Y-94178380D02*
X113601428Y-93178380D01*
X113506190Y-93321238D01*
X113410952Y-93416476D01*
X113315714Y-93464095D01*
X114744285Y-93511714D02*
X114744285Y-94178380D01*
X114506190Y-93130761D02*
X114268095Y-93845047D01*
X114887142Y-93845047D01*
X111220476Y-113180761D02*
X111363333Y-113228380D01*
X111601428Y-113228380D01*
X111696666Y-113180761D01*
X111744285Y-113133142D01*
X111791904Y-113037904D01*
X111791904Y-112942666D01*
X111744285Y-112847428D01*
X111696666Y-112799809D01*
X111601428Y-112752190D01*
X111410952Y-112704571D01*
X111315714Y-112656952D01*
X111268095Y-112609333D01*
X111220476Y-112514095D01*
X111220476Y-112418857D01*
X111268095Y-112323619D01*
X111315714Y-112276000D01*
X111410952Y-112228380D01*
X111649047Y-112228380D01*
X111791904Y-112276000D01*
X112125238Y-112228380D02*
X112363333Y-113228380D01*
X112553809Y-112514095D01*
X112744285Y-113228380D01*
X112982380Y-112228380D01*
X113887142Y-113228380D02*
X113315714Y-113228380D01*
X113601428Y-113228380D02*
X113601428Y-112228380D01*
X113506190Y-112371238D01*
X113410952Y-112466476D01*
X113315714Y-112514095D01*
X114791904Y-112228380D02*
X114315714Y-112228380D01*
X114268095Y-112704571D01*
X114315714Y-112656952D01*
X114410952Y-112609333D01*
X114649047Y-112609333D01*
X114744285Y-112656952D01*
X114791904Y-112704571D01*
X114839523Y-112799809D01*
X114839523Y-113037904D01*
X114791904Y-113133142D01*
X114744285Y-113180761D01*
X114649047Y-113228380D01*
X114410952Y-113228380D01*
X114315714Y-113180761D01*
X114268095Y-113133142D01*
X111220476Y-132230761D02*
X111363333Y-132278380D01*
X111601428Y-132278380D01*
X111696666Y-132230761D01*
X111744285Y-132183142D01*
X111791904Y-132087904D01*
X111791904Y-131992666D01*
X111744285Y-131897428D01*
X111696666Y-131849809D01*
X111601428Y-131802190D01*
X111410952Y-131754571D01*
X111315714Y-131706952D01*
X111268095Y-131659333D01*
X111220476Y-131564095D01*
X111220476Y-131468857D01*
X111268095Y-131373619D01*
X111315714Y-131326000D01*
X111410952Y-131278380D01*
X111649047Y-131278380D01*
X111791904Y-131326000D01*
X112125238Y-131278380D02*
X112363333Y-132278380D01*
X112553809Y-131564095D01*
X112744285Y-132278380D01*
X112982380Y-131278380D01*
X113887142Y-132278380D02*
X113315714Y-132278380D01*
X113601428Y-132278380D02*
X113601428Y-131278380D01*
X113506190Y-131421238D01*
X113410952Y-131516476D01*
X113315714Y-131564095D01*
X114744285Y-131278380D02*
X114553809Y-131278380D01*
X114458571Y-131326000D01*
X114410952Y-131373619D01*
X114315714Y-131516476D01*
X114268095Y-131706952D01*
X114268095Y-132087904D01*
X114315714Y-132183142D01*
X114363333Y-132230761D01*
X114458571Y-132278380D01*
X114649047Y-132278380D01*
X114744285Y-132230761D01*
X114791904Y-132183142D01*
X114839523Y-132087904D01*
X114839523Y-131849809D01*
X114791904Y-131754571D01*
X114744285Y-131706952D01*
X114649047Y-131659333D01*
X114458571Y-131659333D01*
X114363333Y-131706952D01*
X114315714Y-131754571D01*
X114268095Y-131849809D01*
D13*
X57258857Y-63159523D02*
X57258857Y-64187619D01*
X57331428Y-64308571D01*
X57404000Y-64369047D01*
X57549142Y-64429523D01*
X57839428Y-64429523D01*
X57984571Y-64369047D01*
X58057142Y-64308571D01*
X58129714Y-64187619D01*
X58129714Y-63159523D01*
X59653714Y-64429523D02*
X58782857Y-64429523D01*
X59218285Y-64429523D02*
X59218285Y-63159523D01*
X59073142Y-63340952D01*
X58928000Y-63461904D01*
X58782857Y-63522380D01*
D12*
X78910476Y-59364761D02*
X79053333Y-59412380D01*
X79291428Y-59412380D01*
X79386666Y-59364761D01*
X79434285Y-59317142D01*
X79481904Y-59221904D01*
X79481904Y-59126666D01*
X79434285Y-59031428D01*
X79386666Y-58983809D01*
X79291428Y-58936190D01*
X79100952Y-58888571D01*
X79005714Y-58840952D01*
X78958095Y-58793333D01*
X78910476Y-58698095D01*
X78910476Y-58602857D01*
X78958095Y-58507619D01*
X79005714Y-58460000D01*
X79100952Y-58412380D01*
X79339047Y-58412380D01*
X79481904Y-58460000D01*
X79815238Y-58412380D02*
X80053333Y-59412380D01*
X80243809Y-58698095D01*
X80434285Y-59412380D01*
X80672380Y-58412380D01*
X81577142Y-59412380D02*
X81005714Y-59412380D01*
X81291428Y-59412380D02*
X81291428Y-58412380D01*
X81196190Y-58555238D01*
X81100952Y-58650476D01*
X81005714Y-58698095D01*
X81910476Y-58412380D02*
X82577142Y-58412380D01*
X82148571Y-59412380D01*
M02*
