G04 #@! TF.GenerationSoftware,KiCad,Pcbnew,(5.1.5)-3*
G04 #@! TF.CreationDate,2019-12-27T06:25:41+09:00*
G04 #@! TF.ProjectId,MidiKey16,4d696469-4b65-4793-9136-2e6b69636164,rev?*
G04 #@! TF.SameCoordinates,Original*
G04 #@! TF.FileFunction,Soldermask,Bot*
G04 #@! TF.FilePolarity,Negative*
%FSLAX46Y46*%
G04 Gerber Fmt 4.6, Leading zero omitted, Abs format (unit mm)*
G04 Created by KiCad (PCBNEW (5.1.5)-3) date 2019-12-27 06:25:41*
%MOMM*%
%LPD*%
G04 APERTURE LIST*
%ADD10C,0.100000*%
G04 APERTURE END LIST*
D10*
G36*
X123414549Y-147461116D02*
G01*
X123525734Y-147483232D01*
X123735203Y-147569997D01*
X123923720Y-147695960D01*
X124084040Y-147856280D01*
X124210003Y-148044797D01*
X124296768Y-148254266D01*
X124341000Y-148476636D01*
X124341000Y-148703364D01*
X124296768Y-148925734D01*
X124210003Y-149135203D01*
X124084040Y-149323720D01*
X123923720Y-149484040D01*
X123735203Y-149610003D01*
X123525734Y-149696768D01*
X123414549Y-149718884D01*
X123303365Y-149741000D01*
X123076635Y-149741000D01*
X122965451Y-149718884D01*
X122854266Y-149696768D01*
X122644797Y-149610003D01*
X122456280Y-149484040D01*
X122295960Y-149323720D01*
X122169997Y-149135203D01*
X122083232Y-148925734D01*
X122039000Y-148703364D01*
X122039000Y-148476636D01*
X122083232Y-148254266D01*
X122169997Y-148044797D01*
X122295960Y-147856280D01*
X122456280Y-147695960D01*
X122644797Y-147569997D01*
X122854266Y-147483232D01*
X122965451Y-147461116D01*
X123076635Y-147439000D01*
X123303365Y-147439000D01*
X123414549Y-147461116D01*
G37*
G36*
X42134549Y-147461116D02*
G01*
X42245734Y-147483232D01*
X42455203Y-147569997D01*
X42643720Y-147695960D01*
X42804040Y-147856280D01*
X42930003Y-148044797D01*
X43016768Y-148254266D01*
X43061000Y-148476636D01*
X43061000Y-148703364D01*
X43016768Y-148925734D01*
X42930003Y-149135203D01*
X42804040Y-149323720D01*
X42643720Y-149484040D01*
X42455203Y-149610003D01*
X42245734Y-149696768D01*
X42134549Y-149718884D01*
X42023365Y-149741000D01*
X41796635Y-149741000D01*
X41685451Y-149718884D01*
X41574266Y-149696768D01*
X41364797Y-149610003D01*
X41176280Y-149484040D01*
X41015960Y-149323720D01*
X40889997Y-149135203D01*
X40803232Y-148925734D01*
X40759000Y-148703364D01*
X40759000Y-148476636D01*
X40803232Y-148254266D01*
X40889997Y-148044797D01*
X41015960Y-147856280D01*
X41176280Y-147695960D01*
X41364797Y-147569997D01*
X41574266Y-147483232D01*
X41685451Y-147461116D01*
X41796635Y-147439000D01*
X42023365Y-147439000D01*
X42134549Y-147461116D01*
G37*
G36*
X59967395Y-147675546D02*
G01*
X60140466Y-147747234D01*
X60140467Y-147747235D01*
X60296227Y-147851310D01*
X60428690Y-147983773D01*
X60428691Y-147983775D01*
X60532766Y-148139534D01*
X60604454Y-148312605D01*
X60641000Y-148496333D01*
X60641000Y-148683667D01*
X60604454Y-148867395D01*
X60532766Y-149040466D01*
X60532765Y-149040467D01*
X60428690Y-149196227D01*
X60296227Y-149328690D01*
X60217818Y-149381081D01*
X60140466Y-149432766D01*
X59967395Y-149504454D01*
X59783667Y-149541000D01*
X59596333Y-149541000D01*
X59412605Y-149504454D01*
X59239534Y-149432766D01*
X59162182Y-149381081D01*
X59083773Y-149328690D01*
X58951310Y-149196227D01*
X58847235Y-149040467D01*
X58847234Y-149040466D01*
X58775546Y-148867395D01*
X58739000Y-148683667D01*
X58739000Y-148496333D01*
X58775546Y-148312605D01*
X58847234Y-148139534D01*
X58951309Y-147983775D01*
X58951310Y-147983773D01*
X59083773Y-147851310D01*
X59239533Y-147747235D01*
X59239534Y-147747234D01*
X59412605Y-147675546D01*
X59596333Y-147639000D01*
X59783667Y-147639000D01*
X59967395Y-147675546D01*
G37*
G36*
X53021000Y-149541000D02*
G01*
X51119000Y-149541000D01*
X51119000Y-147639000D01*
X53021000Y-147639000D01*
X53021000Y-149541000D01*
G37*
G36*
X72071000Y-149541000D02*
G01*
X70169000Y-149541000D01*
X70169000Y-147639000D01*
X72071000Y-147639000D01*
X72071000Y-149541000D01*
G37*
G36*
X79017395Y-147675546D02*
G01*
X79190466Y-147747234D01*
X79190467Y-147747235D01*
X79346227Y-147851310D01*
X79478690Y-147983773D01*
X79478691Y-147983775D01*
X79582766Y-148139534D01*
X79654454Y-148312605D01*
X79691000Y-148496333D01*
X79691000Y-148683667D01*
X79654454Y-148867395D01*
X79582766Y-149040466D01*
X79582765Y-149040467D01*
X79478690Y-149196227D01*
X79346227Y-149328690D01*
X79267818Y-149381081D01*
X79190466Y-149432766D01*
X79017395Y-149504454D01*
X78833667Y-149541000D01*
X78646333Y-149541000D01*
X78462605Y-149504454D01*
X78289534Y-149432766D01*
X78212182Y-149381081D01*
X78133773Y-149328690D01*
X78001310Y-149196227D01*
X77897235Y-149040467D01*
X77897234Y-149040466D01*
X77825546Y-148867395D01*
X77789000Y-148683667D01*
X77789000Y-148496333D01*
X77825546Y-148312605D01*
X77897234Y-148139534D01*
X78001309Y-147983775D01*
X78001310Y-147983773D01*
X78133773Y-147851310D01*
X78289533Y-147747235D01*
X78289534Y-147747234D01*
X78462605Y-147675546D01*
X78646333Y-147639000D01*
X78833667Y-147639000D01*
X79017395Y-147675546D01*
G37*
G36*
X91121000Y-149541000D02*
G01*
X89219000Y-149541000D01*
X89219000Y-147639000D01*
X91121000Y-147639000D01*
X91121000Y-149541000D01*
G37*
G36*
X110171000Y-149541000D02*
G01*
X108269000Y-149541000D01*
X108269000Y-147639000D01*
X110171000Y-147639000D01*
X110171000Y-149541000D01*
G37*
G36*
X117117395Y-147675546D02*
G01*
X117290466Y-147747234D01*
X117290467Y-147747235D01*
X117446227Y-147851310D01*
X117578690Y-147983773D01*
X117578691Y-147983775D01*
X117682766Y-148139534D01*
X117754454Y-148312605D01*
X117791000Y-148496333D01*
X117791000Y-148683667D01*
X117754454Y-148867395D01*
X117682766Y-149040466D01*
X117682765Y-149040467D01*
X117578690Y-149196227D01*
X117446227Y-149328690D01*
X117367818Y-149381081D01*
X117290466Y-149432766D01*
X117117395Y-149504454D01*
X116933667Y-149541000D01*
X116746333Y-149541000D01*
X116562605Y-149504454D01*
X116389534Y-149432766D01*
X116312182Y-149381081D01*
X116233773Y-149328690D01*
X116101310Y-149196227D01*
X115997235Y-149040467D01*
X115997234Y-149040466D01*
X115925546Y-148867395D01*
X115889000Y-148683667D01*
X115889000Y-148496333D01*
X115925546Y-148312605D01*
X115997234Y-148139534D01*
X116101309Y-147983775D01*
X116101310Y-147983773D01*
X116233773Y-147851310D01*
X116389533Y-147747235D01*
X116389534Y-147747234D01*
X116562605Y-147675546D01*
X116746333Y-147639000D01*
X116933667Y-147639000D01*
X117117395Y-147675546D01*
G37*
G36*
X98067395Y-147675546D02*
G01*
X98240466Y-147747234D01*
X98240467Y-147747235D01*
X98396227Y-147851310D01*
X98528690Y-147983773D01*
X98528691Y-147983775D01*
X98632766Y-148139534D01*
X98704454Y-148312605D01*
X98741000Y-148496333D01*
X98741000Y-148683667D01*
X98704454Y-148867395D01*
X98632766Y-149040466D01*
X98632765Y-149040467D01*
X98528690Y-149196227D01*
X98396227Y-149328690D01*
X98317818Y-149381081D01*
X98240466Y-149432766D01*
X98067395Y-149504454D01*
X97883667Y-149541000D01*
X97696333Y-149541000D01*
X97512605Y-149504454D01*
X97339534Y-149432766D01*
X97262182Y-149381081D01*
X97183773Y-149328690D01*
X97051310Y-149196227D01*
X96947235Y-149040467D01*
X96947234Y-149040466D01*
X96875546Y-148867395D01*
X96839000Y-148683667D01*
X96839000Y-148496333D01*
X96875546Y-148312605D01*
X96947234Y-148139534D01*
X97051309Y-147983775D01*
X97051310Y-147983773D01*
X97183773Y-147851310D01*
X97339533Y-147747235D01*
X97339534Y-147747234D01*
X97512605Y-147675546D01*
X97696333Y-147639000D01*
X97883667Y-147639000D01*
X98067395Y-147675546D01*
G37*
G36*
X44698228Y-142691703D02*
G01*
X44853100Y-142755853D01*
X44992481Y-142848985D01*
X45111015Y-142967519D01*
X45204147Y-143106900D01*
X45268297Y-143261772D01*
X45301000Y-143426184D01*
X45301000Y-143593816D01*
X45268297Y-143758228D01*
X45204147Y-143913100D01*
X45111015Y-144052481D01*
X44992481Y-144171015D01*
X44853100Y-144264147D01*
X44698228Y-144328297D01*
X44533816Y-144361000D01*
X44366184Y-144361000D01*
X44201772Y-144328297D01*
X44046900Y-144264147D01*
X43907519Y-144171015D01*
X43788985Y-144052481D01*
X43695853Y-143913100D01*
X43631703Y-143758228D01*
X43599000Y-143593816D01*
X43599000Y-143426184D01*
X43631703Y-143261772D01*
X43695853Y-143106900D01*
X43788985Y-142967519D01*
X43907519Y-142848985D01*
X44046900Y-142755853D01*
X44201772Y-142691703D01*
X44366184Y-142659000D01*
X44533816Y-142659000D01*
X44698228Y-142691703D01*
G37*
G36*
X113628254Y-137727818D02*
G01*
X114001511Y-137882426D01*
X114001513Y-137882427D01*
X114337436Y-138106884D01*
X114623116Y-138392564D01*
X114847574Y-138728489D01*
X115002182Y-139101746D01*
X115081000Y-139497993D01*
X115081000Y-139902007D01*
X115002182Y-140298254D01*
X114847574Y-140671511D01*
X114847573Y-140671513D01*
X114623116Y-141007436D01*
X114337436Y-141293116D01*
X114001513Y-141517573D01*
X114001512Y-141517574D01*
X114001511Y-141517574D01*
X113628254Y-141672182D01*
X113232007Y-141751000D01*
X112827993Y-141751000D01*
X112431746Y-141672182D01*
X112058489Y-141517574D01*
X112058488Y-141517574D01*
X112058487Y-141517573D01*
X111722564Y-141293116D01*
X111436884Y-141007436D01*
X111212427Y-140671513D01*
X111212426Y-140671511D01*
X111057818Y-140298254D01*
X110979000Y-139902007D01*
X110979000Y-139497993D01*
X111057818Y-139101746D01*
X111212426Y-138728489D01*
X111436884Y-138392564D01*
X111722564Y-138106884D01*
X112058487Y-137882427D01*
X112058489Y-137882426D01*
X112431746Y-137727818D01*
X112827993Y-137649000D01*
X113232007Y-137649000D01*
X113628254Y-137727818D01*
G37*
G36*
X94578254Y-137727818D02*
G01*
X94951511Y-137882426D01*
X94951513Y-137882427D01*
X95287436Y-138106884D01*
X95573116Y-138392564D01*
X95797574Y-138728489D01*
X95952182Y-139101746D01*
X96031000Y-139497993D01*
X96031000Y-139902007D01*
X95952182Y-140298254D01*
X95797574Y-140671511D01*
X95797573Y-140671513D01*
X95573116Y-141007436D01*
X95287436Y-141293116D01*
X94951513Y-141517573D01*
X94951512Y-141517574D01*
X94951511Y-141517574D01*
X94578254Y-141672182D01*
X94182007Y-141751000D01*
X93777993Y-141751000D01*
X93381746Y-141672182D01*
X93008489Y-141517574D01*
X93008488Y-141517574D01*
X93008487Y-141517573D01*
X92672564Y-141293116D01*
X92386884Y-141007436D01*
X92162427Y-140671513D01*
X92162426Y-140671511D01*
X92007818Y-140298254D01*
X91929000Y-139902007D01*
X91929000Y-139497993D01*
X92007818Y-139101746D01*
X92162426Y-138728489D01*
X92386884Y-138392564D01*
X92672564Y-138106884D01*
X93008487Y-137882427D01*
X93008489Y-137882426D01*
X93381746Y-137727818D01*
X93777993Y-137649000D01*
X94182007Y-137649000D01*
X94578254Y-137727818D01*
G37*
G36*
X75528254Y-137727818D02*
G01*
X75901511Y-137882426D01*
X75901513Y-137882427D01*
X76237436Y-138106884D01*
X76523116Y-138392564D01*
X76747574Y-138728489D01*
X76902182Y-139101746D01*
X76981000Y-139497993D01*
X76981000Y-139902007D01*
X76902182Y-140298254D01*
X76747574Y-140671511D01*
X76747573Y-140671513D01*
X76523116Y-141007436D01*
X76237436Y-141293116D01*
X75901513Y-141517573D01*
X75901512Y-141517574D01*
X75901511Y-141517574D01*
X75528254Y-141672182D01*
X75132007Y-141751000D01*
X74727993Y-141751000D01*
X74331746Y-141672182D01*
X73958489Y-141517574D01*
X73958488Y-141517574D01*
X73958487Y-141517573D01*
X73622564Y-141293116D01*
X73336884Y-141007436D01*
X73112427Y-140671513D01*
X73112426Y-140671511D01*
X72957818Y-140298254D01*
X72879000Y-139902007D01*
X72879000Y-139497993D01*
X72957818Y-139101746D01*
X73112426Y-138728489D01*
X73336884Y-138392564D01*
X73622564Y-138106884D01*
X73958487Y-137882427D01*
X73958489Y-137882426D01*
X74331746Y-137727818D01*
X74727993Y-137649000D01*
X75132007Y-137649000D01*
X75528254Y-137727818D01*
G37*
G36*
X56478254Y-137727818D02*
G01*
X56851511Y-137882426D01*
X56851513Y-137882427D01*
X57187436Y-138106884D01*
X57473116Y-138392564D01*
X57697574Y-138728489D01*
X57852182Y-139101746D01*
X57931000Y-139497993D01*
X57931000Y-139902007D01*
X57852182Y-140298254D01*
X57697574Y-140671511D01*
X57697573Y-140671513D01*
X57473116Y-141007436D01*
X57187436Y-141293116D01*
X56851513Y-141517573D01*
X56851512Y-141517574D01*
X56851511Y-141517574D01*
X56478254Y-141672182D01*
X56082007Y-141751000D01*
X55677993Y-141751000D01*
X55281746Y-141672182D01*
X54908489Y-141517574D01*
X54908488Y-141517574D01*
X54908487Y-141517573D01*
X54572564Y-141293116D01*
X54286884Y-141007436D01*
X54062427Y-140671513D01*
X54062426Y-140671511D01*
X53907818Y-140298254D01*
X53829000Y-139902007D01*
X53829000Y-139497993D01*
X53907818Y-139101746D01*
X54062426Y-138728489D01*
X54286884Y-138392564D01*
X54572564Y-138106884D01*
X54908487Y-137882427D01*
X54908489Y-137882426D01*
X55281746Y-137727818D01*
X55677993Y-137649000D01*
X56082007Y-137649000D01*
X56478254Y-137727818D01*
G37*
G36*
X69963512Y-138803927D02*
G01*
X70112812Y-138833624D01*
X70276784Y-138901544D01*
X70424354Y-139000147D01*
X70549853Y-139125646D01*
X70648456Y-139273216D01*
X70716376Y-139437188D01*
X70751000Y-139611259D01*
X70751000Y-139788741D01*
X70716376Y-139962812D01*
X70648456Y-140126784D01*
X70549853Y-140274354D01*
X70424354Y-140399853D01*
X70276784Y-140498456D01*
X70112812Y-140566376D01*
X69963512Y-140596073D01*
X69938742Y-140601000D01*
X69761258Y-140601000D01*
X69736488Y-140596073D01*
X69587188Y-140566376D01*
X69423216Y-140498456D01*
X69275646Y-140399853D01*
X69150147Y-140274354D01*
X69051544Y-140126784D01*
X68983624Y-139962812D01*
X68949000Y-139788741D01*
X68949000Y-139611259D01*
X68983624Y-139437188D01*
X69051544Y-139273216D01*
X69150147Y-139125646D01*
X69275646Y-139000147D01*
X69423216Y-138901544D01*
X69587188Y-138833624D01*
X69736488Y-138803927D01*
X69761258Y-138799000D01*
X69938742Y-138799000D01*
X69963512Y-138803927D01*
G37*
G36*
X89013512Y-138803927D02*
G01*
X89162812Y-138833624D01*
X89326784Y-138901544D01*
X89474354Y-139000147D01*
X89599853Y-139125646D01*
X89698456Y-139273216D01*
X89766376Y-139437188D01*
X89801000Y-139611259D01*
X89801000Y-139788741D01*
X89766376Y-139962812D01*
X89698456Y-140126784D01*
X89599853Y-140274354D01*
X89474354Y-140399853D01*
X89326784Y-140498456D01*
X89162812Y-140566376D01*
X89013512Y-140596073D01*
X88988742Y-140601000D01*
X88811258Y-140601000D01*
X88786488Y-140596073D01*
X88637188Y-140566376D01*
X88473216Y-140498456D01*
X88325646Y-140399853D01*
X88200147Y-140274354D01*
X88101544Y-140126784D01*
X88033624Y-139962812D01*
X87999000Y-139788741D01*
X87999000Y-139611259D01*
X88033624Y-139437188D01*
X88101544Y-139273216D01*
X88200147Y-139125646D01*
X88325646Y-139000147D01*
X88473216Y-138901544D01*
X88637188Y-138833624D01*
X88786488Y-138803927D01*
X88811258Y-138799000D01*
X88988742Y-138799000D01*
X89013512Y-138803927D01*
G37*
G36*
X108063512Y-138803927D02*
G01*
X108212812Y-138833624D01*
X108376784Y-138901544D01*
X108524354Y-139000147D01*
X108649853Y-139125646D01*
X108748456Y-139273216D01*
X108816376Y-139437188D01*
X108851000Y-139611259D01*
X108851000Y-139788741D01*
X108816376Y-139962812D01*
X108748456Y-140126784D01*
X108649853Y-140274354D01*
X108524354Y-140399853D01*
X108376784Y-140498456D01*
X108212812Y-140566376D01*
X108063512Y-140596073D01*
X108038742Y-140601000D01*
X107861258Y-140601000D01*
X107836488Y-140596073D01*
X107687188Y-140566376D01*
X107523216Y-140498456D01*
X107375646Y-140399853D01*
X107250147Y-140274354D01*
X107151544Y-140126784D01*
X107083624Y-139962812D01*
X107049000Y-139788741D01*
X107049000Y-139611259D01*
X107083624Y-139437188D01*
X107151544Y-139273216D01*
X107250147Y-139125646D01*
X107375646Y-139000147D01*
X107523216Y-138901544D01*
X107687188Y-138833624D01*
X107836488Y-138803927D01*
X107861258Y-138799000D01*
X108038742Y-138799000D01*
X108063512Y-138803927D01*
G37*
G36*
X118223512Y-138803927D02*
G01*
X118372812Y-138833624D01*
X118536784Y-138901544D01*
X118684354Y-139000147D01*
X118809853Y-139125646D01*
X118908456Y-139273216D01*
X118976376Y-139437188D01*
X119011000Y-139611259D01*
X119011000Y-139788741D01*
X118976376Y-139962812D01*
X118908456Y-140126784D01*
X118809853Y-140274354D01*
X118684354Y-140399853D01*
X118536784Y-140498456D01*
X118372812Y-140566376D01*
X118223512Y-140596073D01*
X118198742Y-140601000D01*
X118021258Y-140601000D01*
X117996488Y-140596073D01*
X117847188Y-140566376D01*
X117683216Y-140498456D01*
X117535646Y-140399853D01*
X117410147Y-140274354D01*
X117311544Y-140126784D01*
X117243624Y-139962812D01*
X117209000Y-139788741D01*
X117209000Y-139611259D01*
X117243624Y-139437188D01*
X117311544Y-139273216D01*
X117410147Y-139125646D01*
X117535646Y-139000147D01*
X117683216Y-138901544D01*
X117847188Y-138833624D01*
X117996488Y-138803927D01*
X118021258Y-138799000D01*
X118198742Y-138799000D01*
X118223512Y-138803927D01*
G37*
G36*
X99173512Y-138803927D02*
G01*
X99322812Y-138833624D01*
X99486784Y-138901544D01*
X99634354Y-139000147D01*
X99759853Y-139125646D01*
X99858456Y-139273216D01*
X99926376Y-139437188D01*
X99961000Y-139611259D01*
X99961000Y-139788741D01*
X99926376Y-139962812D01*
X99858456Y-140126784D01*
X99759853Y-140274354D01*
X99634354Y-140399853D01*
X99486784Y-140498456D01*
X99322812Y-140566376D01*
X99173512Y-140596073D01*
X99148742Y-140601000D01*
X98971258Y-140601000D01*
X98946488Y-140596073D01*
X98797188Y-140566376D01*
X98633216Y-140498456D01*
X98485646Y-140399853D01*
X98360147Y-140274354D01*
X98261544Y-140126784D01*
X98193624Y-139962812D01*
X98159000Y-139788741D01*
X98159000Y-139611259D01*
X98193624Y-139437188D01*
X98261544Y-139273216D01*
X98360147Y-139125646D01*
X98485646Y-139000147D01*
X98633216Y-138901544D01*
X98797188Y-138833624D01*
X98946488Y-138803927D01*
X98971258Y-138799000D01*
X99148742Y-138799000D01*
X99173512Y-138803927D01*
G37*
G36*
X80123512Y-138803927D02*
G01*
X80272812Y-138833624D01*
X80436784Y-138901544D01*
X80584354Y-139000147D01*
X80709853Y-139125646D01*
X80808456Y-139273216D01*
X80876376Y-139437188D01*
X80911000Y-139611259D01*
X80911000Y-139788741D01*
X80876376Y-139962812D01*
X80808456Y-140126784D01*
X80709853Y-140274354D01*
X80584354Y-140399853D01*
X80436784Y-140498456D01*
X80272812Y-140566376D01*
X80123512Y-140596073D01*
X80098742Y-140601000D01*
X79921258Y-140601000D01*
X79896488Y-140596073D01*
X79747188Y-140566376D01*
X79583216Y-140498456D01*
X79435646Y-140399853D01*
X79310147Y-140274354D01*
X79211544Y-140126784D01*
X79143624Y-139962812D01*
X79109000Y-139788741D01*
X79109000Y-139611259D01*
X79143624Y-139437188D01*
X79211544Y-139273216D01*
X79310147Y-139125646D01*
X79435646Y-139000147D01*
X79583216Y-138901544D01*
X79747188Y-138833624D01*
X79896488Y-138803927D01*
X79921258Y-138799000D01*
X80098742Y-138799000D01*
X80123512Y-138803927D01*
G37*
G36*
X61073512Y-138803927D02*
G01*
X61222812Y-138833624D01*
X61386784Y-138901544D01*
X61534354Y-139000147D01*
X61659853Y-139125646D01*
X61758456Y-139273216D01*
X61826376Y-139437188D01*
X61861000Y-139611259D01*
X61861000Y-139788741D01*
X61826376Y-139962812D01*
X61758456Y-140126784D01*
X61659853Y-140274354D01*
X61534354Y-140399853D01*
X61386784Y-140498456D01*
X61222812Y-140566376D01*
X61073512Y-140596073D01*
X61048742Y-140601000D01*
X60871258Y-140601000D01*
X60846488Y-140596073D01*
X60697188Y-140566376D01*
X60533216Y-140498456D01*
X60385646Y-140399853D01*
X60260147Y-140274354D01*
X60161544Y-140126784D01*
X60093624Y-139962812D01*
X60059000Y-139788741D01*
X60059000Y-139611259D01*
X60093624Y-139437188D01*
X60161544Y-139273216D01*
X60260147Y-139125646D01*
X60385646Y-139000147D01*
X60533216Y-138901544D01*
X60697188Y-138833624D01*
X60846488Y-138803927D01*
X60871258Y-138799000D01*
X61048742Y-138799000D01*
X61073512Y-138803927D01*
G37*
G36*
X50913512Y-138803927D02*
G01*
X51062812Y-138833624D01*
X51226784Y-138901544D01*
X51374354Y-139000147D01*
X51499853Y-139125646D01*
X51598456Y-139273216D01*
X51666376Y-139437188D01*
X51701000Y-139611259D01*
X51701000Y-139788741D01*
X51666376Y-139962812D01*
X51598456Y-140126784D01*
X51499853Y-140274354D01*
X51374354Y-140399853D01*
X51226784Y-140498456D01*
X51062812Y-140566376D01*
X50913512Y-140596073D01*
X50888742Y-140601000D01*
X50711258Y-140601000D01*
X50686488Y-140596073D01*
X50537188Y-140566376D01*
X50373216Y-140498456D01*
X50225646Y-140399853D01*
X50100147Y-140274354D01*
X50001544Y-140126784D01*
X49933624Y-139962812D01*
X49899000Y-139788741D01*
X49899000Y-139611259D01*
X49933624Y-139437188D01*
X50001544Y-139273216D01*
X50100147Y-139125646D01*
X50225646Y-139000147D01*
X50373216Y-138901544D01*
X50537188Y-138833624D01*
X50686488Y-138803927D01*
X50711258Y-138799000D01*
X50888742Y-138799000D01*
X50913512Y-138803927D01*
G37*
G36*
X109444549Y-136031116D02*
G01*
X109555734Y-136053232D01*
X109703850Y-136114584D01*
X109760933Y-136138228D01*
X109765203Y-136139997D01*
X109953720Y-136265960D01*
X110114040Y-136426280D01*
X110240003Y-136614797D01*
X110326768Y-136824266D01*
X110371000Y-137046636D01*
X110371000Y-137273364D01*
X110326768Y-137495734D01*
X110240003Y-137705203D01*
X110114040Y-137893720D01*
X109953720Y-138054040D01*
X109765203Y-138180003D01*
X109555734Y-138266768D01*
X109444549Y-138288884D01*
X109333365Y-138311000D01*
X109106635Y-138311000D01*
X108995451Y-138288884D01*
X108884266Y-138266768D01*
X108674797Y-138180003D01*
X108486280Y-138054040D01*
X108325960Y-137893720D01*
X108199997Y-137705203D01*
X108113232Y-137495734D01*
X108069000Y-137273364D01*
X108069000Y-137046636D01*
X108113232Y-136824266D01*
X108199997Y-136614797D01*
X108325960Y-136426280D01*
X108486280Y-136265960D01*
X108674797Y-136139997D01*
X108679068Y-136138228D01*
X108736150Y-136114584D01*
X108884266Y-136053232D01*
X108995451Y-136031116D01*
X109106635Y-136009000D01*
X109333365Y-136009000D01*
X109444549Y-136031116D01*
G37*
G36*
X90394549Y-136031116D02*
G01*
X90505734Y-136053232D01*
X90653850Y-136114584D01*
X90710933Y-136138228D01*
X90715203Y-136139997D01*
X90903720Y-136265960D01*
X91064040Y-136426280D01*
X91190003Y-136614797D01*
X91276768Y-136824266D01*
X91321000Y-137046636D01*
X91321000Y-137273364D01*
X91276768Y-137495734D01*
X91190003Y-137705203D01*
X91064040Y-137893720D01*
X90903720Y-138054040D01*
X90715203Y-138180003D01*
X90505734Y-138266768D01*
X90394549Y-138288884D01*
X90283365Y-138311000D01*
X90056635Y-138311000D01*
X89945451Y-138288884D01*
X89834266Y-138266768D01*
X89624797Y-138180003D01*
X89436280Y-138054040D01*
X89275960Y-137893720D01*
X89149997Y-137705203D01*
X89063232Y-137495734D01*
X89019000Y-137273364D01*
X89019000Y-137046636D01*
X89063232Y-136824266D01*
X89149997Y-136614797D01*
X89275960Y-136426280D01*
X89436280Y-136265960D01*
X89624797Y-136139997D01*
X89629068Y-136138228D01*
X89686150Y-136114584D01*
X89834266Y-136053232D01*
X89945451Y-136031116D01*
X90056635Y-136009000D01*
X90283365Y-136009000D01*
X90394549Y-136031116D01*
G37*
G36*
X71344549Y-136031116D02*
G01*
X71455734Y-136053232D01*
X71603850Y-136114584D01*
X71660933Y-136138228D01*
X71665203Y-136139997D01*
X71853720Y-136265960D01*
X72014040Y-136426280D01*
X72140003Y-136614797D01*
X72226768Y-136824266D01*
X72271000Y-137046636D01*
X72271000Y-137273364D01*
X72226768Y-137495734D01*
X72140003Y-137705203D01*
X72014040Y-137893720D01*
X71853720Y-138054040D01*
X71665203Y-138180003D01*
X71455734Y-138266768D01*
X71344549Y-138288884D01*
X71233365Y-138311000D01*
X71006635Y-138311000D01*
X70895451Y-138288884D01*
X70784266Y-138266768D01*
X70574797Y-138180003D01*
X70386280Y-138054040D01*
X70225960Y-137893720D01*
X70099997Y-137705203D01*
X70013232Y-137495734D01*
X69969000Y-137273364D01*
X69969000Y-137046636D01*
X70013232Y-136824266D01*
X70099997Y-136614797D01*
X70225960Y-136426280D01*
X70386280Y-136265960D01*
X70574797Y-136139997D01*
X70579068Y-136138228D01*
X70636150Y-136114584D01*
X70784266Y-136053232D01*
X70895451Y-136031116D01*
X71006635Y-136009000D01*
X71233365Y-136009000D01*
X71344549Y-136031116D01*
G37*
G36*
X52294549Y-136031116D02*
G01*
X52405734Y-136053232D01*
X52553850Y-136114584D01*
X52610933Y-136138228D01*
X52615203Y-136139997D01*
X52803720Y-136265960D01*
X52964040Y-136426280D01*
X53090003Y-136614797D01*
X53176768Y-136824266D01*
X53221000Y-137046636D01*
X53221000Y-137273364D01*
X53176768Y-137495734D01*
X53090003Y-137705203D01*
X52964040Y-137893720D01*
X52803720Y-138054040D01*
X52615203Y-138180003D01*
X52405734Y-138266768D01*
X52294549Y-138288884D01*
X52183365Y-138311000D01*
X51956635Y-138311000D01*
X51845451Y-138288884D01*
X51734266Y-138266768D01*
X51524797Y-138180003D01*
X51336280Y-138054040D01*
X51175960Y-137893720D01*
X51049997Y-137705203D01*
X50963232Y-137495734D01*
X50919000Y-137273364D01*
X50919000Y-137046636D01*
X50963232Y-136824266D01*
X51049997Y-136614797D01*
X51175960Y-136426280D01*
X51336280Y-136265960D01*
X51524797Y-136139997D01*
X51529068Y-136138228D01*
X51586150Y-136114584D01*
X51734266Y-136053232D01*
X51845451Y-136031116D01*
X51956635Y-136009000D01*
X52183365Y-136009000D01*
X52294549Y-136031116D01*
G37*
G36*
X44698228Y-135071703D02*
G01*
X44853100Y-135135853D01*
X44992481Y-135228985D01*
X45111015Y-135347519D01*
X45204147Y-135486900D01*
X45268297Y-135641772D01*
X45301000Y-135806184D01*
X45301000Y-135973816D01*
X45268297Y-136138228D01*
X45204147Y-136293100D01*
X45111015Y-136432481D01*
X44992481Y-136551015D01*
X44853100Y-136644147D01*
X44698228Y-136708297D01*
X44533816Y-136741000D01*
X44366184Y-136741000D01*
X44201772Y-136708297D01*
X44046900Y-136644147D01*
X43907519Y-136551015D01*
X43788985Y-136432481D01*
X43695853Y-136293100D01*
X43631703Y-136138228D01*
X43599000Y-135973816D01*
X43599000Y-135806184D01*
X43631703Y-135641772D01*
X43695853Y-135486900D01*
X43788985Y-135347519D01*
X43907519Y-135228985D01*
X44046900Y-135135853D01*
X44201772Y-135071703D01*
X44366184Y-135039000D01*
X44533816Y-135039000D01*
X44698228Y-135071703D01*
G37*
G36*
X58644549Y-133491116D02*
G01*
X58755734Y-133513232D01*
X58965203Y-133599997D01*
X59153720Y-133725960D01*
X59314040Y-133886280D01*
X59440003Y-134074797D01*
X59526768Y-134284266D01*
X59571000Y-134506636D01*
X59571000Y-134733364D01*
X59526768Y-134955734D01*
X59440003Y-135165203D01*
X59314040Y-135353720D01*
X59153720Y-135514040D01*
X58965203Y-135640003D01*
X58965202Y-135640004D01*
X58965201Y-135640004D01*
X58903850Y-135665416D01*
X58755734Y-135726768D01*
X58644549Y-135748884D01*
X58533365Y-135771000D01*
X58306635Y-135771000D01*
X58195451Y-135748884D01*
X58084266Y-135726768D01*
X57936150Y-135665416D01*
X57874799Y-135640004D01*
X57874798Y-135640004D01*
X57874797Y-135640003D01*
X57686280Y-135514040D01*
X57525960Y-135353720D01*
X57399997Y-135165203D01*
X57313232Y-134955734D01*
X57269000Y-134733364D01*
X57269000Y-134506636D01*
X57313232Y-134284266D01*
X57399997Y-134074797D01*
X57525960Y-133886280D01*
X57686280Y-133725960D01*
X57874797Y-133599997D01*
X58084266Y-133513232D01*
X58195451Y-133491116D01*
X58306635Y-133469000D01*
X58533365Y-133469000D01*
X58644549Y-133491116D01*
G37*
G36*
X115794549Y-133491116D02*
G01*
X115905734Y-133513232D01*
X116115203Y-133599997D01*
X116303720Y-133725960D01*
X116464040Y-133886280D01*
X116590003Y-134074797D01*
X116676768Y-134284266D01*
X116721000Y-134506636D01*
X116721000Y-134733364D01*
X116676768Y-134955734D01*
X116590003Y-135165203D01*
X116464040Y-135353720D01*
X116303720Y-135514040D01*
X116115203Y-135640003D01*
X116115202Y-135640004D01*
X116115201Y-135640004D01*
X116053850Y-135665416D01*
X115905734Y-135726768D01*
X115794549Y-135748884D01*
X115683365Y-135771000D01*
X115456635Y-135771000D01*
X115345451Y-135748884D01*
X115234266Y-135726768D01*
X115086150Y-135665416D01*
X115024799Y-135640004D01*
X115024798Y-135640004D01*
X115024797Y-135640003D01*
X114836280Y-135514040D01*
X114675960Y-135353720D01*
X114549997Y-135165203D01*
X114463232Y-134955734D01*
X114419000Y-134733364D01*
X114419000Y-134506636D01*
X114463232Y-134284266D01*
X114549997Y-134074797D01*
X114675960Y-133886280D01*
X114836280Y-133725960D01*
X115024797Y-133599997D01*
X115234266Y-133513232D01*
X115345451Y-133491116D01*
X115456635Y-133469000D01*
X115683365Y-133469000D01*
X115794549Y-133491116D01*
G37*
G36*
X96744549Y-133491116D02*
G01*
X96855734Y-133513232D01*
X97065203Y-133599997D01*
X97253720Y-133725960D01*
X97414040Y-133886280D01*
X97540003Y-134074797D01*
X97626768Y-134284266D01*
X97671000Y-134506636D01*
X97671000Y-134733364D01*
X97626768Y-134955734D01*
X97540003Y-135165203D01*
X97414040Y-135353720D01*
X97253720Y-135514040D01*
X97065203Y-135640003D01*
X97065202Y-135640004D01*
X97065201Y-135640004D01*
X97003850Y-135665416D01*
X96855734Y-135726768D01*
X96744549Y-135748884D01*
X96633365Y-135771000D01*
X96406635Y-135771000D01*
X96295451Y-135748884D01*
X96184266Y-135726768D01*
X96036150Y-135665416D01*
X95974799Y-135640004D01*
X95974798Y-135640004D01*
X95974797Y-135640003D01*
X95786280Y-135514040D01*
X95625960Y-135353720D01*
X95499997Y-135165203D01*
X95413232Y-134955734D01*
X95369000Y-134733364D01*
X95369000Y-134506636D01*
X95413232Y-134284266D01*
X95499997Y-134074797D01*
X95625960Y-133886280D01*
X95786280Y-133725960D01*
X95974797Y-133599997D01*
X96184266Y-133513232D01*
X96295451Y-133491116D01*
X96406635Y-133469000D01*
X96633365Y-133469000D01*
X96744549Y-133491116D01*
G37*
G36*
X77694549Y-133491116D02*
G01*
X77805734Y-133513232D01*
X78015203Y-133599997D01*
X78203720Y-133725960D01*
X78364040Y-133886280D01*
X78490003Y-134074797D01*
X78576768Y-134284266D01*
X78621000Y-134506636D01*
X78621000Y-134733364D01*
X78576768Y-134955734D01*
X78490003Y-135165203D01*
X78364040Y-135353720D01*
X78203720Y-135514040D01*
X78015203Y-135640003D01*
X78015202Y-135640004D01*
X78015201Y-135640004D01*
X77953850Y-135665416D01*
X77805734Y-135726768D01*
X77694549Y-135748884D01*
X77583365Y-135771000D01*
X77356635Y-135771000D01*
X77245451Y-135748884D01*
X77134266Y-135726768D01*
X76986150Y-135665416D01*
X76924799Y-135640004D01*
X76924798Y-135640004D01*
X76924797Y-135640003D01*
X76736280Y-135514040D01*
X76575960Y-135353720D01*
X76449997Y-135165203D01*
X76363232Y-134955734D01*
X76319000Y-134733364D01*
X76319000Y-134506636D01*
X76363232Y-134284266D01*
X76449997Y-134074797D01*
X76575960Y-133886280D01*
X76736280Y-133725960D01*
X76924797Y-133599997D01*
X77134266Y-133513232D01*
X77245451Y-133491116D01*
X77356635Y-133469000D01*
X77583365Y-133469000D01*
X77694549Y-133491116D01*
G37*
G36*
X98067395Y-128625546D02*
G01*
X98240466Y-128697234D01*
X98240467Y-128697235D01*
X98396227Y-128801310D01*
X98528690Y-128933773D01*
X98528691Y-128933775D01*
X98632766Y-129089534D01*
X98704454Y-129262605D01*
X98741000Y-129446333D01*
X98741000Y-129633667D01*
X98704454Y-129817395D01*
X98632766Y-129990466D01*
X98632765Y-129990467D01*
X98528690Y-130146227D01*
X98396227Y-130278690D01*
X98317818Y-130331081D01*
X98240466Y-130382766D01*
X98067395Y-130454454D01*
X97883667Y-130491000D01*
X97696333Y-130491000D01*
X97512605Y-130454454D01*
X97339534Y-130382766D01*
X97262182Y-130331081D01*
X97183773Y-130278690D01*
X97051310Y-130146227D01*
X96947235Y-129990467D01*
X96947234Y-129990466D01*
X96875546Y-129817395D01*
X96839000Y-129633667D01*
X96839000Y-129446333D01*
X96875546Y-129262605D01*
X96947234Y-129089534D01*
X97051309Y-128933775D01*
X97051310Y-128933773D01*
X97183773Y-128801310D01*
X97339533Y-128697235D01*
X97339534Y-128697234D01*
X97512605Y-128625546D01*
X97696333Y-128589000D01*
X97883667Y-128589000D01*
X98067395Y-128625546D01*
G37*
G36*
X91121000Y-130491000D02*
G01*
X89219000Y-130491000D01*
X89219000Y-128589000D01*
X91121000Y-128589000D01*
X91121000Y-130491000D01*
G37*
G36*
X110171000Y-130491000D02*
G01*
X108269000Y-130491000D01*
X108269000Y-128589000D01*
X110171000Y-128589000D01*
X110171000Y-130491000D01*
G37*
G36*
X117117395Y-128625546D02*
G01*
X117290466Y-128697234D01*
X117290467Y-128697235D01*
X117446227Y-128801310D01*
X117578690Y-128933773D01*
X117578691Y-128933775D01*
X117682766Y-129089534D01*
X117754454Y-129262605D01*
X117791000Y-129446333D01*
X117791000Y-129633667D01*
X117754454Y-129817395D01*
X117682766Y-129990466D01*
X117682765Y-129990467D01*
X117578690Y-130146227D01*
X117446227Y-130278690D01*
X117367818Y-130331081D01*
X117290466Y-130382766D01*
X117117395Y-130454454D01*
X116933667Y-130491000D01*
X116746333Y-130491000D01*
X116562605Y-130454454D01*
X116389534Y-130382766D01*
X116312182Y-130331081D01*
X116233773Y-130278690D01*
X116101310Y-130146227D01*
X115997235Y-129990467D01*
X115997234Y-129990466D01*
X115925546Y-129817395D01*
X115889000Y-129633667D01*
X115889000Y-129446333D01*
X115925546Y-129262605D01*
X115997234Y-129089534D01*
X116101309Y-128933775D01*
X116101310Y-128933773D01*
X116233773Y-128801310D01*
X116389533Y-128697235D01*
X116389534Y-128697234D01*
X116562605Y-128625546D01*
X116746333Y-128589000D01*
X116933667Y-128589000D01*
X117117395Y-128625546D01*
G37*
G36*
X59967395Y-128625546D02*
G01*
X60140466Y-128697234D01*
X60140467Y-128697235D01*
X60296227Y-128801310D01*
X60428690Y-128933773D01*
X60428691Y-128933775D01*
X60532766Y-129089534D01*
X60604454Y-129262605D01*
X60641000Y-129446333D01*
X60641000Y-129633667D01*
X60604454Y-129817395D01*
X60532766Y-129990466D01*
X60532765Y-129990467D01*
X60428690Y-130146227D01*
X60296227Y-130278690D01*
X60217818Y-130331081D01*
X60140466Y-130382766D01*
X59967395Y-130454454D01*
X59783667Y-130491000D01*
X59596333Y-130491000D01*
X59412605Y-130454454D01*
X59239534Y-130382766D01*
X59162182Y-130331081D01*
X59083773Y-130278690D01*
X58951310Y-130146227D01*
X58847235Y-129990467D01*
X58847234Y-129990466D01*
X58775546Y-129817395D01*
X58739000Y-129633667D01*
X58739000Y-129446333D01*
X58775546Y-129262605D01*
X58847234Y-129089534D01*
X58951309Y-128933775D01*
X58951310Y-128933773D01*
X59083773Y-128801310D01*
X59239533Y-128697235D01*
X59239534Y-128697234D01*
X59412605Y-128625546D01*
X59596333Y-128589000D01*
X59783667Y-128589000D01*
X59967395Y-128625546D01*
G37*
G36*
X79017395Y-128625546D02*
G01*
X79190466Y-128697234D01*
X79190467Y-128697235D01*
X79346227Y-128801310D01*
X79478690Y-128933773D01*
X79478691Y-128933775D01*
X79582766Y-129089534D01*
X79654454Y-129262605D01*
X79691000Y-129446333D01*
X79691000Y-129633667D01*
X79654454Y-129817395D01*
X79582766Y-129990466D01*
X79582765Y-129990467D01*
X79478690Y-130146227D01*
X79346227Y-130278690D01*
X79267818Y-130331081D01*
X79190466Y-130382766D01*
X79017395Y-130454454D01*
X78833667Y-130491000D01*
X78646333Y-130491000D01*
X78462605Y-130454454D01*
X78289534Y-130382766D01*
X78212182Y-130331081D01*
X78133773Y-130278690D01*
X78001310Y-130146227D01*
X77897235Y-129990467D01*
X77897234Y-129990466D01*
X77825546Y-129817395D01*
X77789000Y-129633667D01*
X77789000Y-129446333D01*
X77825546Y-129262605D01*
X77897234Y-129089534D01*
X78001309Y-128933775D01*
X78001310Y-128933773D01*
X78133773Y-128801310D01*
X78289533Y-128697235D01*
X78289534Y-128697234D01*
X78462605Y-128625546D01*
X78646333Y-128589000D01*
X78833667Y-128589000D01*
X79017395Y-128625546D01*
G37*
G36*
X72071000Y-130491000D02*
G01*
X70169000Y-130491000D01*
X70169000Y-128589000D01*
X72071000Y-128589000D01*
X72071000Y-130491000D01*
G37*
G36*
X53021000Y-130491000D02*
G01*
X51119000Y-130491000D01*
X51119000Y-128589000D01*
X53021000Y-128589000D01*
X53021000Y-130491000D01*
G37*
G36*
X44698228Y-123641703D02*
G01*
X44853100Y-123705853D01*
X44992481Y-123798985D01*
X45111015Y-123917519D01*
X45204147Y-124056900D01*
X45268297Y-124211772D01*
X45301000Y-124376184D01*
X45301000Y-124543816D01*
X45268297Y-124708228D01*
X45204147Y-124863100D01*
X45111015Y-125002481D01*
X44992481Y-125121015D01*
X44853100Y-125214147D01*
X44698228Y-125278297D01*
X44533816Y-125311000D01*
X44366184Y-125311000D01*
X44201772Y-125278297D01*
X44046900Y-125214147D01*
X43907519Y-125121015D01*
X43788985Y-125002481D01*
X43695853Y-124863100D01*
X43631703Y-124708228D01*
X43599000Y-124543816D01*
X43599000Y-124376184D01*
X43631703Y-124211772D01*
X43695853Y-124056900D01*
X43788985Y-123917519D01*
X43907519Y-123798985D01*
X44046900Y-123705853D01*
X44201772Y-123641703D01*
X44366184Y-123609000D01*
X44533816Y-123609000D01*
X44698228Y-123641703D01*
G37*
G36*
X56478254Y-118677818D02*
G01*
X56851511Y-118832426D01*
X56851513Y-118832427D01*
X57187436Y-119056884D01*
X57473116Y-119342564D01*
X57697574Y-119678489D01*
X57852182Y-120051746D01*
X57931000Y-120447993D01*
X57931000Y-120852007D01*
X57852182Y-121248254D01*
X57697574Y-121621511D01*
X57697573Y-121621513D01*
X57473116Y-121957436D01*
X57187436Y-122243116D01*
X56851513Y-122467573D01*
X56851512Y-122467574D01*
X56851511Y-122467574D01*
X56478254Y-122622182D01*
X56082007Y-122701000D01*
X55677993Y-122701000D01*
X55281746Y-122622182D01*
X54908489Y-122467574D01*
X54908488Y-122467574D01*
X54908487Y-122467573D01*
X54572564Y-122243116D01*
X54286884Y-121957436D01*
X54062427Y-121621513D01*
X54062426Y-121621511D01*
X53907818Y-121248254D01*
X53829000Y-120852007D01*
X53829000Y-120447993D01*
X53907818Y-120051746D01*
X54062426Y-119678489D01*
X54286884Y-119342564D01*
X54572564Y-119056884D01*
X54908487Y-118832427D01*
X54908489Y-118832426D01*
X55281746Y-118677818D01*
X55677993Y-118599000D01*
X56082007Y-118599000D01*
X56478254Y-118677818D01*
G37*
G36*
X75528254Y-118677818D02*
G01*
X75901511Y-118832426D01*
X75901513Y-118832427D01*
X76237436Y-119056884D01*
X76523116Y-119342564D01*
X76747574Y-119678489D01*
X76902182Y-120051746D01*
X76981000Y-120447993D01*
X76981000Y-120852007D01*
X76902182Y-121248254D01*
X76747574Y-121621511D01*
X76747573Y-121621513D01*
X76523116Y-121957436D01*
X76237436Y-122243116D01*
X75901513Y-122467573D01*
X75901512Y-122467574D01*
X75901511Y-122467574D01*
X75528254Y-122622182D01*
X75132007Y-122701000D01*
X74727993Y-122701000D01*
X74331746Y-122622182D01*
X73958489Y-122467574D01*
X73958488Y-122467574D01*
X73958487Y-122467573D01*
X73622564Y-122243116D01*
X73336884Y-121957436D01*
X73112427Y-121621513D01*
X73112426Y-121621511D01*
X72957818Y-121248254D01*
X72879000Y-120852007D01*
X72879000Y-120447993D01*
X72957818Y-120051746D01*
X73112426Y-119678489D01*
X73336884Y-119342564D01*
X73622564Y-119056884D01*
X73958487Y-118832427D01*
X73958489Y-118832426D01*
X74331746Y-118677818D01*
X74727993Y-118599000D01*
X75132007Y-118599000D01*
X75528254Y-118677818D01*
G37*
G36*
X113628254Y-118677818D02*
G01*
X114001511Y-118832426D01*
X114001513Y-118832427D01*
X114337436Y-119056884D01*
X114623116Y-119342564D01*
X114847574Y-119678489D01*
X115002182Y-120051746D01*
X115081000Y-120447993D01*
X115081000Y-120852007D01*
X115002182Y-121248254D01*
X114847574Y-121621511D01*
X114847573Y-121621513D01*
X114623116Y-121957436D01*
X114337436Y-122243116D01*
X114001513Y-122467573D01*
X114001512Y-122467574D01*
X114001511Y-122467574D01*
X113628254Y-122622182D01*
X113232007Y-122701000D01*
X112827993Y-122701000D01*
X112431746Y-122622182D01*
X112058489Y-122467574D01*
X112058488Y-122467574D01*
X112058487Y-122467573D01*
X111722564Y-122243116D01*
X111436884Y-121957436D01*
X111212427Y-121621513D01*
X111212426Y-121621511D01*
X111057818Y-121248254D01*
X110979000Y-120852007D01*
X110979000Y-120447993D01*
X111057818Y-120051746D01*
X111212426Y-119678489D01*
X111436884Y-119342564D01*
X111722564Y-119056884D01*
X112058487Y-118832427D01*
X112058489Y-118832426D01*
X112431746Y-118677818D01*
X112827993Y-118599000D01*
X113232007Y-118599000D01*
X113628254Y-118677818D01*
G37*
G36*
X94578254Y-118677818D02*
G01*
X94951511Y-118832426D01*
X94951513Y-118832427D01*
X95287436Y-119056884D01*
X95573116Y-119342564D01*
X95797574Y-119678489D01*
X95952182Y-120051746D01*
X96031000Y-120447993D01*
X96031000Y-120852007D01*
X95952182Y-121248254D01*
X95797574Y-121621511D01*
X95797573Y-121621513D01*
X95573116Y-121957436D01*
X95287436Y-122243116D01*
X94951513Y-122467573D01*
X94951512Y-122467574D01*
X94951511Y-122467574D01*
X94578254Y-122622182D01*
X94182007Y-122701000D01*
X93777993Y-122701000D01*
X93381746Y-122622182D01*
X93008489Y-122467574D01*
X93008488Y-122467574D01*
X93008487Y-122467573D01*
X92672564Y-122243116D01*
X92386884Y-121957436D01*
X92162427Y-121621513D01*
X92162426Y-121621511D01*
X92007818Y-121248254D01*
X91929000Y-120852007D01*
X91929000Y-120447993D01*
X92007818Y-120051746D01*
X92162426Y-119678489D01*
X92386884Y-119342564D01*
X92672564Y-119056884D01*
X93008487Y-118832427D01*
X93008489Y-118832426D01*
X93381746Y-118677818D01*
X93777993Y-118599000D01*
X94182007Y-118599000D01*
X94578254Y-118677818D01*
G37*
G36*
X89013512Y-119753927D02*
G01*
X89162812Y-119783624D01*
X89326784Y-119851544D01*
X89474354Y-119950147D01*
X89599853Y-120075646D01*
X89698456Y-120223216D01*
X89766376Y-120387188D01*
X89801000Y-120561259D01*
X89801000Y-120738741D01*
X89766376Y-120912812D01*
X89698456Y-121076784D01*
X89599853Y-121224354D01*
X89474354Y-121349853D01*
X89326784Y-121448456D01*
X89162812Y-121516376D01*
X89013512Y-121546073D01*
X88988742Y-121551000D01*
X88811258Y-121551000D01*
X88786488Y-121546073D01*
X88637188Y-121516376D01*
X88473216Y-121448456D01*
X88325646Y-121349853D01*
X88200147Y-121224354D01*
X88101544Y-121076784D01*
X88033624Y-120912812D01*
X87999000Y-120738741D01*
X87999000Y-120561259D01*
X88033624Y-120387188D01*
X88101544Y-120223216D01*
X88200147Y-120075646D01*
X88325646Y-119950147D01*
X88473216Y-119851544D01*
X88637188Y-119783624D01*
X88786488Y-119753927D01*
X88811258Y-119749000D01*
X88988742Y-119749000D01*
X89013512Y-119753927D01*
G37*
G36*
X50913512Y-119753927D02*
G01*
X51062812Y-119783624D01*
X51226784Y-119851544D01*
X51374354Y-119950147D01*
X51499853Y-120075646D01*
X51598456Y-120223216D01*
X51666376Y-120387188D01*
X51701000Y-120561259D01*
X51701000Y-120738741D01*
X51666376Y-120912812D01*
X51598456Y-121076784D01*
X51499853Y-121224354D01*
X51374354Y-121349853D01*
X51226784Y-121448456D01*
X51062812Y-121516376D01*
X50913512Y-121546073D01*
X50888742Y-121551000D01*
X50711258Y-121551000D01*
X50686488Y-121546073D01*
X50537188Y-121516376D01*
X50373216Y-121448456D01*
X50225646Y-121349853D01*
X50100147Y-121224354D01*
X50001544Y-121076784D01*
X49933624Y-120912812D01*
X49899000Y-120738741D01*
X49899000Y-120561259D01*
X49933624Y-120387188D01*
X50001544Y-120223216D01*
X50100147Y-120075646D01*
X50225646Y-119950147D01*
X50373216Y-119851544D01*
X50537188Y-119783624D01*
X50686488Y-119753927D01*
X50711258Y-119749000D01*
X50888742Y-119749000D01*
X50913512Y-119753927D01*
G37*
G36*
X61073512Y-119753927D02*
G01*
X61222812Y-119783624D01*
X61386784Y-119851544D01*
X61534354Y-119950147D01*
X61659853Y-120075646D01*
X61758456Y-120223216D01*
X61826376Y-120387188D01*
X61861000Y-120561259D01*
X61861000Y-120738741D01*
X61826376Y-120912812D01*
X61758456Y-121076784D01*
X61659853Y-121224354D01*
X61534354Y-121349853D01*
X61386784Y-121448456D01*
X61222812Y-121516376D01*
X61073512Y-121546073D01*
X61048742Y-121551000D01*
X60871258Y-121551000D01*
X60846488Y-121546073D01*
X60697188Y-121516376D01*
X60533216Y-121448456D01*
X60385646Y-121349853D01*
X60260147Y-121224354D01*
X60161544Y-121076784D01*
X60093624Y-120912812D01*
X60059000Y-120738741D01*
X60059000Y-120561259D01*
X60093624Y-120387188D01*
X60161544Y-120223216D01*
X60260147Y-120075646D01*
X60385646Y-119950147D01*
X60533216Y-119851544D01*
X60697188Y-119783624D01*
X60846488Y-119753927D01*
X60871258Y-119749000D01*
X61048742Y-119749000D01*
X61073512Y-119753927D01*
G37*
G36*
X69963512Y-119753927D02*
G01*
X70112812Y-119783624D01*
X70276784Y-119851544D01*
X70424354Y-119950147D01*
X70549853Y-120075646D01*
X70648456Y-120223216D01*
X70716376Y-120387188D01*
X70751000Y-120561259D01*
X70751000Y-120738741D01*
X70716376Y-120912812D01*
X70648456Y-121076784D01*
X70549853Y-121224354D01*
X70424354Y-121349853D01*
X70276784Y-121448456D01*
X70112812Y-121516376D01*
X69963512Y-121546073D01*
X69938742Y-121551000D01*
X69761258Y-121551000D01*
X69736488Y-121546073D01*
X69587188Y-121516376D01*
X69423216Y-121448456D01*
X69275646Y-121349853D01*
X69150147Y-121224354D01*
X69051544Y-121076784D01*
X68983624Y-120912812D01*
X68949000Y-120738741D01*
X68949000Y-120561259D01*
X68983624Y-120387188D01*
X69051544Y-120223216D01*
X69150147Y-120075646D01*
X69275646Y-119950147D01*
X69423216Y-119851544D01*
X69587188Y-119783624D01*
X69736488Y-119753927D01*
X69761258Y-119749000D01*
X69938742Y-119749000D01*
X69963512Y-119753927D01*
G37*
G36*
X80123512Y-119753927D02*
G01*
X80272812Y-119783624D01*
X80436784Y-119851544D01*
X80584354Y-119950147D01*
X80709853Y-120075646D01*
X80808456Y-120223216D01*
X80876376Y-120387188D01*
X80911000Y-120561259D01*
X80911000Y-120738741D01*
X80876376Y-120912812D01*
X80808456Y-121076784D01*
X80709853Y-121224354D01*
X80584354Y-121349853D01*
X80436784Y-121448456D01*
X80272812Y-121516376D01*
X80123512Y-121546073D01*
X80098742Y-121551000D01*
X79921258Y-121551000D01*
X79896488Y-121546073D01*
X79747188Y-121516376D01*
X79583216Y-121448456D01*
X79435646Y-121349853D01*
X79310147Y-121224354D01*
X79211544Y-121076784D01*
X79143624Y-120912812D01*
X79109000Y-120738741D01*
X79109000Y-120561259D01*
X79143624Y-120387188D01*
X79211544Y-120223216D01*
X79310147Y-120075646D01*
X79435646Y-119950147D01*
X79583216Y-119851544D01*
X79747188Y-119783624D01*
X79896488Y-119753927D01*
X79921258Y-119749000D01*
X80098742Y-119749000D01*
X80123512Y-119753927D01*
G37*
G36*
X99173512Y-119753927D02*
G01*
X99322812Y-119783624D01*
X99486784Y-119851544D01*
X99634354Y-119950147D01*
X99759853Y-120075646D01*
X99858456Y-120223216D01*
X99926376Y-120387188D01*
X99961000Y-120561259D01*
X99961000Y-120738741D01*
X99926376Y-120912812D01*
X99858456Y-121076784D01*
X99759853Y-121224354D01*
X99634354Y-121349853D01*
X99486784Y-121448456D01*
X99322812Y-121516376D01*
X99173512Y-121546073D01*
X99148742Y-121551000D01*
X98971258Y-121551000D01*
X98946488Y-121546073D01*
X98797188Y-121516376D01*
X98633216Y-121448456D01*
X98485646Y-121349853D01*
X98360147Y-121224354D01*
X98261544Y-121076784D01*
X98193624Y-120912812D01*
X98159000Y-120738741D01*
X98159000Y-120561259D01*
X98193624Y-120387188D01*
X98261544Y-120223216D01*
X98360147Y-120075646D01*
X98485646Y-119950147D01*
X98633216Y-119851544D01*
X98797188Y-119783624D01*
X98946488Y-119753927D01*
X98971258Y-119749000D01*
X99148742Y-119749000D01*
X99173512Y-119753927D01*
G37*
G36*
X108063512Y-119753927D02*
G01*
X108212812Y-119783624D01*
X108376784Y-119851544D01*
X108524354Y-119950147D01*
X108649853Y-120075646D01*
X108748456Y-120223216D01*
X108816376Y-120387188D01*
X108851000Y-120561259D01*
X108851000Y-120738741D01*
X108816376Y-120912812D01*
X108748456Y-121076784D01*
X108649853Y-121224354D01*
X108524354Y-121349853D01*
X108376784Y-121448456D01*
X108212812Y-121516376D01*
X108063512Y-121546073D01*
X108038742Y-121551000D01*
X107861258Y-121551000D01*
X107836488Y-121546073D01*
X107687188Y-121516376D01*
X107523216Y-121448456D01*
X107375646Y-121349853D01*
X107250147Y-121224354D01*
X107151544Y-121076784D01*
X107083624Y-120912812D01*
X107049000Y-120738741D01*
X107049000Y-120561259D01*
X107083624Y-120387188D01*
X107151544Y-120223216D01*
X107250147Y-120075646D01*
X107375646Y-119950147D01*
X107523216Y-119851544D01*
X107687188Y-119783624D01*
X107836488Y-119753927D01*
X107861258Y-119749000D01*
X108038742Y-119749000D01*
X108063512Y-119753927D01*
G37*
G36*
X118223512Y-119753927D02*
G01*
X118372812Y-119783624D01*
X118536784Y-119851544D01*
X118684354Y-119950147D01*
X118809853Y-120075646D01*
X118908456Y-120223216D01*
X118976376Y-120387188D01*
X119011000Y-120561259D01*
X119011000Y-120738741D01*
X118976376Y-120912812D01*
X118908456Y-121076784D01*
X118809853Y-121224354D01*
X118684354Y-121349853D01*
X118536784Y-121448456D01*
X118372812Y-121516376D01*
X118223512Y-121546073D01*
X118198742Y-121551000D01*
X118021258Y-121551000D01*
X117996488Y-121546073D01*
X117847188Y-121516376D01*
X117683216Y-121448456D01*
X117535646Y-121349853D01*
X117410147Y-121224354D01*
X117311544Y-121076784D01*
X117243624Y-120912812D01*
X117209000Y-120738741D01*
X117209000Y-120561259D01*
X117243624Y-120387188D01*
X117311544Y-120223216D01*
X117410147Y-120075646D01*
X117535646Y-119950147D01*
X117683216Y-119851544D01*
X117847188Y-119783624D01*
X117996488Y-119753927D01*
X118021258Y-119749000D01*
X118198742Y-119749000D01*
X118223512Y-119753927D01*
G37*
G36*
X90394549Y-116981116D02*
G01*
X90505734Y-117003232D01*
X90653850Y-117064584D01*
X90710933Y-117088228D01*
X90715203Y-117089997D01*
X90903720Y-117215960D01*
X91064040Y-117376280D01*
X91190003Y-117564797D01*
X91276768Y-117774266D01*
X91321000Y-117996636D01*
X91321000Y-118223364D01*
X91276768Y-118445734D01*
X91190003Y-118655203D01*
X91064040Y-118843720D01*
X90903720Y-119004040D01*
X90715203Y-119130003D01*
X90505734Y-119216768D01*
X90394549Y-119238884D01*
X90283365Y-119261000D01*
X90056635Y-119261000D01*
X89945451Y-119238884D01*
X89834266Y-119216768D01*
X89624797Y-119130003D01*
X89436280Y-119004040D01*
X89275960Y-118843720D01*
X89149997Y-118655203D01*
X89063232Y-118445734D01*
X89019000Y-118223364D01*
X89019000Y-117996636D01*
X89063232Y-117774266D01*
X89149997Y-117564797D01*
X89275960Y-117376280D01*
X89436280Y-117215960D01*
X89624797Y-117089997D01*
X89629068Y-117088228D01*
X89686150Y-117064584D01*
X89834266Y-117003232D01*
X89945451Y-116981116D01*
X90056635Y-116959000D01*
X90283365Y-116959000D01*
X90394549Y-116981116D01*
G37*
G36*
X109444549Y-116981116D02*
G01*
X109555734Y-117003232D01*
X109703850Y-117064584D01*
X109760933Y-117088228D01*
X109765203Y-117089997D01*
X109953720Y-117215960D01*
X110114040Y-117376280D01*
X110240003Y-117564797D01*
X110326768Y-117774266D01*
X110371000Y-117996636D01*
X110371000Y-118223364D01*
X110326768Y-118445734D01*
X110240003Y-118655203D01*
X110114040Y-118843720D01*
X109953720Y-119004040D01*
X109765203Y-119130003D01*
X109555734Y-119216768D01*
X109444549Y-119238884D01*
X109333365Y-119261000D01*
X109106635Y-119261000D01*
X108995451Y-119238884D01*
X108884266Y-119216768D01*
X108674797Y-119130003D01*
X108486280Y-119004040D01*
X108325960Y-118843720D01*
X108199997Y-118655203D01*
X108113232Y-118445734D01*
X108069000Y-118223364D01*
X108069000Y-117996636D01*
X108113232Y-117774266D01*
X108199997Y-117564797D01*
X108325960Y-117376280D01*
X108486280Y-117215960D01*
X108674797Y-117089997D01*
X108679068Y-117088228D01*
X108736150Y-117064584D01*
X108884266Y-117003232D01*
X108995451Y-116981116D01*
X109106635Y-116959000D01*
X109333365Y-116959000D01*
X109444549Y-116981116D01*
G37*
G36*
X71344549Y-116981116D02*
G01*
X71455734Y-117003232D01*
X71603850Y-117064584D01*
X71660933Y-117088228D01*
X71665203Y-117089997D01*
X71853720Y-117215960D01*
X72014040Y-117376280D01*
X72140003Y-117564797D01*
X72226768Y-117774266D01*
X72271000Y-117996636D01*
X72271000Y-118223364D01*
X72226768Y-118445734D01*
X72140003Y-118655203D01*
X72014040Y-118843720D01*
X71853720Y-119004040D01*
X71665203Y-119130003D01*
X71455734Y-119216768D01*
X71344549Y-119238884D01*
X71233365Y-119261000D01*
X71006635Y-119261000D01*
X70895451Y-119238884D01*
X70784266Y-119216768D01*
X70574797Y-119130003D01*
X70386280Y-119004040D01*
X70225960Y-118843720D01*
X70099997Y-118655203D01*
X70013232Y-118445734D01*
X69969000Y-118223364D01*
X69969000Y-117996636D01*
X70013232Y-117774266D01*
X70099997Y-117564797D01*
X70225960Y-117376280D01*
X70386280Y-117215960D01*
X70574797Y-117089997D01*
X70579068Y-117088228D01*
X70636150Y-117064584D01*
X70784266Y-117003232D01*
X70895451Y-116981116D01*
X71006635Y-116959000D01*
X71233365Y-116959000D01*
X71344549Y-116981116D01*
G37*
G36*
X52294549Y-116981116D02*
G01*
X52405734Y-117003232D01*
X52553850Y-117064584D01*
X52610933Y-117088228D01*
X52615203Y-117089997D01*
X52803720Y-117215960D01*
X52964040Y-117376280D01*
X53090003Y-117564797D01*
X53176768Y-117774266D01*
X53221000Y-117996636D01*
X53221000Y-118223364D01*
X53176768Y-118445734D01*
X53090003Y-118655203D01*
X52964040Y-118843720D01*
X52803720Y-119004040D01*
X52615203Y-119130003D01*
X52405734Y-119216768D01*
X52294549Y-119238884D01*
X52183365Y-119261000D01*
X51956635Y-119261000D01*
X51845451Y-119238884D01*
X51734266Y-119216768D01*
X51524797Y-119130003D01*
X51336280Y-119004040D01*
X51175960Y-118843720D01*
X51049997Y-118655203D01*
X50963232Y-118445734D01*
X50919000Y-118223364D01*
X50919000Y-117996636D01*
X50963232Y-117774266D01*
X51049997Y-117564797D01*
X51175960Y-117376280D01*
X51336280Y-117215960D01*
X51524797Y-117089997D01*
X51529068Y-117088228D01*
X51586150Y-117064584D01*
X51734266Y-117003232D01*
X51845451Y-116981116D01*
X51956635Y-116959000D01*
X52183365Y-116959000D01*
X52294549Y-116981116D01*
G37*
G36*
X44698228Y-116021703D02*
G01*
X44853100Y-116085853D01*
X44992481Y-116178985D01*
X45111015Y-116297519D01*
X45204147Y-116436900D01*
X45268297Y-116591772D01*
X45301000Y-116756184D01*
X45301000Y-116923816D01*
X45268297Y-117088228D01*
X45204147Y-117243100D01*
X45111015Y-117382481D01*
X44992481Y-117501015D01*
X44853100Y-117594147D01*
X44698228Y-117658297D01*
X44533816Y-117691000D01*
X44366184Y-117691000D01*
X44201772Y-117658297D01*
X44046900Y-117594147D01*
X43907519Y-117501015D01*
X43788985Y-117382481D01*
X43695853Y-117243100D01*
X43631703Y-117088228D01*
X43599000Y-116923816D01*
X43599000Y-116756184D01*
X43631703Y-116591772D01*
X43695853Y-116436900D01*
X43788985Y-116297519D01*
X43907519Y-116178985D01*
X44046900Y-116085853D01*
X44201772Y-116021703D01*
X44366184Y-115989000D01*
X44533816Y-115989000D01*
X44698228Y-116021703D01*
G37*
G36*
X77694549Y-114441116D02*
G01*
X77805734Y-114463232D01*
X78015203Y-114549997D01*
X78203720Y-114675960D01*
X78364040Y-114836280D01*
X78490003Y-115024797D01*
X78576768Y-115234266D01*
X78621000Y-115456636D01*
X78621000Y-115683364D01*
X78576768Y-115905734D01*
X78490003Y-116115203D01*
X78364040Y-116303720D01*
X78203720Y-116464040D01*
X78015203Y-116590003D01*
X78015202Y-116590004D01*
X78015201Y-116590004D01*
X77953850Y-116615416D01*
X77805734Y-116676768D01*
X77694549Y-116698884D01*
X77583365Y-116721000D01*
X77356635Y-116721000D01*
X77245451Y-116698884D01*
X77134266Y-116676768D01*
X76986150Y-116615416D01*
X76924799Y-116590004D01*
X76924798Y-116590004D01*
X76924797Y-116590003D01*
X76736280Y-116464040D01*
X76575960Y-116303720D01*
X76449997Y-116115203D01*
X76363232Y-115905734D01*
X76319000Y-115683364D01*
X76319000Y-115456636D01*
X76363232Y-115234266D01*
X76449997Y-115024797D01*
X76575960Y-114836280D01*
X76736280Y-114675960D01*
X76924797Y-114549997D01*
X77134266Y-114463232D01*
X77245451Y-114441116D01*
X77356635Y-114419000D01*
X77583365Y-114419000D01*
X77694549Y-114441116D01*
G37*
G36*
X96744549Y-114441116D02*
G01*
X96855734Y-114463232D01*
X97065203Y-114549997D01*
X97253720Y-114675960D01*
X97414040Y-114836280D01*
X97540003Y-115024797D01*
X97626768Y-115234266D01*
X97671000Y-115456636D01*
X97671000Y-115683364D01*
X97626768Y-115905734D01*
X97540003Y-116115203D01*
X97414040Y-116303720D01*
X97253720Y-116464040D01*
X97065203Y-116590003D01*
X97065202Y-116590004D01*
X97065201Y-116590004D01*
X97003850Y-116615416D01*
X96855734Y-116676768D01*
X96744549Y-116698884D01*
X96633365Y-116721000D01*
X96406635Y-116721000D01*
X96295451Y-116698884D01*
X96184266Y-116676768D01*
X96036150Y-116615416D01*
X95974799Y-116590004D01*
X95974798Y-116590004D01*
X95974797Y-116590003D01*
X95786280Y-116464040D01*
X95625960Y-116303720D01*
X95499997Y-116115203D01*
X95413232Y-115905734D01*
X95369000Y-115683364D01*
X95369000Y-115456636D01*
X95413232Y-115234266D01*
X95499997Y-115024797D01*
X95625960Y-114836280D01*
X95786280Y-114675960D01*
X95974797Y-114549997D01*
X96184266Y-114463232D01*
X96295451Y-114441116D01*
X96406635Y-114419000D01*
X96633365Y-114419000D01*
X96744549Y-114441116D01*
G37*
G36*
X115794549Y-114441116D02*
G01*
X115905734Y-114463232D01*
X116115203Y-114549997D01*
X116303720Y-114675960D01*
X116464040Y-114836280D01*
X116590003Y-115024797D01*
X116676768Y-115234266D01*
X116721000Y-115456636D01*
X116721000Y-115683364D01*
X116676768Y-115905734D01*
X116590003Y-116115203D01*
X116464040Y-116303720D01*
X116303720Y-116464040D01*
X116115203Y-116590003D01*
X116115202Y-116590004D01*
X116115201Y-116590004D01*
X116053850Y-116615416D01*
X115905734Y-116676768D01*
X115794549Y-116698884D01*
X115683365Y-116721000D01*
X115456635Y-116721000D01*
X115345451Y-116698884D01*
X115234266Y-116676768D01*
X115086150Y-116615416D01*
X115024799Y-116590004D01*
X115024798Y-116590004D01*
X115024797Y-116590003D01*
X114836280Y-116464040D01*
X114675960Y-116303720D01*
X114549997Y-116115203D01*
X114463232Y-115905734D01*
X114419000Y-115683364D01*
X114419000Y-115456636D01*
X114463232Y-115234266D01*
X114549997Y-115024797D01*
X114675960Y-114836280D01*
X114836280Y-114675960D01*
X115024797Y-114549997D01*
X115234266Y-114463232D01*
X115345451Y-114441116D01*
X115456635Y-114419000D01*
X115683365Y-114419000D01*
X115794549Y-114441116D01*
G37*
G36*
X58644549Y-114441116D02*
G01*
X58755734Y-114463232D01*
X58965203Y-114549997D01*
X59153720Y-114675960D01*
X59314040Y-114836280D01*
X59440003Y-115024797D01*
X59526768Y-115234266D01*
X59571000Y-115456636D01*
X59571000Y-115683364D01*
X59526768Y-115905734D01*
X59440003Y-116115203D01*
X59314040Y-116303720D01*
X59153720Y-116464040D01*
X58965203Y-116590003D01*
X58965202Y-116590004D01*
X58965201Y-116590004D01*
X58903850Y-116615416D01*
X58755734Y-116676768D01*
X58644549Y-116698884D01*
X58533365Y-116721000D01*
X58306635Y-116721000D01*
X58195451Y-116698884D01*
X58084266Y-116676768D01*
X57936150Y-116615416D01*
X57874799Y-116590004D01*
X57874798Y-116590004D01*
X57874797Y-116590003D01*
X57686280Y-116464040D01*
X57525960Y-116303720D01*
X57399997Y-116115203D01*
X57313232Y-115905734D01*
X57269000Y-115683364D01*
X57269000Y-115456636D01*
X57313232Y-115234266D01*
X57399997Y-115024797D01*
X57525960Y-114836280D01*
X57686280Y-114675960D01*
X57874797Y-114549997D01*
X58084266Y-114463232D01*
X58195451Y-114441116D01*
X58306635Y-114419000D01*
X58533365Y-114419000D01*
X58644549Y-114441116D01*
G37*
G36*
X117117395Y-109575546D02*
G01*
X117290466Y-109647234D01*
X117290467Y-109647235D01*
X117446227Y-109751310D01*
X117578690Y-109883773D01*
X117578691Y-109883775D01*
X117682766Y-110039534D01*
X117754454Y-110212605D01*
X117791000Y-110396333D01*
X117791000Y-110583667D01*
X117754454Y-110767395D01*
X117682766Y-110940466D01*
X117682765Y-110940467D01*
X117578690Y-111096227D01*
X117446227Y-111228690D01*
X117367818Y-111281081D01*
X117290466Y-111332766D01*
X117117395Y-111404454D01*
X116933667Y-111441000D01*
X116746333Y-111441000D01*
X116562605Y-111404454D01*
X116389534Y-111332766D01*
X116312182Y-111281081D01*
X116233773Y-111228690D01*
X116101310Y-111096227D01*
X115997235Y-110940467D01*
X115997234Y-110940466D01*
X115925546Y-110767395D01*
X115889000Y-110583667D01*
X115889000Y-110396333D01*
X115925546Y-110212605D01*
X115997234Y-110039534D01*
X116101309Y-109883775D01*
X116101310Y-109883773D01*
X116233773Y-109751310D01*
X116389533Y-109647235D01*
X116389534Y-109647234D01*
X116562605Y-109575546D01*
X116746333Y-109539000D01*
X116933667Y-109539000D01*
X117117395Y-109575546D01*
G37*
G36*
X53021000Y-111441000D02*
G01*
X51119000Y-111441000D01*
X51119000Y-109539000D01*
X53021000Y-109539000D01*
X53021000Y-111441000D01*
G37*
G36*
X59967395Y-109575546D02*
G01*
X60140466Y-109647234D01*
X60140467Y-109647235D01*
X60296227Y-109751310D01*
X60428690Y-109883773D01*
X60428691Y-109883775D01*
X60532766Y-110039534D01*
X60604454Y-110212605D01*
X60641000Y-110396333D01*
X60641000Y-110583667D01*
X60604454Y-110767395D01*
X60532766Y-110940466D01*
X60532765Y-110940467D01*
X60428690Y-111096227D01*
X60296227Y-111228690D01*
X60217818Y-111281081D01*
X60140466Y-111332766D01*
X59967395Y-111404454D01*
X59783667Y-111441000D01*
X59596333Y-111441000D01*
X59412605Y-111404454D01*
X59239534Y-111332766D01*
X59162182Y-111281081D01*
X59083773Y-111228690D01*
X58951310Y-111096227D01*
X58847235Y-110940467D01*
X58847234Y-110940466D01*
X58775546Y-110767395D01*
X58739000Y-110583667D01*
X58739000Y-110396333D01*
X58775546Y-110212605D01*
X58847234Y-110039534D01*
X58951309Y-109883775D01*
X58951310Y-109883773D01*
X59083773Y-109751310D01*
X59239533Y-109647235D01*
X59239534Y-109647234D01*
X59412605Y-109575546D01*
X59596333Y-109539000D01*
X59783667Y-109539000D01*
X59967395Y-109575546D01*
G37*
G36*
X110171000Y-111441000D02*
G01*
X108269000Y-111441000D01*
X108269000Y-109539000D01*
X110171000Y-109539000D01*
X110171000Y-111441000D01*
G37*
G36*
X91121000Y-111441000D02*
G01*
X89219000Y-111441000D01*
X89219000Y-109539000D01*
X91121000Y-109539000D01*
X91121000Y-111441000D01*
G37*
G36*
X98067395Y-109575546D02*
G01*
X98240466Y-109647234D01*
X98240467Y-109647235D01*
X98396227Y-109751310D01*
X98528690Y-109883773D01*
X98528691Y-109883775D01*
X98632766Y-110039534D01*
X98704454Y-110212605D01*
X98741000Y-110396333D01*
X98741000Y-110583667D01*
X98704454Y-110767395D01*
X98632766Y-110940466D01*
X98632765Y-110940467D01*
X98528690Y-111096227D01*
X98396227Y-111228690D01*
X98317818Y-111281081D01*
X98240466Y-111332766D01*
X98067395Y-111404454D01*
X97883667Y-111441000D01*
X97696333Y-111441000D01*
X97512605Y-111404454D01*
X97339534Y-111332766D01*
X97262182Y-111281081D01*
X97183773Y-111228690D01*
X97051310Y-111096227D01*
X96947235Y-110940467D01*
X96947234Y-110940466D01*
X96875546Y-110767395D01*
X96839000Y-110583667D01*
X96839000Y-110396333D01*
X96875546Y-110212605D01*
X96947234Y-110039534D01*
X97051309Y-109883775D01*
X97051310Y-109883773D01*
X97183773Y-109751310D01*
X97339533Y-109647235D01*
X97339534Y-109647234D01*
X97512605Y-109575546D01*
X97696333Y-109539000D01*
X97883667Y-109539000D01*
X98067395Y-109575546D01*
G37*
G36*
X72071000Y-111441000D02*
G01*
X70169000Y-111441000D01*
X70169000Y-109539000D01*
X72071000Y-109539000D01*
X72071000Y-111441000D01*
G37*
G36*
X79017395Y-109575546D02*
G01*
X79190466Y-109647234D01*
X79190467Y-109647235D01*
X79346227Y-109751310D01*
X79478690Y-109883773D01*
X79478691Y-109883775D01*
X79582766Y-110039534D01*
X79654454Y-110212605D01*
X79691000Y-110396333D01*
X79691000Y-110583667D01*
X79654454Y-110767395D01*
X79582766Y-110940466D01*
X79582765Y-110940467D01*
X79478690Y-111096227D01*
X79346227Y-111228690D01*
X79267818Y-111281081D01*
X79190466Y-111332766D01*
X79017395Y-111404454D01*
X78833667Y-111441000D01*
X78646333Y-111441000D01*
X78462605Y-111404454D01*
X78289534Y-111332766D01*
X78212182Y-111281081D01*
X78133773Y-111228690D01*
X78001310Y-111096227D01*
X77897235Y-110940467D01*
X77897234Y-110940466D01*
X77825546Y-110767395D01*
X77789000Y-110583667D01*
X77789000Y-110396333D01*
X77825546Y-110212605D01*
X77897234Y-110039534D01*
X78001309Y-109883775D01*
X78001310Y-109883773D01*
X78133773Y-109751310D01*
X78289533Y-109647235D01*
X78289534Y-109647234D01*
X78462605Y-109575546D01*
X78646333Y-109539000D01*
X78833667Y-109539000D01*
X79017395Y-109575546D01*
G37*
G36*
X44698228Y-104591703D02*
G01*
X44853100Y-104655853D01*
X44992481Y-104748985D01*
X45111015Y-104867519D01*
X45204147Y-105006900D01*
X45268297Y-105161772D01*
X45301000Y-105326184D01*
X45301000Y-105493816D01*
X45268297Y-105658228D01*
X45204147Y-105813100D01*
X45111015Y-105952481D01*
X44992481Y-106071015D01*
X44853100Y-106164147D01*
X44698228Y-106228297D01*
X44533816Y-106261000D01*
X44366184Y-106261000D01*
X44201772Y-106228297D01*
X44046900Y-106164147D01*
X43907519Y-106071015D01*
X43788985Y-105952481D01*
X43695853Y-105813100D01*
X43631703Y-105658228D01*
X43599000Y-105493816D01*
X43599000Y-105326184D01*
X43631703Y-105161772D01*
X43695853Y-105006900D01*
X43788985Y-104867519D01*
X43907519Y-104748985D01*
X44046900Y-104655853D01*
X44201772Y-104591703D01*
X44366184Y-104559000D01*
X44533816Y-104559000D01*
X44698228Y-104591703D01*
G37*
G36*
X56478254Y-99627818D02*
G01*
X56851511Y-99782426D01*
X56851513Y-99782427D01*
X57187436Y-100006884D01*
X57473116Y-100292564D01*
X57697574Y-100628489D01*
X57852182Y-101001746D01*
X57931000Y-101397993D01*
X57931000Y-101802007D01*
X57852182Y-102198254D01*
X57697574Y-102571511D01*
X57697573Y-102571513D01*
X57473116Y-102907436D01*
X57187436Y-103193116D01*
X56851513Y-103417573D01*
X56851512Y-103417574D01*
X56851511Y-103417574D01*
X56478254Y-103572182D01*
X56082007Y-103651000D01*
X55677993Y-103651000D01*
X55281746Y-103572182D01*
X54908489Y-103417574D01*
X54908488Y-103417574D01*
X54908487Y-103417573D01*
X54572564Y-103193116D01*
X54286884Y-102907436D01*
X54062427Y-102571513D01*
X54062426Y-102571511D01*
X53907818Y-102198254D01*
X53829000Y-101802007D01*
X53829000Y-101397993D01*
X53907818Y-101001746D01*
X54062426Y-100628489D01*
X54286884Y-100292564D01*
X54572564Y-100006884D01*
X54908487Y-99782427D01*
X54908489Y-99782426D01*
X55281746Y-99627818D01*
X55677993Y-99549000D01*
X56082007Y-99549000D01*
X56478254Y-99627818D01*
G37*
G36*
X75528254Y-99627818D02*
G01*
X75901511Y-99782426D01*
X75901513Y-99782427D01*
X76237436Y-100006884D01*
X76523116Y-100292564D01*
X76747574Y-100628489D01*
X76902182Y-101001746D01*
X76981000Y-101397993D01*
X76981000Y-101802007D01*
X76902182Y-102198254D01*
X76747574Y-102571511D01*
X76747573Y-102571513D01*
X76523116Y-102907436D01*
X76237436Y-103193116D01*
X75901513Y-103417573D01*
X75901512Y-103417574D01*
X75901511Y-103417574D01*
X75528254Y-103572182D01*
X75132007Y-103651000D01*
X74727993Y-103651000D01*
X74331746Y-103572182D01*
X73958489Y-103417574D01*
X73958488Y-103417574D01*
X73958487Y-103417573D01*
X73622564Y-103193116D01*
X73336884Y-102907436D01*
X73112427Y-102571513D01*
X73112426Y-102571511D01*
X72957818Y-102198254D01*
X72879000Y-101802007D01*
X72879000Y-101397993D01*
X72957818Y-101001746D01*
X73112426Y-100628489D01*
X73336884Y-100292564D01*
X73622564Y-100006884D01*
X73958487Y-99782427D01*
X73958489Y-99782426D01*
X74331746Y-99627818D01*
X74727993Y-99549000D01*
X75132007Y-99549000D01*
X75528254Y-99627818D01*
G37*
G36*
X94578254Y-99627818D02*
G01*
X94951511Y-99782426D01*
X94951513Y-99782427D01*
X95287436Y-100006884D01*
X95573116Y-100292564D01*
X95797574Y-100628489D01*
X95952182Y-101001746D01*
X96031000Y-101397993D01*
X96031000Y-101802007D01*
X95952182Y-102198254D01*
X95797574Y-102571511D01*
X95797573Y-102571513D01*
X95573116Y-102907436D01*
X95287436Y-103193116D01*
X94951513Y-103417573D01*
X94951512Y-103417574D01*
X94951511Y-103417574D01*
X94578254Y-103572182D01*
X94182007Y-103651000D01*
X93777993Y-103651000D01*
X93381746Y-103572182D01*
X93008489Y-103417574D01*
X93008488Y-103417574D01*
X93008487Y-103417573D01*
X92672564Y-103193116D01*
X92386884Y-102907436D01*
X92162427Y-102571513D01*
X92162426Y-102571511D01*
X92007818Y-102198254D01*
X91929000Y-101802007D01*
X91929000Y-101397993D01*
X92007818Y-101001746D01*
X92162426Y-100628489D01*
X92386884Y-100292564D01*
X92672564Y-100006884D01*
X93008487Y-99782427D01*
X93008489Y-99782426D01*
X93381746Y-99627818D01*
X93777993Y-99549000D01*
X94182007Y-99549000D01*
X94578254Y-99627818D01*
G37*
G36*
X113628254Y-99627818D02*
G01*
X114001511Y-99782426D01*
X114001513Y-99782427D01*
X114337436Y-100006884D01*
X114623116Y-100292564D01*
X114847574Y-100628489D01*
X115002182Y-101001746D01*
X115081000Y-101397993D01*
X115081000Y-101802007D01*
X115002182Y-102198254D01*
X114847574Y-102571511D01*
X114847573Y-102571513D01*
X114623116Y-102907436D01*
X114337436Y-103193116D01*
X114001513Y-103417573D01*
X114001512Y-103417574D01*
X114001511Y-103417574D01*
X113628254Y-103572182D01*
X113232007Y-103651000D01*
X112827993Y-103651000D01*
X112431746Y-103572182D01*
X112058489Y-103417574D01*
X112058488Y-103417574D01*
X112058487Y-103417573D01*
X111722564Y-103193116D01*
X111436884Y-102907436D01*
X111212427Y-102571513D01*
X111212426Y-102571511D01*
X111057818Y-102198254D01*
X110979000Y-101802007D01*
X110979000Y-101397993D01*
X111057818Y-101001746D01*
X111212426Y-100628489D01*
X111436884Y-100292564D01*
X111722564Y-100006884D01*
X112058487Y-99782427D01*
X112058489Y-99782426D01*
X112431746Y-99627818D01*
X112827993Y-99549000D01*
X113232007Y-99549000D01*
X113628254Y-99627818D01*
G37*
G36*
X61073512Y-100703927D02*
G01*
X61222812Y-100733624D01*
X61386784Y-100801544D01*
X61534354Y-100900147D01*
X61659853Y-101025646D01*
X61758456Y-101173216D01*
X61826376Y-101337188D01*
X61861000Y-101511259D01*
X61861000Y-101688741D01*
X61826376Y-101862812D01*
X61758456Y-102026784D01*
X61659853Y-102174354D01*
X61534354Y-102299853D01*
X61386784Y-102398456D01*
X61222812Y-102466376D01*
X61073512Y-102496073D01*
X61048742Y-102501000D01*
X60871258Y-102501000D01*
X60846488Y-102496073D01*
X60697188Y-102466376D01*
X60533216Y-102398456D01*
X60385646Y-102299853D01*
X60260147Y-102174354D01*
X60161544Y-102026784D01*
X60093624Y-101862812D01*
X60059000Y-101688741D01*
X60059000Y-101511259D01*
X60093624Y-101337188D01*
X60161544Y-101173216D01*
X60260147Y-101025646D01*
X60385646Y-100900147D01*
X60533216Y-100801544D01*
X60697188Y-100733624D01*
X60846488Y-100703927D01*
X60871258Y-100699000D01*
X61048742Y-100699000D01*
X61073512Y-100703927D01*
G37*
G36*
X69963512Y-100703927D02*
G01*
X70112812Y-100733624D01*
X70276784Y-100801544D01*
X70424354Y-100900147D01*
X70549853Y-101025646D01*
X70648456Y-101173216D01*
X70716376Y-101337188D01*
X70751000Y-101511259D01*
X70751000Y-101688741D01*
X70716376Y-101862812D01*
X70648456Y-102026784D01*
X70549853Y-102174354D01*
X70424354Y-102299853D01*
X70276784Y-102398456D01*
X70112812Y-102466376D01*
X69963512Y-102496073D01*
X69938742Y-102501000D01*
X69761258Y-102501000D01*
X69736488Y-102496073D01*
X69587188Y-102466376D01*
X69423216Y-102398456D01*
X69275646Y-102299853D01*
X69150147Y-102174354D01*
X69051544Y-102026784D01*
X68983624Y-101862812D01*
X68949000Y-101688741D01*
X68949000Y-101511259D01*
X68983624Y-101337188D01*
X69051544Y-101173216D01*
X69150147Y-101025646D01*
X69275646Y-100900147D01*
X69423216Y-100801544D01*
X69587188Y-100733624D01*
X69736488Y-100703927D01*
X69761258Y-100699000D01*
X69938742Y-100699000D01*
X69963512Y-100703927D01*
G37*
G36*
X80123512Y-100703927D02*
G01*
X80272812Y-100733624D01*
X80436784Y-100801544D01*
X80584354Y-100900147D01*
X80709853Y-101025646D01*
X80808456Y-101173216D01*
X80876376Y-101337188D01*
X80911000Y-101511259D01*
X80911000Y-101688741D01*
X80876376Y-101862812D01*
X80808456Y-102026784D01*
X80709853Y-102174354D01*
X80584354Y-102299853D01*
X80436784Y-102398456D01*
X80272812Y-102466376D01*
X80123512Y-102496073D01*
X80098742Y-102501000D01*
X79921258Y-102501000D01*
X79896488Y-102496073D01*
X79747188Y-102466376D01*
X79583216Y-102398456D01*
X79435646Y-102299853D01*
X79310147Y-102174354D01*
X79211544Y-102026784D01*
X79143624Y-101862812D01*
X79109000Y-101688741D01*
X79109000Y-101511259D01*
X79143624Y-101337188D01*
X79211544Y-101173216D01*
X79310147Y-101025646D01*
X79435646Y-100900147D01*
X79583216Y-100801544D01*
X79747188Y-100733624D01*
X79896488Y-100703927D01*
X79921258Y-100699000D01*
X80098742Y-100699000D01*
X80123512Y-100703927D01*
G37*
G36*
X89013512Y-100703927D02*
G01*
X89162812Y-100733624D01*
X89326784Y-100801544D01*
X89474354Y-100900147D01*
X89599853Y-101025646D01*
X89698456Y-101173216D01*
X89766376Y-101337188D01*
X89801000Y-101511259D01*
X89801000Y-101688741D01*
X89766376Y-101862812D01*
X89698456Y-102026784D01*
X89599853Y-102174354D01*
X89474354Y-102299853D01*
X89326784Y-102398456D01*
X89162812Y-102466376D01*
X89013512Y-102496073D01*
X88988742Y-102501000D01*
X88811258Y-102501000D01*
X88786488Y-102496073D01*
X88637188Y-102466376D01*
X88473216Y-102398456D01*
X88325646Y-102299853D01*
X88200147Y-102174354D01*
X88101544Y-102026784D01*
X88033624Y-101862812D01*
X87999000Y-101688741D01*
X87999000Y-101511259D01*
X88033624Y-101337188D01*
X88101544Y-101173216D01*
X88200147Y-101025646D01*
X88325646Y-100900147D01*
X88473216Y-100801544D01*
X88637188Y-100733624D01*
X88786488Y-100703927D01*
X88811258Y-100699000D01*
X88988742Y-100699000D01*
X89013512Y-100703927D01*
G37*
G36*
X108063512Y-100703927D02*
G01*
X108212812Y-100733624D01*
X108376784Y-100801544D01*
X108524354Y-100900147D01*
X108649853Y-101025646D01*
X108748456Y-101173216D01*
X108816376Y-101337188D01*
X108851000Y-101511259D01*
X108851000Y-101688741D01*
X108816376Y-101862812D01*
X108748456Y-102026784D01*
X108649853Y-102174354D01*
X108524354Y-102299853D01*
X108376784Y-102398456D01*
X108212812Y-102466376D01*
X108063512Y-102496073D01*
X108038742Y-102501000D01*
X107861258Y-102501000D01*
X107836488Y-102496073D01*
X107687188Y-102466376D01*
X107523216Y-102398456D01*
X107375646Y-102299853D01*
X107250147Y-102174354D01*
X107151544Y-102026784D01*
X107083624Y-101862812D01*
X107049000Y-101688741D01*
X107049000Y-101511259D01*
X107083624Y-101337188D01*
X107151544Y-101173216D01*
X107250147Y-101025646D01*
X107375646Y-100900147D01*
X107523216Y-100801544D01*
X107687188Y-100733624D01*
X107836488Y-100703927D01*
X107861258Y-100699000D01*
X108038742Y-100699000D01*
X108063512Y-100703927D01*
G37*
G36*
X118223512Y-100703927D02*
G01*
X118372812Y-100733624D01*
X118536784Y-100801544D01*
X118684354Y-100900147D01*
X118809853Y-101025646D01*
X118908456Y-101173216D01*
X118976376Y-101337188D01*
X119011000Y-101511259D01*
X119011000Y-101688741D01*
X118976376Y-101862812D01*
X118908456Y-102026784D01*
X118809853Y-102174354D01*
X118684354Y-102299853D01*
X118536784Y-102398456D01*
X118372812Y-102466376D01*
X118223512Y-102496073D01*
X118198742Y-102501000D01*
X118021258Y-102501000D01*
X117996488Y-102496073D01*
X117847188Y-102466376D01*
X117683216Y-102398456D01*
X117535646Y-102299853D01*
X117410147Y-102174354D01*
X117311544Y-102026784D01*
X117243624Y-101862812D01*
X117209000Y-101688741D01*
X117209000Y-101511259D01*
X117243624Y-101337188D01*
X117311544Y-101173216D01*
X117410147Y-101025646D01*
X117535646Y-100900147D01*
X117683216Y-100801544D01*
X117847188Y-100733624D01*
X117996488Y-100703927D01*
X118021258Y-100699000D01*
X118198742Y-100699000D01*
X118223512Y-100703927D01*
G37*
G36*
X50913512Y-100703927D02*
G01*
X51062812Y-100733624D01*
X51226784Y-100801544D01*
X51374354Y-100900147D01*
X51499853Y-101025646D01*
X51598456Y-101173216D01*
X51666376Y-101337188D01*
X51701000Y-101511259D01*
X51701000Y-101688741D01*
X51666376Y-101862812D01*
X51598456Y-102026784D01*
X51499853Y-102174354D01*
X51374354Y-102299853D01*
X51226784Y-102398456D01*
X51062812Y-102466376D01*
X50913512Y-102496073D01*
X50888742Y-102501000D01*
X50711258Y-102501000D01*
X50686488Y-102496073D01*
X50537188Y-102466376D01*
X50373216Y-102398456D01*
X50225646Y-102299853D01*
X50100147Y-102174354D01*
X50001544Y-102026784D01*
X49933624Y-101862812D01*
X49899000Y-101688741D01*
X49899000Y-101511259D01*
X49933624Y-101337188D01*
X50001544Y-101173216D01*
X50100147Y-101025646D01*
X50225646Y-100900147D01*
X50373216Y-100801544D01*
X50537188Y-100733624D01*
X50686488Y-100703927D01*
X50711258Y-100699000D01*
X50888742Y-100699000D01*
X50913512Y-100703927D01*
G37*
G36*
X99173512Y-100703927D02*
G01*
X99322812Y-100733624D01*
X99486784Y-100801544D01*
X99634354Y-100900147D01*
X99759853Y-101025646D01*
X99858456Y-101173216D01*
X99926376Y-101337188D01*
X99961000Y-101511259D01*
X99961000Y-101688741D01*
X99926376Y-101862812D01*
X99858456Y-102026784D01*
X99759853Y-102174354D01*
X99634354Y-102299853D01*
X99486784Y-102398456D01*
X99322812Y-102466376D01*
X99173512Y-102496073D01*
X99148742Y-102501000D01*
X98971258Y-102501000D01*
X98946488Y-102496073D01*
X98797188Y-102466376D01*
X98633216Y-102398456D01*
X98485646Y-102299853D01*
X98360147Y-102174354D01*
X98261544Y-102026784D01*
X98193624Y-101862812D01*
X98159000Y-101688741D01*
X98159000Y-101511259D01*
X98193624Y-101337188D01*
X98261544Y-101173216D01*
X98360147Y-101025646D01*
X98485646Y-100900147D01*
X98633216Y-100801544D01*
X98797188Y-100733624D01*
X98946488Y-100703927D01*
X98971258Y-100699000D01*
X99148742Y-100699000D01*
X99173512Y-100703927D01*
G37*
G36*
X109444549Y-97931116D02*
G01*
X109555734Y-97953232D01*
X109703850Y-98014584D01*
X109760933Y-98038228D01*
X109765203Y-98039997D01*
X109953720Y-98165960D01*
X110114040Y-98326280D01*
X110240003Y-98514797D01*
X110326768Y-98724266D01*
X110371000Y-98946636D01*
X110371000Y-99173364D01*
X110326768Y-99395734D01*
X110240003Y-99605203D01*
X110114040Y-99793720D01*
X109953720Y-99954040D01*
X109765203Y-100080003D01*
X109555734Y-100166768D01*
X109444549Y-100188884D01*
X109333365Y-100211000D01*
X109106635Y-100211000D01*
X108995451Y-100188884D01*
X108884266Y-100166768D01*
X108674797Y-100080003D01*
X108486280Y-99954040D01*
X108325960Y-99793720D01*
X108199997Y-99605203D01*
X108113232Y-99395734D01*
X108069000Y-99173364D01*
X108069000Y-98946636D01*
X108113232Y-98724266D01*
X108199997Y-98514797D01*
X108325960Y-98326280D01*
X108486280Y-98165960D01*
X108674797Y-98039997D01*
X108679068Y-98038228D01*
X108736150Y-98014584D01*
X108884266Y-97953232D01*
X108995451Y-97931116D01*
X109106635Y-97909000D01*
X109333365Y-97909000D01*
X109444549Y-97931116D01*
G37*
G36*
X90394549Y-97931116D02*
G01*
X90505734Y-97953232D01*
X90653850Y-98014584D01*
X90710933Y-98038228D01*
X90715203Y-98039997D01*
X90903720Y-98165960D01*
X91064040Y-98326280D01*
X91190003Y-98514797D01*
X91276768Y-98724266D01*
X91321000Y-98946636D01*
X91321000Y-99173364D01*
X91276768Y-99395734D01*
X91190003Y-99605203D01*
X91064040Y-99793720D01*
X90903720Y-99954040D01*
X90715203Y-100080003D01*
X90505734Y-100166768D01*
X90394549Y-100188884D01*
X90283365Y-100211000D01*
X90056635Y-100211000D01*
X89945451Y-100188884D01*
X89834266Y-100166768D01*
X89624797Y-100080003D01*
X89436280Y-99954040D01*
X89275960Y-99793720D01*
X89149997Y-99605203D01*
X89063232Y-99395734D01*
X89019000Y-99173364D01*
X89019000Y-98946636D01*
X89063232Y-98724266D01*
X89149997Y-98514797D01*
X89275960Y-98326280D01*
X89436280Y-98165960D01*
X89624797Y-98039997D01*
X89629068Y-98038228D01*
X89686150Y-98014584D01*
X89834266Y-97953232D01*
X89945451Y-97931116D01*
X90056635Y-97909000D01*
X90283365Y-97909000D01*
X90394549Y-97931116D01*
G37*
G36*
X52294549Y-97931116D02*
G01*
X52405734Y-97953232D01*
X52553850Y-98014584D01*
X52610933Y-98038228D01*
X52615203Y-98039997D01*
X52803720Y-98165960D01*
X52964040Y-98326280D01*
X53090003Y-98514797D01*
X53176768Y-98724266D01*
X53221000Y-98946636D01*
X53221000Y-99173364D01*
X53176768Y-99395734D01*
X53090003Y-99605203D01*
X52964040Y-99793720D01*
X52803720Y-99954040D01*
X52615203Y-100080003D01*
X52405734Y-100166768D01*
X52294549Y-100188884D01*
X52183365Y-100211000D01*
X51956635Y-100211000D01*
X51845451Y-100188884D01*
X51734266Y-100166768D01*
X51524797Y-100080003D01*
X51336280Y-99954040D01*
X51175960Y-99793720D01*
X51049997Y-99605203D01*
X50963232Y-99395734D01*
X50919000Y-99173364D01*
X50919000Y-98946636D01*
X50963232Y-98724266D01*
X51049997Y-98514797D01*
X51175960Y-98326280D01*
X51336280Y-98165960D01*
X51524797Y-98039997D01*
X51529068Y-98038228D01*
X51586150Y-98014584D01*
X51734266Y-97953232D01*
X51845451Y-97931116D01*
X51956635Y-97909000D01*
X52183365Y-97909000D01*
X52294549Y-97931116D01*
G37*
G36*
X71344549Y-97931116D02*
G01*
X71455734Y-97953232D01*
X71603850Y-98014584D01*
X71660933Y-98038228D01*
X71665203Y-98039997D01*
X71853720Y-98165960D01*
X72014040Y-98326280D01*
X72140003Y-98514797D01*
X72226768Y-98724266D01*
X72271000Y-98946636D01*
X72271000Y-99173364D01*
X72226768Y-99395734D01*
X72140003Y-99605203D01*
X72014040Y-99793720D01*
X71853720Y-99954040D01*
X71665203Y-100080003D01*
X71455734Y-100166768D01*
X71344549Y-100188884D01*
X71233365Y-100211000D01*
X71006635Y-100211000D01*
X70895451Y-100188884D01*
X70784266Y-100166768D01*
X70574797Y-100080003D01*
X70386280Y-99954040D01*
X70225960Y-99793720D01*
X70099997Y-99605203D01*
X70013232Y-99395734D01*
X69969000Y-99173364D01*
X69969000Y-98946636D01*
X70013232Y-98724266D01*
X70099997Y-98514797D01*
X70225960Y-98326280D01*
X70386280Y-98165960D01*
X70574797Y-98039997D01*
X70579068Y-98038228D01*
X70636150Y-98014584D01*
X70784266Y-97953232D01*
X70895451Y-97931116D01*
X71006635Y-97909000D01*
X71233365Y-97909000D01*
X71344549Y-97931116D01*
G37*
G36*
X44698228Y-96971703D02*
G01*
X44853100Y-97035853D01*
X44992481Y-97128985D01*
X45111015Y-97247519D01*
X45204147Y-97386900D01*
X45268297Y-97541772D01*
X45301000Y-97706184D01*
X45301000Y-97873816D01*
X45268297Y-98038228D01*
X45204147Y-98193100D01*
X45111015Y-98332481D01*
X44992481Y-98451015D01*
X44853100Y-98544147D01*
X44698228Y-98608297D01*
X44533816Y-98641000D01*
X44366184Y-98641000D01*
X44201772Y-98608297D01*
X44046900Y-98544147D01*
X43907519Y-98451015D01*
X43788985Y-98332481D01*
X43695853Y-98193100D01*
X43631703Y-98038228D01*
X43599000Y-97873816D01*
X43599000Y-97706184D01*
X43631703Y-97541772D01*
X43695853Y-97386900D01*
X43788985Y-97247519D01*
X43907519Y-97128985D01*
X44046900Y-97035853D01*
X44201772Y-96971703D01*
X44366184Y-96939000D01*
X44533816Y-96939000D01*
X44698228Y-96971703D01*
G37*
G36*
X77694549Y-95391116D02*
G01*
X77805734Y-95413232D01*
X78015203Y-95499997D01*
X78203720Y-95625960D01*
X78364040Y-95786280D01*
X78490003Y-95974797D01*
X78576768Y-96184266D01*
X78621000Y-96406636D01*
X78621000Y-96633364D01*
X78576768Y-96855734D01*
X78490003Y-97065203D01*
X78364040Y-97253720D01*
X78203720Y-97414040D01*
X78015203Y-97540003D01*
X78015202Y-97540004D01*
X78015201Y-97540004D01*
X77953850Y-97565416D01*
X77805734Y-97626768D01*
X77694549Y-97648884D01*
X77583365Y-97671000D01*
X77356635Y-97671000D01*
X77245451Y-97648884D01*
X77134266Y-97626768D01*
X76986150Y-97565416D01*
X76924799Y-97540004D01*
X76924798Y-97540004D01*
X76924797Y-97540003D01*
X76736280Y-97414040D01*
X76575960Y-97253720D01*
X76449997Y-97065203D01*
X76363232Y-96855734D01*
X76319000Y-96633364D01*
X76319000Y-96406636D01*
X76363232Y-96184266D01*
X76449997Y-95974797D01*
X76575960Y-95786280D01*
X76736280Y-95625960D01*
X76924797Y-95499997D01*
X77134266Y-95413232D01*
X77245451Y-95391116D01*
X77356635Y-95369000D01*
X77583365Y-95369000D01*
X77694549Y-95391116D01*
G37*
G36*
X115794549Y-95391116D02*
G01*
X115905734Y-95413232D01*
X116115203Y-95499997D01*
X116303720Y-95625960D01*
X116464040Y-95786280D01*
X116590003Y-95974797D01*
X116676768Y-96184266D01*
X116721000Y-96406636D01*
X116721000Y-96633364D01*
X116676768Y-96855734D01*
X116590003Y-97065203D01*
X116464040Y-97253720D01*
X116303720Y-97414040D01*
X116115203Y-97540003D01*
X116115202Y-97540004D01*
X116115201Y-97540004D01*
X116053850Y-97565416D01*
X115905734Y-97626768D01*
X115794549Y-97648884D01*
X115683365Y-97671000D01*
X115456635Y-97671000D01*
X115345451Y-97648884D01*
X115234266Y-97626768D01*
X115086150Y-97565416D01*
X115024799Y-97540004D01*
X115024798Y-97540004D01*
X115024797Y-97540003D01*
X114836280Y-97414040D01*
X114675960Y-97253720D01*
X114549997Y-97065203D01*
X114463232Y-96855734D01*
X114419000Y-96633364D01*
X114419000Y-96406636D01*
X114463232Y-96184266D01*
X114549997Y-95974797D01*
X114675960Y-95786280D01*
X114836280Y-95625960D01*
X115024797Y-95499997D01*
X115234266Y-95413232D01*
X115345451Y-95391116D01*
X115456635Y-95369000D01*
X115683365Y-95369000D01*
X115794549Y-95391116D01*
G37*
G36*
X96744549Y-95391116D02*
G01*
X96855734Y-95413232D01*
X97065203Y-95499997D01*
X97253720Y-95625960D01*
X97414040Y-95786280D01*
X97540003Y-95974797D01*
X97626768Y-96184266D01*
X97671000Y-96406636D01*
X97671000Y-96633364D01*
X97626768Y-96855734D01*
X97540003Y-97065203D01*
X97414040Y-97253720D01*
X97253720Y-97414040D01*
X97065203Y-97540003D01*
X97065202Y-97540004D01*
X97065201Y-97540004D01*
X97003850Y-97565416D01*
X96855734Y-97626768D01*
X96744549Y-97648884D01*
X96633365Y-97671000D01*
X96406635Y-97671000D01*
X96295451Y-97648884D01*
X96184266Y-97626768D01*
X96036150Y-97565416D01*
X95974799Y-97540004D01*
X95974798Y-97540004D01*
X95974797Y-97540003D01*
X95786280Y-97414040D01*
X95625960Y-97253720D01*
X95499997Y-97065203D01*
X95413232Y-96855734D01*
X95369000Y-96633364D01*
X95369000Y-96406636D01*
X95413232Y-96184266D01*
X95499997Y-95974797D01*
X95625960Y-95786280D01*
X95786280Y-95625960D01*
X95974797Y-95499997D01*
X96184266Y-95413232D01*
X96295451Y-95391116D01*
X96406635Y-95369000D01*
X96633365Y-95369000D01*
X96744549Y-95391116D01*
G37*
G36*
X58644549Y-95391116D02*
G01*
X58755734Y-95413232D01*
X58965203Y-95499997D01*
X59153720Y-95625960D01*
X59314040Y-95786280D01*
X59440003Y-95974797D01*
X59526768Y-96184266D01*
X59571000Y-96406636D01*
X59571000Y-96633364D01*
X59526768Y-96855734D01*
X59440003Y-97065203D01*
X59314040Y-97253720D01*
X59153720Y-97414040D01*
X58965203Y-97540003D01*
X58965202Y-97540004D01*
X58965201Y-97540004D01*
X58903850Y-97565416D01*
X58755734Y-97626768D01*
X58644549Y-97648884D01*
X58533365Y-97671000D01*
X58306635Y-97671000D01*
X58195451Y-97648884D01*
X58084266Y-97626768D01*
X57936150Y-97565416D01*
X57874799Y-97540004D01*
X57874798Y-97540004D01*
X57874797Y-97540003D01*
X57686280Y-97414040D01*
X57525960Y-97253720D01*
X57399997Y-97065203D01*
X57313232Y-96855734D01*
X57269000Y-96633364D01*
X57269000Y-96406636D01*
X57313232Y-96184266D01*
X57399997Y-95974797D01*
X57525960Y-95786280D01*
X57686280Y-95625960D01*
X57874797Y-95499997D01*
X58084266Y-95413232D01*
X58195451Y-95391116D01*
X58306635Y-95369000D01*
X58533365Y-95369000D01*
X58644549Y-95391116D01*
G37*
G36*
X79017395Y-90525546D02*
G01*
X79190466Y-90597234D01*
X79190467Y-90597235D01*
X79346227Y-90701310D01*
X79478690Y-90833773D01*
X79478691Y-90833775D01*
X79582766Y-90989534D01*
X79654454Y-91162605D01*
X79691000Y-91346333D01*
X79691000Y-91533667D01*
X79654454Y-91717395D01*
X79582766Y-91890466D01*
X79582765Y-91890467D01*
X79478690Y-92046227D01*
X79346227Y-92178690D01*
X79267818Y-92231081D01*
X79190466Y-92282766D01*
X79017395Y-92354454D01*
X78833667Y-92391000D01*
X78646333Y-92391000D01*
X78462605Y-92354454D01*
X78289534Y-92282766D01*
X78212182Y-92231081D01*
X78133773Y-92178690D01*
X78001310Y-92046227D01*
X77897235Y-91890467D01*
X77897234Y-91890466D01*
X77825546Y-91717395D01*
X77789000Y-91533667D01*
X77789000Y-91346333D01*
X77825546Y-91162605D01*
X77897234Y-90989534D01*
X78001309Y-90833775D01*
X78001310Y-90833773D01*
X78133773Y-90701310D01*
X78289533Y-90597235D01*
X78289534Y-90597234D01*
X78462605Y-90525546D01*
X78646333Y-90489000D01*
X78833667Y-90489000D01*
X79017395Y-90525546D01*
G37*
G36*
X98067395Y-90525546D02*
G01*
X98240466Y-90597234D01*
X98240467Y-90597235D01*
X98396227Y-90701310D01*
X98528690Y-90833773D01*
X98528691Y-90833775D01*
X98632766Y-90989534D01*
X98704454Y-91162605D01*
X98741000Y-91346333D01*
X98741000Y-91533667D01*
X98704454Y-91717395D01*
X98632766Y-91890466D01*
X98632765Y-91890467D01*
X98528690Y-92046227D01*
X98396227Y-92178690D01*
X98317818Y-92231081D01*
X98240466Y-92282766D01*
X98067395Y-92354454D01*
X97883667Y-92391000D01*
X97696333Y-92391000D01*
X97512605Y-92354454D01*
X97339534Y-92282766D01*
X97262182Y-92231081D01*
X97183773Y-92178690D01*
X97051310Y-92046227D01*
X96947235Y-91890467D01*
X96947234Y-91890466D01*
X96875546Y-91717395D01*
X96839000Y-91533667D01*
X96839000Y-91346333D01*
X96875546Y-91162605D01*
X96947234Y-90989534D01*
X97051309Y-90833775D01*
X97051310Y-90833773D01*
X97183773Y-90701310D01*
X97339533Y-90597235D01*
X97339534Y-90597234D01*
X97512605Y-90525546D01*
X97696333Y-90489000D01*
X97883667Y-90489000D01*
X98067395Y-90525546D01*
G37*
G36*
X91121000Y-92391000D02*
G01*
X89219000Y-92391000D01*
X89219000Y-90489000D01*
X91121000Y-90489000D01*
X91121000Y-92391000D01*
G37*
G36*
X72071000Y-92391000D02*
G01*
X70169000Y-92391000D01*
X70169000Y-90489000D01*
X72071000Y-90489000D01*
X72071000Y-92391000D01*
G37*
G36*
X59967395Y-90525546D02*
G01*
X60140466Y-90597234D01*
X60140467Y-90597235D01*
X60296227Y-90701310D01*
X60428690Y-90833773D01*
X60428691Y-90833775D01*
X60532766Y-90989534D01*
X60604454Y-91162605D01*
X60641000Y-91346333D01*
X60641000Y-91533667D01*
X60604454Y-91717395D01*
X60532766Y-91890466D01*
X60532765Y-91890467D01*
X60428690Y-92046227D01*
X60296227Y-92178690D01*
X60217818Y-92231081D01*
X60140466Y-92282766D01*
X59967395Y-92354454D01*
X59783667Y-92391000D01*
X59596333Y-92391000D01*
X59412605Y-92354454D01*
X59239534Y-92282766D01*
X59162182Y-92231081D01*
X59083773Y-92178690D01*
X58951310Y-92046227D01*
X58847235Y-91890467D01*
X58847234Y-91890466D01*
X58775546Y-91717395D01*
X58739000Y-91533667D01*
X58739000Y-91346333D01*
X58775546Y-91162605D01*
X58847234Y-90989534D01*
X58951309Y-90833775D01*
X58951310Y-90833773D01*
X59083773Y-90701310D01*
X59239533Y-90597235D01*
X59239534Y-90597234D01*
X59412605Y-90525546D01*
X59596333Y-90489000D01*
X59783667Y-90489000D01*
X59967395Y-90525546D01*
G37*
G36*
X110171000Y-92391000D02*
G01*
X108269000Y-92391000D01*
X108269000Y-90489000D01*
X110171000Y-90489000D01*
X110171000Y-92391000D01*
G37*
G36*
X117117395Y-90525546D02*
G01*
X117290466Y-90597234D01*
X117290467Y-90597235D01*
X117446227Y-90701310D01*
X117578690Y-90833773D01*
X117578691Y-90833775D01*
X117682766Y-90989534D01*
X117754454Y-91162605D01*
X117791000Y-91346333D01*
X117791000Y-91533667D01*
X117754454Y-91717395D01*
X117682766Y-91890466D01*
X117682765Y-91890467D01*
X117578690Y-92046227D01*
X117446227Y-92178690D01*
X117367818Y-92231081D01*
X117290466Y-92282766D01*
X117117395Y-92354454D01*
X116933667Y-92391000D01*
X116746333Y-92391000D01*
X116562605Y-92354454D01*
X116389534Y-92282766D01*
X116312182Y-92231081D01*
X116233773Y-92178690D01*
X116101310Y-92046227D01*
X115997235Y-91890467D01*
X115997234Y-91890466D01*
X115925546Y-91717395D01*
X115889000Y-91533667D01*
X115889000Y-91346333D01*
X115925546Y-91162605D01*
X115997234Y-90989534D01*
X116101309Y-90833775D01*
X116101310Y-90833773D01*
X116233773Y-90701310D01*
X116389533Y-90597235D01*
X116389534Y-90597234D01*
X116562605Y-90525546D01*
X116746333Y-90489000D01*
X116933667Y-90489000D01*
X117117395Y-90525546D01*
G37*
G36*
X53021000Y-92391000D02*
G01*
X51119000Y-92391000D01*
X51119000Y-90489000D01*
X53021000Y-90489000D01*
X53021000Y-92391000D01*
G37*
G36*
X44698228Y-85541703D02*
G01*
X44853100Y-85605853D01*
X44992481Y-85698985D01*
X45111015Y-85817519D01*
X45204147Y-85956900D01*
X45268297Y-86111772D01*
X45301000Y-86276184D01*
X45301000Y-86443816D01*
X45268297Y-86608228D01*
X45204147Y-86763100D01*
X45111015Y-86902481D01*
X44992481Y-87021015D01*
X44853100Y-87114147D01*
X44698228Y-87178297D01*
X44533816Y-87211000D01*
X44366184Y-87211000D01*
X44201772Y-87178297D01*
X44046900Y-87114147D01*
X43907519Y-87021015D01*
X43788985Y-86902481D01*
X43695853Y-86763100D01*
X43631703Y-86608228D01*
X43599000Y-86443816D01*
X43599000Y-86276184D01*
X43631703Y-86111772D01*
X43695853Y-85956900D01*
X43788985Y-85817519D01*
X43907519Y-85698985D01*
X44046900Y-85605853D01*
X44201772Y-85541703D01*
X44366184Y-85509000D01*
X44533816Y-85509000D01*
X44698228Y-85541703D01*
G37*
G36*
X113628254Y-80577818D02*
G01*
X114001511Y-80732426D01*
X114001513Y-80732427D01*
X114337436Y-80956884D01*
X114623116Y-81242564D01*
X114847574Y-81578489D01*
X115002182Y-81951746D01*
X115081000Y-82347993D01*
X115081000Y-82752007D01*
X115002182Y-83148254D01*
X114847574Y-83521511D01*
X114847573Y-83521513D01*
X114623116Y-83857436D01*
X114337436Y-84143116D01*
X114001513Y-84367573D01*
X114001512Y-84367574D01*
X114001511Y-84367574D01*
X113628254Y-84522182D01*
X113232007Y-84601000D01*
X112827993Y-84601000D01*
X112431746Y-84522182D01*
X112058489Y-84367574D01*
X112058488Y-84367574D01*
X112058487Y-84367573D01*
X111722564Y-84143116D01*
X111436884Y-83857436D01*
X111212427Y-83521513D01*
X111212426Y-83521511D01*
X111057818Y-83148254D01*
X110979000Y-82752007D01*
X110979000Y-82347993D01*
X111057818Y-81951746D01*
X111212426Y-81578489D01*
X111436884Y-81242564D01*
X111722564Y-80956884D01*
X112058487Y-80732427D01*
X112058489Y-80732426D01*
X112431746Y-80577818D01*
X112827993Y-80499000D01*
X113232007Y-80499000D01*
X113628254Y-80577818D01*
G37*
G36*
X75528254Y-80577818D02*
G01*
X75901511Y-80732426D01*
X75901513Y-80732427D01*
X76237436Y-80956884D01*
X76523116Y-81242564D01*
X76747574Y-81578489D01*
X76902182Y-81951746D01*
X76981000Y-82347993D01*
X76981000Y-82752007D01*
X76902182Y-83148254D01*
X76747574Y-83521511D01*
X76747573Y-83521513D01*
X76523116Y-83857436D01*
X76237436Y-84143116D01*
X75901513Y-84367573D01*
X75901512Y-84367574D01*
X75901511Y-84367574D01*
X75528254Y-84522182D01*
X75132007Y-84601000D01*
X74727993Y-84601000D01*
X74331746Y-84522182D01*
X73958489Y-84367574D01*
X73958488Y-84367574D01*
X73958487Y-84367573D01*
X73622564Y-84143116D01*
X73336884Y-83857436D01*
X73112427Y-83521513D01*
X73112426Y-83521511D01*
X72957818Y-83148254D01*
X72879000Y-82752007D01*
X72879000Y-82347993D01*
X72957818Y-81951746D01*
X73112426Y-81578489D01*
X73336884Y-81242564D01*
X73622564Y-80956884D01*
X73958487Y-80732427D01*
X73958489Y-80732426D01*
X74331746Y-80577818D01*
X74727993Y-80499000D01*
X75132007Y-80499000D01*
X75528254Y-80577818D01*
G37*
G36*
X56478254Y-80577818D02*
G01*
X56851511Y-80732426D01*
X56851513Y-80732427D01*
X57187436Y-80956884D01*
X57473116Y-81242564D01*
X57697574Y-81578489D01*
X57852182Y-81951746D01*
X57931000Y-82347993D01*
X57931000Y-82752007D01*
X57852182Y-83148254D01*
X57697574Y-83521511D01*
X57697573Y-83521513D01*
X57473116Y-83857436D01*
X57187436Y-84143116D01*
X56851513Y-84367573D01*
X56851512Y-84367574D01*
X56851511Y-84367574D01*
X56478254Y-84522182D01*
X56082007Y-84601000D01*
X55677993Y-84601000D01*
X55281746Y-84522182D01*
X54908489Y-84367574D01*
X54908488Y-84367574D01*
X54908487Y-84367573D01*
X54572564Y-84143116D01*
X54286884Y-83857436D01*
X54062427Y-83521513D01*
X54062426Y-83521511D01*
X53907818Y-83148254D01*
X53829000Y-82752007D01*
X53829000Y-82347993D01*
X53907818Y-81951746D01*
X54062426Y-81578489D01*
X54286884Y-81242564D01*
X54572564Y-80956884D01*
X54908487Y-80732427D01*
X54908489Y-80732426D01*
X55281746Y-80577818D01*
X55677993Y-80499000D01*
X56082007Y-80499000D01*
X56478254Y-80577818D01*
G37*
G36*
X94578254Y-80577818D02*
G01*
X94951511Y-80732426D01*
X94951513Y-80732427D01*
X95287436Y-80956884D01*
X95573116Y-81242564D01*
X95797574Y-81578489D01*
X95952182Y-81951746D01*
X96031000Y-82347993D01*
X96031000Y-82752007D01*
X95952182Y-83148254D01*
X95797574Y-83521511D01*
X95797573Y-83521513D01*
X95573116Y-83857436D01*
X95287436Y-84143116D01*
X94951513Y-84367573D01*
X94951512Y-84367574D01*
X94951511Y-84367574D01*
X94578254Y-84522182D01*
X94182007Y-84601000D01*
X93777993Y-84601000D01*
X93381746Y-84522182D01*
X93008489Y-84367574D01*
X93008488Y-84367574D01*
X93008487Y-84367573D01*
X92672564Y-84143116D01*
X92386884Y-83857436D01*
X92162427Y-83521513D01*
X92162426Y-83521511D01*
X92007818Y-83148254D01*
X91929000Y-82752007D01*
X91929000Y-82347993D01*
X92007818Y-81951746D01*
X92162426Y-81578489D01*
X92386884Y-81242564D01*
X92672564Y-80956884D01*
X93008487Y-80732427D01*
X93008489Y-80732426D01*
X93381746Y-80577818D01*
X93777993Y-80499000D01*
X94182007Y-80499000D01*
X94578254Y-80577818D01*
G37*
G36*
X61073512Y-81653927D02*
G01*
X61222812Y-81683624D01*
X61386784Y-81751544D01*
X61534354Y-81850147D01*
X61659853Y-81975646D01*
X61758456Y-82123216D01*
X61826376Y-82287188D01*
X61861000Y-82461259D01*
X61861000Y-82638741D01*
X61826376Y-82812812D01*
X61758456Y-82976784D01*
X61659853Y-83124354D01*
X61534354Y-83249853D01*
X61386784Y-83348456D01*
X61222812Y-83416376D01*
X61073512Y-83446073D01*
X61048742Y-83451000D01*
X60871258Y-83451000D01*
X60846488Y-83446073D01*
X60697188Y-83416376D01*
X60533216Y-83348456D01*
X60385646Y-83249853D01*
X60260147Y-83124354D01*
X60161544Y-82976784D01*
X60093624Y-82812812D01*
X60059000Y-82638741D01*
X60059000Y-82461259D01*
X60093624Y-82287188D01*
X60161544Y-82123216D01*
X60260147Y-81975646D01*
X60385646Y-81850147D01*
X60533216Y-81751544D01*
X60697188Y-81683624D01*
X60846488Y-81653927D01*
X60871258Y-81649000D01*
X61048742Y-81649000D01*
X61073512Y-81653927D01*
G37*
G36*
X99173512Y-81653927D02*
G01*
X99322812Y-81683624D01*
X99486784Y-81751544D01*
X99634354Y-81850147D01*
X99759853Y-81975646D01*
X99858456Y-82123216D01*
X99926376Y-82287188D01*
X99961000Y-82461259D01*
X99961000Y-82638741D01*
X99926376Y-82812812D01*
X99858456Y-82976784D01*
X99759853Y-83124354D01*
X99634354Y-83249853D01*
X99486784Y-83348456D01*
X99322812Y-83416376D01*
X99173512Y-83446073D01*
X99148742Y-83451000D01*
X98971258Y-83451000D01*
X98946488Y-83446073D01*
X98797188Y-83416376D01*
X98633216Y-83348456D01*
X98485646Y-83249853D01*
X98360147Y-83124354D01*
X98261544Y-82976784D01*
X98193624Y-82812812D01*
X98159000Y-82638741D01*
X98159000Y-82461259D01*
X98193624Y-82287188D01*
X98261544Y-82123216D01*
X98360147Y-81975646D01*
X98485646Y-81850147D01*
X98633216Y-81751544D01*
X98797188Y-81683624D01*
X98946488Y-81653927D01*
X98971258Y-81649000D01*
X99148742Y-81649000D01*
X99173512Y-81653927D01*
G37*
G36*
X89013512Y-81653927D02*
G01*
X89162812Y-81683624D01*
X89326784Y-81751544D01*
X89474354Y-81850147D01*
X89599853Y-81975646D01*
X89698456Y-82123216D01*
X89766376Y-82287188D01*
X89801000Y-82461259D01*
X89801000Y-82638741D01*
X89766376Y-82812812D01*
X89698456Y-82976784D01*
X89599853Y-83124354D01*
X89474354Y-83249853D01*
X89326784Y-83348456D01*
X89162812Y-83416376D01*
X89013512Y-83446073D01*
X88988742Y-83451000D01*
X88811258Y-83451000D01*
X88786488Y-83446073D01*
X88637188Y-83416376D01*
X88473216Y-83348456D01*
X88325646Y-83249853D01*
X88200147Y-83124354D01*
X88101544Y-82976784D01*
X88033624Y-82812812D01*
X87999000Y-82638741D01*
X87999000Y-82461259D01*
X88033624Y-82287188D01*
X88101544Y-82123216D01*
X88200147Y-81975646D01*
X88325646Y-81850147D01*
X88473216Y-81751544D01*
X88637188Y-81683624D01*
X88786488Y-81653927D01*
X88811258Y-81649000D01*
X88988742Y-81649000D01*
X89013512Y-81653927D01*
G37*
G36*
X108063512Y-81653927D02*
G01*
X108212812Y-81683624D01*
X108376784Y-81751544D01*
X108524354Y-81850147D01*
X108649853Y-81975646D01*
X108748456Y-82123216D01*
X108816376Y-82287188D01*
X108851000Y-82461259D01*
X108851000Y-82638741D01*
X108816376Y-82812812D01*
X108748456Y-82976784D01*
X108649853Y-83124354D01*
X108524354Y-83249853D01*
X108376784Y-83348456D01*
X108212812Y-83416376D01*
X108063512Y-83446073D01*
X108038742Y-83451000D01*
X107861258Y-83451000D01*
X107836488Y-83446073D01*
X107687188Y-83416376D01*
X107523216Y-83348456D01*
X107375646Y-83249853D01*
X107250147Y-83124354D01*
X107151544Y-82976784D01*
X107083624Y-82812812D01*
X107049000Y-82638741D01*
X107049000Y-82461259D01*
X107083624Y-82287188D01*
X107151544Y-82123216D01*
X107250147Y-81975646D01*
X107375646Y-81850147D01*
X107523216Y-81751544D01*
X107687188Y-81683624D01*
X107836488Y-81653927D01*
X107861258Y-81649000D01*
X108038742Y-81649000D01*
X108063512Y-81653927D01*
G37*
G36*
X118223512Y-81653927D02*
G01*
X118372812Y-81683624D01*
X118536784Y-81751544D01*
X118684354Y-81850147D01*
X118809853Y-81975646D01*
X118908456Y-82123216D01*
X118976376Y-82287188D01*
X119011000Y-82461259D01*
X119011000Y-82638741D01*
X118976376Y-82812812D01*
X118908456Y-82976784D01*
X118809853Y-83124354D01*
X118684354Y-83249853D01*
X118536784Y-83348456D01*
X118372812Y-83416376D01*
X118223512Y-83446073D01*
X118198742Y-83451000D01*
X118021258Y-83451000D01*
X117996488Y-83446073D01*
X117847188Y-83416376D01*
X117683216Y-83348456D01*
X117535646Y-83249853D01*
X117410147Y-83124354D01*
X117311544Y-82976784D01*
X117243624Y-82812812D01*
X117209000Y-82638741D01*
X117209000Y-82461259D01*
X117243624Y-82287188D01*
X117311544Y-82123216D01*
X117410147Y-81975646D01*
X117535646Y-81850147D01*
X117683216Y-81751544D01*
X117847188Y-81683624D01*
X117996488Y-81653927D01*
X118021258Y-81649000D01*
X118198742Y-81649000D01*
X118223512Y-81653927D01*
G37*
G36*
X80123512Y-81653927D02*
G01*
X80272812Y-81683624D01*
X80436784Y-81751544D01*
X80584354Y-81850147D01*
X80709853Y-81975646D01*
X80808456Y-82123216D01*
X80876376Y-82287188D01*
X80911000Y-82461259D01*
X80911000Y-82638741D01*
X80876376Y-82812812D01*
X80808456Y-82976784D01*
X80709853Y-83124354D01*
X80584354Y-83249853D01*
X80436784Y-83348456D01*
X80272812Y-83416376D01*
X80123512Y-83446073D01*
X80098742Y-83451000D01*
X79921258Y-83451000D01*
X79896488Y-83446073D01*
X79747188Y-83416376D01*
X79583216Y-83348456D01*
X79435646Y-83249853D01*
X79310147Y-83124354D01*
X79211544Y-82976784D01*
X79143624Y-82812812D01*
X79109000Y-82638741D01*
X79109000Y-82461259D01*
X79143624Y-82287188D01*
X79211544Y-82123216D01*
X79310147Y-81975646D01*
X79435646Y-81850147D01*
X79583216Y-81751544D01*
X79747188Y-81683624D01*
X79896488Y-81653927D01*
X79921258Y-81649000D01*
X80098742Y-81649000D01*
X80123512Y-81653927D01*
G37*
G36*
X69963512Y-81653927D02*
G01*
X70112812Y-81683624D01*
X70276784Y-81751544D01*
X70424354Y-81850147D01*
X70549853Y-81975646D01*
X70648456Y-82123216D01*
X70716376Y-82287188D01*
X70751000Y-82461259D01*
X70751000Y-82638741D01*
X70716376Y-82812812D01*
X70648456Y-82976784D01*
X70549853Y-83124354D01*
X70424354Y-83249853D01*
X70276784Y-83348456D01*
X70112812Y-83416376D01*
X69963512Y-83446073D01*
X69938742Y-83451000D01*
X69761258Y-83451000D01*
X69736488Y-83446073D01*
X69587188Y-83416376D01*
X69423216Y-83348456D01*
X69275646Y-83249853D01*
X69150147Y-83124354D01*
X69051544Y-82976784D01*
X68983624Y-82812812D01*
X68949000Y-82638741D01*
X68949000Y-82461259D01*
X68983624Y-82287188D01*
X69051544Y-82123216D01*
X69150147Y-81975646D01*
X69275646Y-81850147D01*
X69423216Y-81751544D01*
X69587188Y-81683624D01*
X69736488Y-81653927D01*
X69761258Y-81649000D01*
X69938742Y-81649000D01*
X69963512Y-81653927D01*
G37*
G36*
X50913512Y-81653927D02*
G01*
X51062812Y-81683624D01*
X51226784Y-81751544D01*
X51374354Y-81850147D01*
X51499853Y-81975646D01*
X51598456Y-82123216D01*
X51666376Y-82287188D01*
X51701000Y-82461259D01*
X51701000Y-82638741D01*
X51666376Y-82812812D01*
X51598456Y-82976784D01*
X51499853Y-83124354D01*
X51374354Y-83249853D01*
X51226784Y-83348456D01*
X51062812Y-83416376D01*
X50913512Y-83446073D01*
X50888742Y-83451000D01*
X50711258Y-83451000D01*
X50686488Y-83446073D01*
X50537188Y-83416376D01*
X50373216Y-83348456D01*
X50225646Y-83249853D01*
X50100147Y-83124354D01*
X50001544Y-82976784D01*
X49933624Y-82812812D01*
X49899000Y-82638741D01*
X49899000Y-82461259D01*
X49933624Y-82287188D01*
X50001544Y-82123216D01*
X50100147Y-81975646D01*
X50225646Y-81850147D01*
X50373216Y-81751544D01*
X50537188Y-81683624D01*
X50686488Y-81653927D01*
X50711258Y-81649000D01*
X50888742Y-81649000D01*
X50913512Y-81653927D01*
G37*
G36*
X52294549Y-78881116D02*
G01*
X52405734Y-78903232D01*
X52553850Y-78964584D01*
X52610933Y-78988228D01*
X52615203Y-78989997D01*
X52803720Y-79115960D01*
X52964040Y-79276280D01*
X53090003Y-79464797D01*
X53176768Y-79674266D01*
X53221000Y-79896636D01*
X53221000Y-80123364D01*
X53176768Y-80345734D01*
X53090003Y-80555203D01*
X52964040Y-80743720D01*
X52803720Y-80904040D01*
X52615203Y-81030003D01*
X52405734Y-81116768D01*
X52294549Y-81138884D01*
X52183365Y-81161000D01*
X51956635Y-81161000D01*
X51845451Y-81138884D01*
X51734266Y-81116768D01*
X51524797Y-81030003D01*
X51336280Y-80904040D01*
X51175960Y-80743720D01*
X51049997Y-80555203D01*
X50963232Y-80345734D01*
X50919000Y-80123364D01*
X50919000Y-79896636D01*
X50963232Y-79674266D01*
X51049997Y-79464797D01*
X51175960Y-79276280D01*
X51336280Y-79115960D01*
X51524797Y-78989997D01*
X51529068Y-78988228D01*
X51586150Y-78964584D01*
X51734266Y-78903232D01*
X51845451Y-78881116D01*
X51956635Y-78859000D01*
X52183365Y-78859000D01*
X52294549Y-78881116D01*
G37*
G36*
X109444549Y-78881116D02*
G01*
X109555734Y-78903232D01*
X109703850Y-78964584D01*
X109760933Y-78988228D01*
X109765203Y-78989997D01*
X109953720Y-79115960D01*
X110114040Y-79276280D01*
X110240003Y-79464797D01*
X110326768Y-79674266D01*
X110371000Y-79896636D01*
X110371000Y-80123364D01*
X110326768Y-80345734D01*
X110240003Y-80555203D01*
X110114040Y-80743720D01*
X109953720Y-80904040D01*
X109765203Y-81030003D01*
X109555734Y-81116768D01*
X109444549Y-81138884D01*
X109333365Y-81161000D01*
X109106635Y-81161000D01*
X108995451Y-81138884D01*
X108884266Y-81116768D01*
X108674797Y-81030003D01*
X108486280Y-80904040D01*
X108325960Y-80743720D01*
X108199997Y-80555203D01*
X108113232Y-80345734D01*
X108069000Y-80123364D01*
X108069000Y-79896636D01*
X108113232Y-79674266D01*
X108199997Y-79464797D01*
X108325960Y-79276280D01*
X108486280Y-79115960D01*
X108674797Y-78989997D01*
X108679068Y-78988228D01*
X108736150Y-78964584D01*
X108884266Y-78903232D01*
X108995451Y-78881116D01*
X109106635Y-78859000D01*
X109333365Y-78859000D01*
X109444549Y-78881116D01*
G37*
G36*
X90394549Y-78881116D02*
G01*
X90505734Y-78903232D01*
X90653850Y-78964584D01*
X90710933Y-78988228D01*
X90715203Y-78989997D01*
X90903720Y-79115960D01*
X91064040Y-79276280D01*
X91190003Y-79464797D01*
X91276768Y-79674266D01*
X91321000Y-79896636D01*
X91321000Y-80123364D01*
X91276768Y-80345734D01*
X91190003Y-80555203D01*
X91064040Y-80743720D01*
X90903720Y-80904040D01*
X90715203Y-81030003D01*
X90505734Y-81116768D01*
X90394549Y-81138884D01*
X90283365Y-81161000D01*
X90056635Y-81161000D01*
X89945451Y-81138884D01*
X89834266Y-81116768D01*
X89624797Y-81030003D01*
X89436280Y-80904040D01*
X89275960Y-80743720D01*
X89149997Y-80555203D01*
X89063232Y-80345734D01*
X89019000Y-80123364D01*
X89019000Y-79896636D01*
X89063232Y-79674266D01*
X89149997Y-79464797D01*
X89275960Y-79276280D01*
X89436280Y-79115960D01*
X89624797Y-78989997D01*
X89629068Y-78988228D01*
X89686150Y-78964584D01*
X89834266Y-78903232D01*
X89945451Y-78881116D01*
X90056635Y-78859000D01*
X90283365Y-78859000D01*
X90394549Y-78881116D01*
G37*
G36*
X71344549Y-78881116D02*
G01*
X71455734Y-78903232D01*
X71603850Y-78964584D01*
X71660933Y-78988228D01*
X71665203Y-78989997D01*
X71853720Y-79115960D01*
X72014040Y-79276280D01*
X72140003Y-79464797D01*
X72226768Y-79674266D01*
X72271000Y-79896636D01*
X72271000Y-80123364D01*
X72226768Y-80345734D01*
X72140003Y-80555203D01*
X72014040Y-80743720D01*
X71853720Y-80904040D01*
X71665203Y-81030003D01*
X71455734Y-81116768D01*
X71344549Y-81138884D01*
X71233365Y-81161000D01*
X71006635Y-81161000D01*
X70895451Y-81138884D01*
X70784266Y-81116768D01*
X70574797Y-81030003D01*
X70386280Y-80904040D01*
X70225960Y-80743720D01*
X70099997Y-80555203D01*
X70013232Y-80345734D01*
X69969000Y-80123364D01*
X69969000Y-79896636D01*
X70013232Y-79674266D01*
X70099997Y-79464797D01*
X70225960Y-79276280D01*
X70386280Y-79115960D01*
X70574797Y-78989997D01*
X70579068Y-78988228D01*
X70636150Y-78964584D01*
X70784266Y-78903232D01*
X70895451Y-78881116D01*
X71006635Y-78859000D01*
X71233365Y-78859000D01*
X71344549Y-78881116D01*
G37*
G36*
X44698228Y-77921703D02*
G01*
X44853100Y-77985853D01*
X44992481Y-78078985D01*
X45111015Y-78197519D01*
X45204147Y-78336900D01*
X45268297Y-78491772D01*
X45301000Y-78656184D01*
X45301000Y-78823816D01*
X45268297Y-78988228D01*
X45204147Y-79143100D01*
X45111015Y-79282481D01*
X44992481Y-79401015D01*
X44853100Y-79494147D01*
X44698228Y-79558297D01*
X44533816Y-79591000D01*
X44366184Y-79591000D01*
X44201772Y-79558297D01*
X44046900Y-79494147D01*
X43907519Y-79401015D01*
X43788985Y-79282481D01*
X43695853Y-79143100D01*
X43631703Y-78988228D01*
X43599000Y-78823816D01*
X43599000Y-78656184D01*
X43631703Y-78491772D01*
X43695853Y-78336900D01*
X43788985Y-78197519D01*
X43907519Y-78078985D01*
X44046900Y-77985853D01*
X44201772Y-77921703D01*
X44366184Y-77889000D01*
X44533816Y-77889000D01*
X44698228Y-77921703D01*
G37*
G36*
X96744549Y-76341116D02*
G01*
X96855734Y-76363232D01*
X97065203Y-76449997D01*
X97253720Y-76575960D01*
X97414040Y-76736280D01*
X97540003Y-76924797D01*
X97626768Y-77134266D01*
X97671000Y-77356636D01*
X97671000Y-77583364D01*
X97626768Y-77805734D01*
X97540003Y-78015203D01*
X97414040Y-78203720D01*
X97253720Y-78364040D01*
X97065203Y-78490003D01*
X97065202Y-78490004D01*
X97065201Y-78490004D01*
X97003850Y-78515416D01*
X96855734Y-78576768D01*
X96744549Y-78598884D01*
X96633365Y-78621000D01*
X96406635Y-78621000D01*
X96295451Y-78598884D01*
X96184266Y-78576768D01*
X96036150Y-78515416D01*
X95974799Y-78490004D01*
X95974798Y-78490004D01*
X95974797Y-78490003D01*
X95786280Y-78364040D01*
X95625960Y-78203720D01*
X95499997Y-78015203D01*
X95413232Y-77805734D01*
X95369000Y-77583364D01*
X95369000Y-77356636D01*
X95413232Y-77134266D01*
X95499997Y-76924797D01*
X95625960Y-76736280D01*
X95786280Y-76575960D01*
X95974797Y-76449997D01*
X96184266Y-76363232D01*
X96295451Y-76341116D01*
X96406635Y-76319000D01*
X96633365Y-76319000D01*
X96744549Y-76341116D01*
G37*
G36*
X58644549Y-76341116D02*
G01*
X58755734Y-76363232D01*
X58965203Y-76449997D01*
X59153720Y-76575960D01*
X59314040Y-76736280D01*
X59440003Y-76924797D01*
X59526768Y-77134266D01*
X59571000Y-77356636D01*
X59571000Y-77583364D01*
X59526768Y-77805734D01*
X59440003Y-78015203D01*
X59314040Y-78203720D01*
X59153720Y-78364040D01*
X58965203Y-78490003D01*
X58965202Y-78490004D01*
X58965201Y-78490004D01*
X58903850Y-78515416D01*
X58755734Y-78576768D01*
X58644549Y-78598884D01*
X58533365Y-78621000D01*
X58306635Y-78621000D01*
X58195451Y-78598884D01*
X58084266Y-78576768D01*
X57936150Y-78515416D01*
X57874799Y-78490004D01*
X57874798Y-78490004D01*
X57874797Y-78490003D01*
X57686280Y-78364040D01*
X57525960Y-78203720D01*
X57399997Y-78015203D01*
X57313232Y-77805734D01*
X57269000Y-77583364D01*
X57269000Y-77356636D01*
X57313232Y-77134266D01*
X57399997Y-76924797D01*
X57525960Y-76736280D01*
X57686280Y-76575960D01*
X57874797Y-76449997D01*
X58084266Y-76363232D01*
X58195451Y-76341116D01*
X58306635Y-76319000D01*
X58533365Y-76319000D01*
X58644549Y-76341116D01*
G37*
G36*
X77694549Y-76341116D02*
G01*
X77805734Y-76363232D01*
X78015203Y-76449997D01*
X78203720Y-76575960D01*
X78364040Y-76736280D01*
X78490003Y-76924797D01*
X78576768Y-77134266D01*
X78621000Y-77356636D01*
X78621000Y-77583364D01*
X78576768Y-77805734D01*
X78490003Y-78015203D01*
X78364040Y-78203720D01*
X78203720Y-78364040D01*
X78015203Y-78490003D01*
X78015202Y-78490004D01*
X78015201Y-78490004D01*
X77953850Y-78515416D01*
X77805734Y-78576768D01*
X77694549Y-78598884D01*
X77583365Y-78621000D01*
X77356635Y-78621000D01*
X77245451Y-78598884D01*
X77134266Y-78576768D01*
X76986150Y-78515416D01*
X76924799Y-78490004D01*
X76924798Y-78490004D01*
X76924797Y-78490003D01*
X76736280Y-78364040D01*
X76575960Y-78203720D01*
X76449997Y-78015203D01*
X76363232Y-77805734D01*
X76319000Y-77583364D01*
X76319000Y-77356636D01*
X76363232Y-77134266D01*
X76449997Y-76924797D01*
X76575960Y-76736280D01*
X76736280Y-76575960D01*
X76924797Y-76449997D01*
X77134266Y-76363232D01*
X77245451Y-76341116D01*
X77356635Y-76319000D01*
X77583365Y-76319000D01*
X77694549Y-76341116D01*
G37*
G36*
X115794549Y-76341116D02*
G01*
X115905734Y-76363232D01*
X116115203Y-76449997D01*
X116303720Y-76575960D01*
X116464040Y-76736280D01*
X116590003Y-76924797D01*
X116676768Y-77134266D01*
X116721000Y-77356636D01*
X116721000Y-77583364D01*
X116676768Y-77805734D01*
X116590003Y-78015203D01*
X116464040Y-78203720D01*
X116303720Y-78364040D01*
X116115203Y-78490003D01*
X116115202Y-78490004D01*
X116115201Y-78490004D01*
X116053850Y-78515416D01*
X115905734Y-78576768D01*
X115794549Y-78598884D01*
X115683365Y-78621000D01*
X115456635Y-78621000D01*
X115345451Y-78598884D01*
X115234266Y-78576768D01*
X115086150Y-78515416D01*
X115024799Y-78490004D01*
X115024798Y-78490004D01*
X115024797Y-78490003D01*
X114836280Y-78364040D01*
X114675960Y-78203720D01*
X114549997Y-78015203D01*
X114463232Y-77805734D01*
X114419000Y-77583364D01*
X114419000Y-77356636D01*
X114463232Y-77134266D01*
X114549997Y-76924797D01*
X114675960Y-76736280D01*
X114836280Y-76575960D01*
X115024797Y-76449997D01*
X115234266Y-76363232D01*
X115345451Y-76341116D01*
X115456635Y-76319000D01*
X115683365Y-76319000D01*
X115794549Y-76341116D01*
G37*
G36*
X42134549Y-72531116D02*
G01*
X42245734Y-72553232D01*
X42455203Y-72639997D01*
X42643720Y-72765960D01*
X42804040Y-72926280D01*
X42930003Y-73114797D01*
X43016768Y-73324266D01*
X43061000Y-73546636D01*
X43061000Y-73773364D01*
X43016768Y-73995734D01*
X42930003Y-74205203D01*
X42804040Y-74393720D01*
X42643720Y-74554040D01*
X42455203Y-74680003D01*
X42245734Y-74766768D01*
X42134549Y-74788884D01*
X42023365Y-74811000D01*
X41796635Y-74811000D01*
X41685451Y-74788884D01*
X41574266Y-74766768D01*
X41364797Y-74680003D01*
X41176280Y-74554040D01*
X41015960Y-74393720D01*
X40889997Y-74205203D01*
X40803232Y-73995734D01*
X40759000Y-73773364D01*
X40759000Y-73546636D01*
X40803232Y-73324266D01*
X40889997Y-73114797D01*
X41015960Y-72926280D01*
X41176280Y-72765960D01*
X41364797Y-72639997D01*
X41574266Y-72553232D01*
X41685451Y-72531116D01*
X41796635Y-72509000D01*
X42023365Y-72509000D01*
X42134549Y-72531116D01*
G37*
G36*
X72660483Y-68958335D02*
G01*
X72829240Y-69028236D01*
X72981118Y-69129718D01*
X73110282Y-69258882D01*
X73211764Y-69410760D01*
X73281665Y-69579517D01*
X73317300Y-69758668D01*
X73317300Y-69941332D01*
X73281665Y-70120483D01*
X73211764Y-70289240D01*
X73110282Y-70441118D01*
X72981118Y-70570282D01*
X72829240Y-70671764D01*
X72660483Y-70741665D01*
X72481332Y-70777300D01*
X72298668Y-70777300D01*
X72119517Y-70741665D01*
X71950760Y-70671764D01*
X71798882Y-70570282D01*
X71669718Y-70441118D01*
X71568236Y-70289240D01*
X71498335Y-70120483D01*
X71462700Y-69941332D01*
X71462700Y-69758668D01*
X71498335Y-69579517D01*
X71568236Y-69410760D01*
X71669718Y-69258882D01*
X71798882Y-69129718D01*
X71950760Y-69028236D01*
X72119517Y-68958335D01*
X72298668Y-68922700D01*
X72481332Y-68922700D01*
X72660483Y-68958335D01*
G37*
G36*
X45377300Y-70777300D02*
G01*
X43522700Y-70777300D01*
X43522700Y-68922700D01*
X45377300Y-68922700D01*
X45377300Y-70777300D01*
G37*
G36*
X47260483Y-68958335D02*
G01*
X47429240Y-69028236D01*
X47581118Y-69129718D01*
X47710282Y-69258882D01*
X47811764Y-69410760D01*
X47881665Y-69579517D01*
X47917300Y-69758668D01*
X47917300Y-69941332D01*
X47881665Y-70120483D01*
X47811764Y-70289240D01*
X47710282Y-70441118D01*
X47581118Y-70570282D01*
X47429240Y-70671764D01*
X47260483Y-70741665D01*
X47081332Y-70777300D01*
X46898668Y-70777300D01*
X46719517Y-70741665D01*
X46550760Y-70671764D01*
X46398882Y-70570282D01*
X46269718Y-70441118D01*
X46168236Y-70289240D01*
X46098335Y-70120483D01*
X46062700Y-69941332D01*
X46062700Y-69758668D01*
X46098335Y-69579517D01*
X46168236Y-69410760D01*
X46269718Y-69258882D01*
X46398882Y-69129718D01*
X46550760Y-69028236D01*
X46719517Y-68958335D01*
X46898668Y-68922700D01*
X47081332Y-68922700D01*
X47260483Y-68958335D01*
G37*
G36*
X49800483Y-68958335D02*
G01*
X49969240Y-69028236D01*
X50121118Y-69129718D01*
X50250282Y-69258882D01*
X50351764Y-69410760D01*
X50421665Y-69579517D01*
X50457300Y-69758668D01*
X50457300Y-69941332D01*
X50421665Y-70120483D01*
X50351764Y-70289240D01*
X50250282Y-70441118D01*
X50121118Y-70570282D01*
X49969240Y-70671764D01*
X49800483Y-70741665D01*
X49621332Y-70777300D01*
X49438668Y-70777300D01*
X49259517Y-70741665D01*
X49090760Y-70671764D01*
X48938882Y-70570282D01*
X48809718Y-70441118D01*
X48708236Y-70289240D01*
X48638335Y-70120483D01*
X48602700Y-69941332D01*
X48602700Y-69758668D01*
X48638335Y-69579517D01*
X48708236Y-69410760D01*
X48809718Y-69258882D01*
X48938882Y-69129718D01*
X49090760Y-69028236D01*
X49259517Y-68958335D01*
X49438668Y-68922700D01*
X49621332Y-68922700D01*
X49800483Y-68958335D01*
G37*
G36*
X52340483Y-68958335D02*
G01*
X52509240Y-69028236D01*
X52661118Y-69129718D01*
X52790282Y-69258882D01*
X52891764Y-69410760D01*
X52961665Y-69579517D01*
X52997300Y-69758668D01*
X52997300Y-69941332D01*
X52961665Y-70120483D01*
X52891764Y-70289240D01*
X52790282Y-70441118D01*
X52661118Y-70570282D01*
X52509240Y-70671764D01*
X52340483Y-70741665D01*
X52161332Y-70777300D01*
X51978668Y-70777300D01*
X51799517Y-70741665D01*
X51630760Y-70671764D01*
X51478882Y-70570282D01*
X51349718Y-70441118D01*
X51248236Y-70289240D01*
X51178335Y-70120483D01*
X51142700Y-69941332D01*
X51142700Y-69758668D01*
X51178335Y-69579517D01*
X51248236Y-69410760D01*
X51349718Y-69258882D01*
X51478882Y-69129718D01*
X51630760Y-69028236D01*
X51799517Y-68958335D01*
X51978668Y-68922700D01*
X52161332Y-68922700D01*
X52340483Y-68958335D01*
G37*
G36*
X54880483Y-68958335D02*
G01*
X55049240Y-69028236D01*
X55201118Y-69129718D01*
X55330282Y-69258882D01*
X55431764Y-69410760D01*
X55501665Y-69579517D01*
X55537300Y-69758668D01*
X55537300Y-69941332D01*
X55501665Y-70120483D01*
X55431764Y-70289240D01*
X55330282Y-70441118D01*
X55201118Y-70570282D01*
X55049240Y-70671764D01*
X54880483Y-70741665D01*
X54701332Y-70777300D01*
X54518668Y-70777300D01*
X54339517Y-70741665D01*
X54170760Y-70671764D01*
X54018882Y-70570282D01*
X53889718Y-70441118D01*
X53788236Y-70289240D01*
X53718335Y-70120483D01*
X53682700Y-69941332D01*
X53682700Y-69758668D01*
X53718335Y-69579517D01*
X53788236Y-69410760D01*
X53889718Y-69258882D01*
X54018882Y-69129718D01*
X54170760Y-69028236D01*
X54339517Y-68958335D01*
X54518668Y-68922700D01*
X54701332Y-68922700D01*
X54880483Y-68958335D01*
G37*
G36*
X57420483Y-68958335D02*
G01*
X57589240Y-69028236D01*
X57741118Y-69129718D01*
X57870282Y-69258882D01*
X57971764Y-69410760D01*
X58041665Y-69579517D01*
X58077300Y-69758668D01*
X58077300Y-69941332D01*
X58041665Y-70120483D01*
X57971764Y-70289240D01*
X57870282Y-70441118D01*
X57741118Y-70570282D01*
X57589240Y-70671764D01*
X57420483Y-70741665D01*
X57241332Y-70777300D01*
X57058668Y-70777300D01*
X56879517Y-70741665D01*
X56710760Y-70671764D01*
X56558882Y-70570282D01*
X56429718Y-70441118D01*
X56328236Y-70289240D01*
X56258335Y-70120483D01*
X56222700Y-69941332D01*
X56222700Y-69758668D01*
X56258335Y-69579517D01*
X56328236Y-69410760D01*
X56429718Y-69258882D01*
X56558882Y-69129718D01*
X56710760Y-69028236D01*
X56879517Y-68958335D01*
X57058668Y-68922700D01*
X57241332Y-68922700D01*
X57420483Y-68958335D01*
G37*
G36*
X59960483Y-68958335D02*
G01*
X60129240Y-69028236D01*
X60281118Y-69129718D01*
X60410282Y-69258882D01*
X60511764Y-69410760D01*
X60581665Y-69579517D01*
X60617300Y-69758668D01*
X60617300Y-69941332D01*
X60581665Y-70120483D01*
X60511764Y-70289240D01*
X60410282Y-70441118D01*
X60281118Y-70570282D01*
X60129240Y-70671764D01*
X59960483Y-70741665D01*
X59781332Y-70777300D01*
X59598668Y-70777300D01*
X59419517Y-70741665D01*
X59250760Y-70671764D01*
X59098882Y-70570282D01*
X58969718Y-70441118D01*
X58868236Y-70289240D01*
X58798335Y-70120483D01*
X58762700Y-69941332D01*
X58762700Y-69758668D01*
X58798335Y-69579517D01*
X58868236Y-69410760D01*
X58969718Y-69258882D01*
X59098882Y-69129718D01*
X59250760Y-69028236D01*
X59419517Y-68958335D01*
X59598668Y-68922700D01*
X59781332Y-68922700D01*
X59960483Y-68958335D01*
G37*
G36*
X62500483Y-68958335D02*
G01*
X62669240Y-69028236D01*
X62821118Y-69129718D01*
X62950282Y-69258882D01*
X63051764Y-69410760D01*
X63121665Y-69579517D01*
X63157300Y-69758668D01*
X63157300Y-69941332D01*
X63121665Y-70120483D01*
X63051764Y-70289240D01*
X62950282Y-70441118D01*
X62821118Y-70570282D01*
X62669240Y-70671764D01*
X62500483Y-70741665D01*
X62321332Y-70777300D01*
X62138668Y-70777300D01*
X61959517Y-70741665D01*
X61790760Y-70671764D01*
X61638882Y-70570282D01*
X61509718Y-70441118D01*
X61408236Y-70289240D01*
X61338335Y-70120483D01*
X61302700Y-69941332D01*
X61302700Y-69758668D01*
X61338335Y-69579517D01*
X61408236Y-69410760D01*
X61509718Y-69258882D01*
X61638882Y-69129718D01*
X61790760Y-69028236D01*
X61959517Y-68958335D01*
X62138668Y-68922700D01*
X62321332Y-68922700D01*
X62500483Y-68958335D01*
G37*
G36*
X65040483Y-68958335D02*
G01*
X65209240Y-69028236D01*
X65361118Y-69129718D01*
X65490282Y-69258882D01*
X65591764Y-69410760D01*
X65661665Y-69579517D01*
X65697300Y-69758668D01*
X65697300Y-69941332D01*
X65661665Y-70120483D01*
X65591764Y-70289240D01*
X65490282Y-70441118D01*
X65361118Y-70570282D01*
X65209240Y-70671764D01*
X65040483Y-70741665D01*
X64861332Y-70777300D01*
X64678668Y-70777300D01*
X64499517Y-70741665D01*
X64330760Y-70671764D01*
X64178882Y-70570282D01*
X64049718Y-70441118D01*
X63948236Y-70289240D01*
X63878335Y-70120483D01*
X63842700Y-69941332D01*
X63842700Y-69758668D01*
X63878335Y-69579517D01*
X63948236Y-69410760D01*
X64049718Y-69258882D01*
X64178882Y-69129718D01*
X64330760Y-69028236D01*
X64499517Y-68958335D01*
X64678668Y-68922700D01*
X64861332Y-68922700D01*
X65040483Y-68958335D01*
G37*
G36*
X67580483Y-68958335D02*
G01*
X67749240Y-69028236D01*
X67901118Y-69129718D01*
X68030282Y-69258882D01*
X68131764Y-69410760D01*
X68201665Y-69579517D01*
X68237300Y-69758668D01*
X68237300Y-69941332D01*
X68201665Y-70120483D01*
X68131764Y-70289240D01*
X68030282Y-70441118D01*
X67901118Y-70570282D01*
X67749240Y-70671764D01*
X67580483Y-70741665D01*
X67401332Y-70777300D01*
X67218668Y-70777300D01*
X67039517Y-70741665D01*
X66870760Y-70671764D01*
X66718882Y-70570282D01*
X66589718Y-70441118D01*
X66488236Y-70289240D01*
X66418335Y-70120483D01*
X66382700Y-69941332D01*
X66382700Y-69758668D01*
X66418335Y-69579517D01*
X66488236Y-69410760D01*
X66589718Y-69258882D01*
X66718882Y-69129718D01*
X66870760Y-69028236D01*
X67039517Y-68958335D01*
X67218668Y-68922700D01*
X67401332Y-68922700D01*
X67580483Y-68958335D01*
G37*
G36*
X70120483Y-68958335D02*
G01*
X70289240Y-69028236D01*
X70441118Y-69129718D01*
X70570282Y-69258882D01*
X70671764Y-69410760D01*
X70741665Y-69579517D01*
X70777300Y-69758668D01*
X70777300Y-69941332D01*
X70741665Y-70120483D01*
X70671764Y-70289240D01*
X70570282Y-70441118D01*
X70441118Y-70570282D01*
X70289240Y-70671764D01*
X70120483Y-70741665D01*
X69941332Y-70777300D01*
X69758668Y-70777300D01*
X69579517Y-70741665D01*
X69410760Y-70671764D01*
X69258882Y-70570282D01*
X69129718Y-70441118D01*
X69028236Y-70289240D01*
X68958335Y-70120483D01*
X68922700Y-69941332D01*
X68922700Y-69758668D01*
X68958335Y-69579517D01*
X69028236Y-69410760D01*
X69129718Y-69258882D01*
X69258882Y-69129718D01*
X69410760Y-69028236D01*
X69579517Y-68958335D01*
X69758668Y-68922700D01*
X69941332Y-68922700D01*
X70120483Y-68958335D01*
G37*
G36*
X99961000Y-68211000D02*
G01*
X98159000Y-68211000D01*
X98159000Y-66409000D01*
X99961000Y-66409000D01*
X99961000Y-68211000D01*
G37*
G36*
X101713512Y-66413927D02*
G01*
X101862812Y-66443624D01*
X102026784Y-66511544D01*
X102174354Y-66610147D01*
X102299853Y-66735646D01*
X102398456Y-66883216D01*
X102466376Y-67047188D01*
X102501000Y-67221259D01*
X102501000Y-67398741D01*
X102466376Y-67572812D01*
X102398456Y-67736784D01*
X102299853Y-67884354D01*
X102174354Y-68009853D01*
X102026784Y-68108456D01*
X101862812Y-68176376D01*
X101713512Y-68206073D01*
X101688742Y-68211000D01*
X101511258Y-68211000D01*
X101486488Y-68206073D01*
X101337188Y-68176376D01*
X101173216Y-68108456D01*
X101025646Y-68009853D01*
X100900147Y-67884354D01*
X100801544Y-67736784D01*
X100733624Y-67572812D01*
X100699000Y-67398741D01*
X100699000Y-67221259D01*
X100733624Y-67047188D01*
X100801544Y-66883216D01*
X100900147Y-66735646D01*
X101025646Y-66610147D01*
X101173216Y-66511544D01*
X101337188Y-66443624D01*
X101486488Y-66413927D01*
X101511258Y-66409000D01*
X101688742Y-66409000D01*
X101713512Y-66413927D01*
G37*
G36*
X104253512Y-66413927D02*
G01*
X104402812Y-66443624D01*
X104566784Y-66511544D01*
X104714354Y-66610147D01*
X104839853Y-66735646D01*
X104938456Y-66883216D01*
X105006376Y-67047188D01*
X105041000Y-67221259D01*
X105041000Y-67398741D01*
X105006376Y-67572812D01*
X104938456Y-67736784D01*
X104839853Y-67884354D01*
X104714354Y-68009853D01*
X104566784Y-68108456D01*
X104402812Y-68176376D01*
X104253512Y-68206073D01*
X104228742Y-68211000D01*
X104051258Y-68211000D01*
X104026488Y-68206073D01*
X103877188Y-68176376D01*
X103713216Y-68108456D01*
X103565646Y-68009853D01*
X103440147Y-67884354D01*
X103341544Y-67736784D01*
X103273624Y-67572812D01*
X103239000Y-67398741D01*
X103239000Y-67221259D01*
X103273624Y-67047188D01*
X103341544Y-66883216D01*
X103440147Y-66735646D01*
X103565646Y-66610147D01*
X103713216Y-66511544D01*
X103877188Y-66443624D01*
X104026488Y-66413927D01*
X104051258Y-66409000D01*
X104228742Y-66409000D01*
X104253512Y-66413927D01*
G37*
G36*
X106793512Y-66413927D02*
G01*
X106942812Y-66443624D01*
X107106784Y-66511544D01*
X107254354Y-66610147D01*
X107379853Y-66735646D01*
X107478456Y-66883216D01*
X107546376Y-67047188D01*
X107581000Y-67221259D01*
X107581000Y-67398741D01*
X107546376Y-67572812D01*
X107478456Y-67736784D01*
X107379853Y-67884354D01*
X107254354Y-68009853D01*
X107106784Y-68108456D01*
X106942812Y-68176376D01*
X106793512Y-68206073D01*
X106768742Y-68211000D01*
X106591258Y-68211000D01*
X106566488Y-68206073D01*
X106417188Y-68176376D01*
X106253216Y-68108456D01*
X106105646Y-68009853D01*
X105980147Y-67884354D01*
X105881544Y-67736784D01*
X105813624Y-67572812D01*
X105779000Y-67398741D01*
X105779000Y-67221259D01*
X105813624Y-67047188D01*
X105881544Y-66883216D01*
X105980147Y-66735646D01*
X106105646Y-66610147D01*
X106253216Y-66511544D01*
X106417188Y-66443624D01*
X106566488Y-66413927D01*
X106591258Y-66409000D01*
X106768742Y-66409000D01*
X106793512Y-66413927D01*
G37*
G36*
X77776564Y-64449389D02*
G01*
X77967833Y-64528615D01*
X77967835Y-64528616D01*
X78139973Y-64643635D01*
X78286365Y-64790027D01*
X78401385Y-64962167D01*
X78480611Y-65153436D01*
X78521000Y-65356484D01*
X78521000Y-65563516D01*
X78480611Y-65766564D01*
X78401385Y-65957833D01*
X78401384Y-65957835D01*
X78286365Y-66129973D01*
X78139973Y-66276365D01*
X77967835Y-66391384D01*
X77967834Y-66391385D01*
X77967833Y-66391385D01*
X77776564Y-66470611D01*
X77573516Y-66511000D01*
X77366484Y-66511000D01*
X77163436Y-66470611D01*
X76972167Y-66391385D01*
X76972166Y-66391385D01*
X76972165Y-66391384D01*
X76800027Y-66276365D01*
X76653635Y-66129973D01*
X76538616Y-65957835D01*
X76538615Y-65957833D01*
X76459389Y-65766564D01*
X76419000Y-65563516D01*
X76419000Y-65356484D01*
X76459389Y-65153436D01*
X76538615Y-64962167D01*
X76653635Y-64790027D01*
X76800027Y-64643635D01*
X76972165Y-64528616D01*
X76972167Y-64528615D01*
X77163436Y-64449389D01*
X77366484Y-64409000D01*
X77573516Y-64409000D01*
X77776564Y-64449389D01*
G37*
G36*
X84276564Y-64449389D02*
G01*
X84467833Y-64528615D01*
X84467835Y-64528616D01*
X84639973Y-64643635D01*
X84786365Y-64790027D01*
X84901385Y-64962167D01*
X84980611Y-65153436D01*
X85021000Y-65356484D01*
X85021000Y-65563516D01*
X84980611Y-65766564D01*
X84901385Y-65957833D01*
X84901384Y-65957835D01*
X84786365Y-66129973D01*
X84639973Y-66276365D01*
X84467835Y-66391384D01*
X84467834Y-66391385D01*
X84467833Y-66391385D01*
X84276564Y-66470611D01*
X84073516Y-66511000D01*
X83866484Y-66511000D01*
X83663436Y-66470611D01*
X83472167Y-66391385D01*
X83472166Y-66391385D01*
X83472165Y-66391384D01*
X83300027Y-66276365D01*
X83153635Y-66129973D01*
X83038616Y-65957835D01*
X83038615Y-65957833D01*
X82959389Y-65766564D01*
X82919000Y-65563516D01*
X82919000Y-65356484D01*
X82959389Y-65153436D01*
X83038615Y-64962167D01*
X83153635Y-64790027D01*
X83300027Y-64643635D01*
X83472165Y-64528616D01*
X83472167Y-64528615D01*
X83663436Y-64449389D01*
X83866484Y-64409000D01*
X84073516Y-64409000D01*
X84276564Y-64449389D01*
G37*
G36*
X92987395Y-62585546D02*
G01*
X93160466Y-62657234D01*
X93160467Y-62657235D01*
X93316227Y-62761310D01*
X93448690Y-62893773D01*
X93448691Y-62893775D01*
X93552766Y-63049534D01*
X93624454Y-63222605D01*
X93661000Y-63406333D01*
X93661000Y-63593667D01*
X93624454Y-63777395D01*
X93552766Y-63950466D01*
X93552765Y-63950467D01*
X93448690Y-64106227D01*
X93316227Y-64238690D01*
X93237818Y-64291081D01*
X93160466Y-64342766D01*
X92987395Y-64414454D01*
X92803667Y-64451000D01*
X92616333Y-64451000D01*
X92432605Y-64414454D01*
X92259534Y-64342766D01*
X92182182Y-64291081D01*
X92103773Y-64238690D01*
X91971310Y-64106227D01*
X91867235Y-63950467D01*
X91867234Y-63950466D01*
X91795546Y-63777395D01*
X91759000Y-63593667D01*
X91759000Y-63406333D01*
X91795546Y-63222605D01*
X91867234Y-63049534D01*
X91971309Y-62893775D01*
X91971310Y-62893773D01*
X92103773Y-62761310D01*
X92259533Y-62657235D01*
X92259534Y-62657234D01*
X92432605Y-62585546D01*
X92616333Y-62549000D01*
X92803667Y-62549000D01*
X92987395Y-62585546D01*
G37*
G36*
X91121000Y-64451000D02*
G01*
X89219000Y-64451000D01*
X89219000Y-62549000D01*
X91121000Y-62549000D01*
X91121000Y-64451000D01*
G37*
G36*
X106793512Y-61333927D02*
G01*
X106942812Y-61363624D01*
X107106784Y-61431544D01*
X107254354Y-61530147D01*
X107379853Y-61655646D01*
X107478456Y-61803216D01*
X107546376Y-61967188D01*
X107581000Y-62141259D01*
X107581000Y-62318741D01*
X107546376Y-62492812D01*
X107478456Y-62656784D01*
X107379853Y-62804354D01*
X107254354Y-62929853D01*
X107106784Y-63028456D01*
X106942812Y-63096376D01*
X106793512Y-63126073D01*
X106768742Y-63131000D01*
X106591258Y-63131000D01*
X106566488Y-63126073D01*
X106417188Y-63096376D01*
X106253216Y-63028456D01*
X106105646Y-62929853D01*
X105980147Y-62804354D01*
X105881544Y-62656784D01*
X105813624Y-62492812D01*
X105779000Y-62318741D01*
X105779000Y-62141259D01*
X105813624Y-61967188D01*
X105881544Y-61803216D01*
X105980147Y-61655646D01*
X106105646Y-61530147D01*
X106253216Y-61431544D01*
X106417188Y-61363624D01*
X106566488Y-61333927D01*
X106591258Y-61329000D01*
X106768742Y-61329000D01*
X106793512Y-61333927D01*
G37*
G36*
X99961000Y-63131000D02*
G01*
X98159000Y-63131000D01*
X98159000Y-61329000D01*
X99961000Y-61329000D01*
X99961000Y-63131000D01*
G37*
G36*
X101713512Y-61333927D02*
G01*
X101862812Y-61363624D01*
X102026784Y-61431544D01*
X102174354Y-61530147D01*
X102299853Y-61655646D01*
X102398456Y-61803216D01*
X102466376Y-61967188D01*
X102501000Y-62141259D01*
X102501000Y-62318741D01*
X102466376Y-62492812D01*
X102398456Y-62656784D01*
X102299853Y-62804354D01*
X102174354Y-62929853D01*
X102026784Y-63028456D01*
X101862812Y-63096376D01*
X101713512Y-63126073D01*
X101688742Y-63131000D01*
X101511258Y-63131000D01*
X101486488Y-63126073D01*
X101337188Y-63096376D01*
X101173216Y-63028456D01*
X101025646Y-62929853D01*
X100900147Y-62804354D01*
X100801544Y-62656784D01*
X100733624Y-62492812D01*
X100699000Y-62318741D01*
X100699000Y-62141259D01*
X100733624Y-61967188D01*
X100801544Y-61803216D01*
X100900147Y-61655646D01*
X101025646Y-61530147D01*
X101173216Y-61431544D01*
X101337188Y-61363624D01*
X101486488Y-61333927D01*
X101511258Y-61329000D01*
X101688742Y-61329000D01*
X101713512Y-61333927D01*
G37*
G36*
X104253512Y-61333927D02*
G01*
X104402812Y-61363624D01*
X104566784Y-61431544D01*
X104714354Y-61530147D01*
X104839853Y-61655646D01*
X104938456Y-61803216D01*
X105006376Y-61967188D01*
X105041000Y-62141259D01*
X105041000Y-62318741D01*
X105006376Y-62492812D01*
X104938456Y-62656784D01*
X104839853Y-62804354D01*
X104714354Y-62929853D01*
X104566784Y-63028456D01*
X104402812Y-63096376D01*
X104253512Y-63126073D01*
X104228742Y-63131000D01*
X104051258Y-63131000D01*
X104026488Y-63126073D01*
X103877188Y-63096376D01*
X103713216Y-63028456D01*
X103565646Y-62929853D01*
X103440147Y-62804354D01*
X103341544Y-62656784D01*
X103273624Y-62492812D01*
X103239000Y-62318741D01*
X103239000Y-62141259D01*
X103273624Y-61967188D01*
X103341544Y-61803216D01*
X103440147Y-61655646D01*
X103565646Y-61530147D01*
X103713216Y-61431544D01*
X103877188Y-61363624D01*
X104026488Y-61333927D01*
X104051258Y-61329000D01*
X104228742Y-61329000D01*
X104253512Y-61333927D01*
G37*
G36*
X77776564Y-59949389D02*
G01*
X77967833Y-60028615D01*
X77967835Y-60028616D01*
X78139973Y-60143635D01*
X78286365Y-60290027D01*
X78401385Y-60462167D01*
X78480611Y-60653436D01*
X78521000Y-60856484D01*
X78521000Y-61063516D01*
X78480611Y-61266564D01*
X78440407Y-61363625D01*
X78401384Y-61457835D01*
X78286365Y-61629973D01*
X78139973Y-61776365D01*
X77967835Y-61891384D01*
X77967834Y-61891385D01*
X77967833Y-61891385D01*
X77776564Y-61970611D01*
X77573516Y-62011000D01*
X77366484Y-62011000D01*
X77163436Y-61970611D01*
X76972167Y-61891385D01*
X76972166Y-61891385D01*
X76972165Y-61891384D01*
X76800027Y-61776365D01*
X76653635Y-61629973D01*
X76538616Y-61457835D01*
X76499593Y-61363625D01*
X76459389Y-61266564D01*
X76419000Y-61063516D01*
X76419000Y-60856484D01*
X76459389Y-60653436D01*
X76538615Y-60462167D01*
X76653635Y-60290027D01*
X76800027Y-60143635D01*
X76972165Y-60028616D01*
X76972167Y-60028615D01*
X77163436Y-59949389D01*
X77366484Y-59909000D01*
X77573516Y-59909000D01*
X77776564Y-59949389D01*
G37*
G36*
X84276564Y-59949389D02*
G01*
X84467833Y-60028615D01*
X84467835Y-60028616D01*
X84639973Y-60143635D01*
X84786365Y-60290027D01*
X84901385Y-60462167D01*
X84980611Y-60653436D01*
X85021000Y-60856484D01*
X85021000Y-61063516D01*
X84980611Y-61266564D01*
X84940407Y-61363625D01*
X84901384Y-61457835D01*
X84786365Y-61629973D01*
X84639973Y-61776365D01*
X84467835Y-61891384D01*
X84467834Y-61891385D01*
X84467833Y-61891385D01*
X84276564Y-61970611D01*
X84073516Y-62011000D01*
X83866484Y-62011000D01*
X83663436Y-61970611D01*
X83472167Y-61891385D01*
X83472166Y-61891385D01*
X83472165Y-61891384D01*
X83300027Y-61776365D01*
X83153635Y-61629973D01*
X83038616Y-61457835D01*
X82999593Y-61363625D01*
X82959389Y-61266564D01*
X82919000Y-61063516D01*
X82919000Y-60856484D01*
X82959389Y-60653436D01*
X83038615Y-60462167D01*
X83153635Y-60290027D01*
X83300027Y-60143635D01*
X83472165Y-60028616D01*
X83472167Y-60028615D01*
X83663436Y-59949389D01*
X83866484Y-59909000D01*
X84073516Y-59909000D01*
X84276564Y-59949389D01*
G37*
G36*
X123414549Y-54751116D02*
G01*
X123525734Y-54773232D01*
X123735203Y-54859997D01*
X123923720Y-54985960D01*
X124084040Y-55146280D01*
X124206986Y-55330282D01*
X124210004Y-55334799D01*
X124211131Y-55337520D01*
X124293883Y-55537300D01*
X124296768Y-55544267D01*
X124341000Y-55766635D01*
X124341000Y-55993365D01*
X124296768Y-56215733D01*
X124211131Y-56422481D01*
X124210003Y-56425203D01*
X124084040Y-56613720D01*
X123923720Y-56774040D01*
X123735203Y-56900003D01*
X123525734Y-56986768D01*
X123414549Y-57008884D01*
X123303365Y-57031000D01*
X123076635Y-57031000D01*
X122965451Y-57008884D01*
X122854266Y-56986768D01*
X122644797Y-56900003D01*
X122456280Y-56774040D01*
X122295960Y-56613720D01*
X122169997Y-56425203D01*
X122168870Y-56422481D01*
X122083232Y-56215733D01*
X122039000Y-55993365D01*
X122039000Y-55766635D01*
X122083232Y-55544267D01*
X122086118Y-55537300D01*
X122168869Y-55337520D01*
X122169996Y-55334799D01*
X122173014Y-55330282D01*
X122295960Y-55146280D01*
X122456280Y-54985960D01*
X122644797Y-54859997D01*
X122854266Y-54773232D01*
X122965451Y-54751116D01*
X123076635Y-54729000D01*
X123303365Y-54729000D01*
X123414549Y-54751116D01*
G37*
G36*
X82798228Y-55061703D02*
G01*
X82953100Y-55125853D01*
X83092481Y-55218985D01*
X83211015Y-55337519D01*
X83304147Y-55476900D01*
X83368297Y-55631772D01*
X83401000Y-55796184D01*
X83401000Y-55963816D01*
X83368297Y-56128228D01*
X83304147Y-56283100D01*
X83211015Y-56422481D01*
X83092481Y-56541015D01*
X82953100Y-56634147D01*
X82798228Y-56698297D01*
X82633816Y-56731000D01*
X82466184Y-56731000D01*
X82301772Y-56698297D01*
X82146900Y-56634147D01*
X82007519Y-56541015D01*
X81888985Y-56422481D01*
X81795853Y-56283100D01*
X81731703Y-56128228D01*
X81699000Y-55963816D01*
X81699000Y-55796184D01*
X81731703Y-55631772D01*
X81795853Y-55476900D01*
X81888985Y-55337519D01*
X82007519Y-55218985D01*
X82146900Y-55125853D01*
X82301772Y-55061703D01*
X82466184Y-55029000D01*
X82633816Y-55029000D01*
X82798228Y-55061703D01*
G37*
G36*
X90418228Y-55061703D02*
G01*
X90573100Y-55125853D01*
X90712481Y-55218985D01*
X90831015Y-55337519D01*
X90924147Y-55476900D01*
X90988297Y-55631772D01*
X91021000Y-55796184D01*
X91021000Y-55963816D01*
X90988297Y-56128228D01*
X90924147Y-56283100D01*
X90831015Y-56422481D01*
X90712481Y-56541015D01*
X90573100Y-56634147D01*
X90418228Y-56698297D01*
X90253816Y-56731000D01*
X90086184Y-56731000D01*
X89921772Y-56698297D01*
X89766900Y-56634147D01*
X89627519Y-56541015D01*
X89508985Y-56422481D01*
X89415853Y-56283100D01*
X89351703Y-56128228D01*
X89319000Y-55963816D01*
X89319000Y-55796184D01*
X89351703Y-55631772D01*
X89415853Y-55476900D01*
X89508985Y-55337519D01*
X89627519Y-55218985D01*
X89766900Y-55125853D01*
X89921772Y-55061703D01*
X90086184Y-55029000D01*
X90253816Y-55029000D01*
X90418228Y-55061703D01*
G37*
G36*
X70120483Y-53718335D02*
G01*
X70289240Y-53788236D01*
X70441118Y-53889718D01*
X70570282Y-54018882D01*
X70671764Y-54170760D01*
X70741665Y-54339517D01*
X70777300Y-54518668D01*
X70777300Y-54701332D01*
X70741665Y-54880483D01*
X70671764Y-55049240D01*
X70570282Y-55201118D01*
X70441118Y-55330282D01*
X70289240Y-55431764D01*
X70120483Y-55501665D01*
X69941332Y-55537300D01*
X69758668Y-55537300D01*
X69579517Y-55501665D01*
X69410760Y-55431764D01*
X69258882Y-55330282D01*
X69129718Y-55201118D01*
X69028236Y-55049240D01*
X68958335Y-54880483D01*
X68922700Y-54701332D01*
X68922700Y-54518668D01*
X68958335Y-54339517D01*
X69028236Y-54170760D01*
X69129718Y-54018882D01*
X69258882Y-53889718D01*
X69410760Y-53788236D01*
X69579517Y-53718335D01*
X69758668Y-53682700D01*
X69941332Y-53682700D01*
X70120483Y-53718335D01*
G37*
G36*
X67580483Y-53718335D02*
G01*
X67749240Y-53788236D01*
X67901118Y-53889718D01*
X68030282Y-54018882D01*
X68131764Y-54170760D01*
X68201665Y-54339517D01*
X68237300Y-54518668D01*
X68237300Y-54701332D01*
X68201665Y-54880483D01*
X68131764Y-55049240D01*
X68030282Y-55201118D01*
X67901118Y-55330282D01*
X67749240Y-55431764D01*
X67580483Y-55501665D01*
X67401332Y-55537300D01*
X67218668Y-55537300D01*
X67039517Y-55501665D01*
X66870760Y-55431764D01*
X66718882Y-55330282D01*
X66589718Y-55201118D01*
X66488236Y-55049240D01*
X66418335Y-54880483D01*
X66382700Y-54701332D01*
X66382700Y-54518668D01*
X66418335Y-54339517D01*
X66488236Y-54170760D01*
X66589718Y-54018882D01*
X66718882Y-53889718D01*
X66870760Y-53788236D01*
X67039517Y-53718335D01*
X67218668Y-53682700D01*
X67401332Y-53682700D01*
X67580483Y-53718335D01*
G37*
G36*
X72660483Y-53718335D02*
G01*
X72829240Y-53788236D01*
X72981118Y-53889718D01*
X73110282Y-54018882D01*
X73211764Y-54170760D01*
X73281665Y-54339517D01*
X73317300Y-54518668D01*
X73317300Y-54701332D01*
X73281665Y-54880483D01*
X73211764Y-55049240D01*
X73110282Y-55201118D01*
X72981118Y-55330282D01*
X72829240Y-55431764D01*
X72660483Y-55501665D01*
X72481332Y-55537300D01*
X72298668Y-55537300D01*
X72119517Y-55501665D01*
X71950760Y-55431764D01*
X71798882Y-55330282D01*
X71669718Y-55201118D01*
X71568236Y-55049240D01*
X71498335Y-54880483D01*
X71462700Y-54701332D01*
X71462700Y-54518668D01*
X71498335Y-54339517D01*
X71568236Y-54170760D01*
X71669718Y-54018882D01*
X71798882Y-53889718D01*
X71950760Y-53788236D01*
X72119517Y-53718335D01*
X72298668Y-53682700D01*
X72481332Y-53682700D01*
X72660483Y-53718335D01*
G37*
G36*
X62500483Y-53718335D02*
G01*
X62669240Y-53788236D01*
X62821118Y-53889718D01*
X62950282Y-54018882D01*
X63051764Y-54170760D01*
X63121665Y-54339517D01*
X63157300Y-54518668D01*
X63157300Y-54701332D01*
X63121665Y-54880483D01*
X63051764Y-55049240D01*
X62950282Y-55201118D01*
X62821118Y-55330282D01*
X62669240Y-55431764D01*
X62500483Y-55501665D01*
X62321332Y-55537300D01*
X62138668Y-55537300D01*
X61959517Y-55501665D01*
X61790760Y-55431764D01*
X61638882Y-55330282D01*
X61509718Y-55201118D01*
X61408236Y-55049240D01*
X61338335Y-54880483D01*
X61302700Y-54701332D01*
X61302700Y-54518668D01*
X61338335Y-54339517D01*
X61408236Y-54170760D01*
X61509718Y-54018882D01*
X61638882Y-53889718D01*
X61790760Y-53788236D01*
X61959517Y-53718335D01*
X62138668Y-53682700D01*
X62321332Y-53682700D01*
X62500483Y-53718335D01*
G37*
G36*
X59960483Y-53718335D02*
G01*
X60129240Y-53788236D01*
X60281118Y-53889718D01*
X60410282Y-54018882D01*
X60511764Y-54170760D01*
X60581665Y-54339517D01*
X60617300Y-54518668D01*
X60617300Y-54701332D01*
X60581665Y-54880483D01*
X60511764Y-55049240D01*
X60410282Y-55201118D01*
X60281118Y-55330282D01*
X60129240Y-55431764D01*
X59960483Y-55501665D01*
X59781332Y-55537300D01*
X59598668Y-55537300D01*
X59419517Y-55501665D01*
X59250760Y-55431764D01*
X59098882Y-55330282D01*
X58969718Y-55201118D01*
X58868236Y-55049240D01*
X58798335Y-54880483D01*
X58762700Y-54701332D01*
X58762700Y-54518668D01*
X58798335Y-54339517D01*
X58868236Y-54170760D01*
X58969718Y-54018882D01*
X59098882Y-53889718D01*
X59250760Y-53788236D01*
X59419517Y-53718335D01*
X59598668Y-53682700D01*
X59781332Y-53682700D01*
X59960483Y-53718335D01*
G37*
G36*
X57420483Y-53718335D02*
G01*
X57589240Y-53788236D01*
X57741118Y-53889718D01*
X57870282Y-54018882D01*
X57971764Y-54170760D01*
X58041665Y-54339517D01*
X58077300Y-54518668D01*
X58077300Y-54701332D01*
X58041665Y-54880483D01*
X57971764Y-55049240D01*
X57870282Y-55201118D01*
X57741118Y-55330282D01*
X57589240Y-55431764D01*
X57420483Y-55501665D01*
X57241332Y-55537300D01*
X57058668Y-55537300D01*
X56879517Y-55501665D01*
X56710760Y-55431764D01*
X56558882Y-55330282D01*
X56429718Y-55201118D01*
X56328236Y-55049240D01*
X56258335Y-54880483D01*
X56222700Y-54701332D01*
X56222700Y-54518668D01*
X56258335Y-54339517D01*
X56328236Y-54170760D01*
X56429718Y-54018882D01*
X56558882Y-53889718D01*
X56710760Y-53788236D01*
X56879517Y-53718335D01*
X57058668Y-53682700D01*
X57241332Y-53682700D01*
X57420483Y-53718335D01*
G37*
G36*
X54880483Y-53718335D02*
G01*
X55049240Y-53788236D01*
X55201118Y-53889718D01*
X55330282Y-54018882D01*
X55431764Y-54170760D01*
X55501665Y-54339517D01*
X55537300Y-54518668D01*
X55537300Y-54701332D01*
X55501665Y-54880483D01*
X55431764Y-55049240D01*
X55330282Y-55201118D01*
X55201118Y-55330282D01*
X55049240Y-55431764D01*
X54880483Y-55501665D01*
X54701332Y-55537300D01*
X54518668Y-55537300D01*
X54339517Y-55501665D01*
X54170760Y-55431764D01*
X54018882Y-55330282D01*
X53889718Y-55201118D01*
X53788236Y-55049240D01*
X53718335Y-54880483D01*
X53682700Y-54701332D01*
X53682700Y-54518668D01*
X53718335Y-54339517D01*
X53788236Y-54170760D01*
X53889718Y-54018882D01*
X54018882Y-53889718D01*
X54170760Y-53788236D01*
X54339517Y-53718335D01*
X54518668Y-53682700D01*
X54701332Y-53682700D01*
X54880483Y-53718335D01*
G37*
G36*
X52340483Y-53718335D02*
G01*
X52509240Y-53788236D01*
X52661118Y-53889718D01*
X52790282Y-54018882D01*
X52891764Y-54170760D01*
X52961665Y-54339517D01*
X52997300Y-54518668D01*
X52997300Y-54701332D01*
X52961665Y-54880483D01*
X52891764Y-55049240D01*
X52790282Y-55201118D01*
X52661118Y-55330282D01*
X52509240Y-55431764D01*
X52340483Y-55501665D01*
X52161332Y-55537300D01*
X51978668Y-55537300D01*
X51799517Y-55501665D01*
X51630760Y-55431764D01*
X51478882Y-55330282D01*
X51349718Y-55201118D01*
X51248236Y-55049240D01*
X51178335Y-54880483D01*
X51142700Y-54701332D01*
X51142700Y-54518668D01*
X51178335Y-54339517D01*
X51248236Y-54170760D01*
X51349718Y-54018882D01*
X51478882Y-53889718D01*
X51630760Y-53788236D01*
X51799517Y-53718335D01*
X51978668Y-53682700D01*
X52161332Y-53682700D01*
X52340483Y-53718335D01*
G37*
G36*
X49800483Y-53718335D02*
G01*
X49969240Y-53788236D01*
X50121118Y-53889718D01*
X50250282Y-54018882D01*
X50351764Y-54170760D01*
X50421665Y-54339517D01*
X50457300Y-54518668D01*
X50457300Y-54701332D01*
X50421665Y-54880483D01*
X50351764Y-55049240D01*
X50250282Y-55201118D01*
X50121118Y-55330282D01*
X49969240Y-55431764D01*
X49800483Y-55501665D01*
X49621332Y-55537300D01*
X49438668Y-55537300D01*
X49259517Y-55501665D01*
X49090760Y-55431764D01*
X48938882Y-55330282D01*
X48809718Y-55201118D01*
X48708236Y-55049240D01*
X48638335Y-54880483D01*
X48602700Y-54701332D01*
X48602700Y-54518668D01*
X48638335Y-54339517D01*
X48708236Y-54170760D01*
X48809718Y-54018882D01*
X48938882Y-53889718D01*
X49090760Y-53788236D01*
X49259517Y-53718335D01*
X49438668Y-53682700D01*
X49621332Y-53682700D01*
X49800483Y-53718335D01*
G37*
G36*
X47260483Y-53718335D02*
G01*
X47429240Y-53788236D01*
X47581118Y-53889718D01*
X47710282Y-54018882D01*
X47811764Y-54170760D01*
X47881665Y-54339517D01*
X47917300Y-54518668D01*
X47917300Y-54701332D01*
X47881665Y-54880483D01*
X47811764Y-55049240D01*
X47710282Y-55201118D01*
X47581118Y-55330282D01*
X47429240Y-55431764D01*
X47260483Y-55501665D01*
X47081332Y-55537300D01*
X46898668Y-55537300D01*
X46719517Y-55501665D01*
X46550760Y-55431764D01*
X46398882Y-55330282D01*
X46269718Y-55201118D01*
X46168236Y-55049240D01*
X46098335Y-54880483D01*
X46062700Y-54701332D01*
X46062700Y-54518668D01*
X46098335Y-54339517D01*
X46168236Y-54170760D01*
X46269718Y-54018882D01*
X46398882Y-53889718D01*
X46550760Y-53788236D01*
X46719517Y-53718335D01*
X46898668Y-53682700D01*
X47081332Y-53682700D01*
X47260483Y-53718335D01*
G37*
G36*
X44720483Y-53718335D02*
G01*
X44889240Y-53788236D01*
X45041118Y-53889718D01*
X45170282Y-54018882D01*
X45271764Y-54170760D01*
X45341665Y-54339517D01*
X45377300Y-54518668D01*
X45377300Y-54701332D01*
X45341665Y-54880483D01*
X45271764Y-55049240D01*
X45170282Y-55201118D01*
X45041118Y-55330282D01*
X44889240Y-55431764D01*
X44720483Y-55501665D01*
X44541332Y-55537300D01*
X44358668Y-55537300D01*
X44179517Y-55501665D01*
X44010760Y-55431764D01*
X43858882Y-55330282D01*
X43729718Y-55201118D01*
X43628236Y-55049240D01*
X43558335Y-54880483D01*
X43522700Y-54701332D01*
X43522700Y-54518668D01*
X43558335Y-54339517D01*
X43628236Y-54170760D01*
X43729718Y-54018882D01*
X43858882Y-53889718D01*
X44010760Y-53788236D01*
X44179517Y-53718335D01*
X44358668Y-53682700D01*
X44541332Y-53682700D01*
X44720483Y-53718335D01*
G37*
G36*
X65040483Y-53718335D02*
G01*
X65209240Y-53788236D01*
X65361118Y-53889718D01*
X65490282Y-54018882D01*
X65591764Y-54170760D01*
X65661665Y-54339517D01*
X65697300Y-54518668D01*
X65697300Y-54701332D01*
X65661665Y-54880483D01*
X65591764Y-55049240D01*
X65490282Y-55201118D01*
X65361118Y-55330282D01*
X65209240Y-55431764D01*
X65040483Y-55501665D01*
X64861332Y-55537300D01*
X64678668Y-55537300D01*
X64499517Y-55501665D01*
X64330760Y-55431764D01*
X64178882Y-55330282D01*
X64049718Y-55201118D01*
X63948236Y-55049240D01*
X63878335Y-54880483D01*
X63842700Y-54701332D01*
X63842700Y-54518668D01*
X63878335Y-54339517D01*
X63948236Y-54170760D01*
X64049718Y-54018882D01*
X64178882Y-53889718D01*
X64330760Y-53788236D01*
X64499517Y-53718335D01*
X64678668Y-53682700D01*
X64861332Y-53682700D01*
X65040483Y-53718335D01*
G37*
M02*
