M48
; DRILL file {KiCad (5.1.5)-3} date 2019/12/27 6:25:43
; FORMAT={-:-/ absolute / inch / decimal}
; #@! TF.CreationDate,2019-12-27T06:25:43+09:00
; #@! TF.GenerationSoftware,Kicad,Pcbnew,(5.1.5)-3
FMAT,2
INCH
T1C0.0315
T2C0.0354
T3C0.0394
T4C0.0430
T5C0.0433
T6C0.0591
T7C0.0669
T8C0.0866
T9C0.1575
%
G90
G05
T1
X3.25Y-2.2
X3.55Y-2.2
X1.75Y-5.35
X1.75Y-5.65
X1.75Y-3.1
X1.75Y-3.4
X1.75Y-4.6
X1.75Y-4.9
X1.75Y-3.85
X1.75Y-4.15
T2
X3.55Y-5.1
X3.85Y-5.1
X4.3Y-4.35
X4.6Y-4.35
X3.55Y-5.85
X3.85Y-5.85
X2.8Y-3.6
X3.1Y-3.6
X2.05Y-5.85
X2.35Y-5.85
X2.05Y-4.35
X2.35Y-4.35
X2.8Y-5.85
X3.1Y-5.85
X2.05Y-3.6
X2.35Y-3.6
X3.55Y-4.35
X3.85Y-4.35
X4.3Y-5.1
X4.6Y-5.1
X2.8Y-5.1
X3.1Y-5.1
X4.3Y-5.85
X4.6Y-5.85
X3.55Y-2.5
X3.65Y-2.5
X4.3Y-3.6
X4.6Y-3.6
X2.8Y-4.35
X3.1Y-4.35
X2.05Y-5.1
X2.35Y-5.1
X3.55Y-3.6
X3.85Y-3.6
T3
X3.9Y-2.65
X4.0Y-2.65
X4.1Y-2.65
X4.2Y-2.65
X3.9Y-2.45
X4.0Y-2.45
X4.1Y-2.45
X4.2Y-2.45
T4
X1.75Y-2.15
X1.75Y-2.75
X1.85Y-2.15
X1.85Y-2.75
X1.95Y-2.15
X1.95Y-2.75
X2.05Y-2.15
X2.05Y-2.75
X2.15Y-2.15
X2.15Y-2.75
X2.25Y-2.15
X2.25Y-2.75
X2.35Y-2.15
X2.35Y-2.75
X2.45Y-2.15
X2.45Y-2.75
X2.55Y-2.15
X2.55Y-2.75
X2.65Y-2.15
X2.65Y-2.75
X2.75Y-2.15
X2.75Y-2.75
X2.85Y-2.15
X2.85Y-2.75
T5
X3.05Y-2.4
X3.05Y-2.5772
X3.3059Y-2.4
X3.3059Y-2.5772
T6
X3.55Y-3.15
X3.8Y-3.05
X4.3Y-3.9
X4.55Y-3.8
X2.05Y-5.4
X2.3Y-5.3
X3.55Y-5.4
X3.8Y-5.3
X2.8Y-4.65
X3.05Y-4.55
X4.3Y-3.15
X4.55Y-3.05
X2.8Y-3.9
X3.05Y-3.8
X2.8Y-5.4
X3.05Y-5.3
X4.3Y-5.4
X4.55Y-5.3
X2.8Y-3.15
X3.05Y-3.05
X2.05Y-4.65
X2.3Y-4.55
X3.55Y-4.65
X3.8Y-4.55
X2.05Y-3.9
X2.3Y-3.8
X2.05Y-3.15
X2.3Y-3.05
X3.55Y-3.9
X3.8Y-3.8
X4.3Y-4.65
X4.55Y-4.55
T7
X3.5Y-3.25
X3.9Y-3.25
X4.25Y-4.0
X4.65Y-4.0
X2.0Y-5.5
X2.4Y-5.5
X3.5Y-5.5
X3.9Y-5.5
X2.75Y-4.75
X3.15Y-4.75
X4.25Y-3.25
X4.65Y-3.25
X2.75Y-4.0
X3.15Y-4.0
X2.75Y-5.5
X3.15Y-5.5
X4.25Y-5.5
X4.65Y-5.5
X2.75Y-3.25
X3.15Y-3.25
X2.0Y-4.75
X2.4Y-4.75
X3.5Y-4.75
X3.9Y-4.75
X2.0Y-4.0
X2.4Y-4.0
X2.0Y-3.25
X2.4Y-3.25
X3.5Y-4.0
X3.9Y-4.0
X4.25Y-4.75
X4.65Y-4.75
T8
X4.85Y-2.2
X1.65Y-2.9
X4.85Y-5.85
X1.65Y-5.85
T9
X4.45Y-5.5
X2.95Y-3.25
X2.2Y-4.75
X3.7Y-4.75
X2.2Y-4.0
X2.2Y-3.25
X3.7Y-4.0
X4.45Y-4.75
X3.7Y-3.25
X4.45Y-4.0
X2.2Y-5.5
X3.7Y-5.5
X2.95Y-4.75
X4.45Y-3.25
X2.95Y-4.0
X2.95Y-5.5
T0
M30
